<?xml version="1.0" standalone="no"?>
<!DOCTYPE svg PUBLIC "-//W3C//DTD SVG 1.1//EN" "http://www.w3.org/Graphics/SVG/1.1/DTD/svg11.dtd" >
<svg>
<metadata>
Created by FontForge 20090914 at Fri Feb 24 14:15:43 2012
 By root
2009 theTYPEfetish/Michael Wallner
</metadata>
<defs>
<font id="Straphanger" horiz-adv-x="435" >
  <font-face 
    font-family="Straphanger"
    font-weight="400"
    font-stretch="normal"
    units-per-em="1000"
    panose-1="2 0 6 6 2 0 0 2 0 4"
    ascent="800"
    descent="-200"
    x-height="550"
    cap-height="550"
    bbox="50 -160 454 630"
    underline-thickness="20"
    underline-position="-113"
    stemh="70"
    stemv="59"
    unicode-range="U+0020-U+25CA"
  />
<missing-glyph horiz-adv-x="1000" 
 />
    <glyph glyph-name=".notdef" horiz-adv-x="1000" 
 />
    <glyph glyph-name="eth" unicode="&#xf0;" 
d="M385 495c0 -8 -7 -15 -15 -15h-29c-8 0 -15 7 -15 15v40c0 8 7 15 15 15h29c8 0 15 -7 15 -15v-40zM247 495c0 -8 -7 -15 -15 -15h-29c-8 0 -15 7 -15 15v40c0 8 7 15 15 15h29c8 0 15 -7 15 -15v-40zM316 415c0 -8 -7 -15 -15 -15h-29c-8 0 -15 7 -15 15v40
c0 8 7 15 15 15h29c8 0 15 -7 15 -15v-40zM385 335c0 -8 -7 -15 -15 -15h-29c-8 0 -15 7 -15 15v40c0 8 7 15 15 15h29c8 0 15 -7 15 -15v-40zM178 495c0 -8 -7 -15 -15 -15h-29c-8 0 -15 7 -15 15v40c0 8 7 15 15 15h29c8 0 15 -7 15 -15v-40zM385 255c0 -8 -7 -15 -15 -15
h-29c-8 0 -15 7 -15 15v40c0 8 7 15 15 15h29c8 0 15 -7 15 -15v-40zM109 495c0 -8 -7 -15 -15 -15h-29c-8 0 -15 7 -15 15v40c0 8 7 15 15 15h29c8 0 15 -7 15 -15v-40zM247 335c0 -8 -7 -15 -15 -15h-29c-8 0 -15 7 -15 15v40c0 8 7 15 15 15h29c8 0 15 -7 15 -15v-40z
M385 175c0 -8 -7 -15 -15 -15h-29c-8 0 -15 7 -15 15v40c0 8 7 15 15 15h29c8 0 15 -7 15 -15v-40zM316 175c0 -8 -7 -15 -15 -15h-29c-8 0 -15 7 -15 15v40c0 8 7 15 15 15h29c8 0 15 -7 15 -15v-40zM385 95c0 -8 -7 -15 -15 -15h-29c-8 0 -15 7 -15 15v40c0 8 7 15 15 15
h29c8 0 15 -7 15 -15v-40zM247 175c0 -8 -7 -15 -15 -15h-29c-8 0 -15 7 -15 15v40c0 8 7 15 15 15h29c8 0 15 -7 15 -15v-40zM178 175c0 -8 -7 -15 -15 -15h-29c-8 0 -15 7 -15 15v40c0 8 7 15 15 15h29c8 0 15 -7 15 -15v-40zM316 15c0 -8 -7 -15 -15 -15h-29
c-8 0 -15 7 -15 15v40c0 8 7 15 15 15h29c8 0 15 -7 15 -15v-40zM247 15c0 -8 -7 -15 -15 -15h-29c-8 0 -15 7 -15 15v40c0 8 7 15 15 15h29c8 0 15 -7 15 -15v-40zM109 95c0 -8 -7 -15 -15 -15h-29c-8 0 -15 7 -15 15v40c0 8 7 15 15 15h29c8 0 15 -7 15 -15v-40zM178 15
c0 -8 -7 -15 -15 -15h-29c-8 0 -15 7 -15 15v40c0 8 7 15 15 15h29c8 0 15 -7 15 -15v-40z" />
    <glyph glyph-name="Lslash" unicode="&#x141;" 
d="M109 495c0 -8 -7 -15 -15 -15h-29c-8 0 -15 7 -15 15v40c0 8 7 15 15 15h29c8 0 15 -7 15 -15v-40zM109 415c0 -8 -7 -15 -15 -15h-29c-8 0 -15 7 -15 15v40c0 8 7 15 15 15h29c8 0 15 -7 15 -15v-40zM247 335c0 -8 -7 -15 -15 -15h-29c-8 0 -15 7 -15 15v40
c0 8 7 15 15 15h29c8 0 15 -7 15 -15v-40zM109 335c0 -8 -7 -15 -15 -15h-29c-8 0 -15 7 -15 15v40c0 8 7 15 15 15h29c8 0 15 -7 15 -15v-40zM385 15c0 -8 -7 -15 -15 -15h-29c-8 0 -15 7 -15 15v40c0 8 7 15 15 15h29c8 0 15 -7 15 -15v-40zM109 255c0 -8 -7 -15 -15 -15
h-29c-8 0 -15 7 -15 15v40c0 8 7 15 15 15h29c8 0 15 -7 15 -15v-40zM178 255c0 -8 -7 -15 -15 -15h-29c-8 0 -15 7 -15 15v40c0 8 7 15 15 15h29c8 0 15 -7 15 -15v-40zM316 15c0 -8 -7 -15 -15 -15h-29c-8 0 -15 7 -15 15v40c0 8 7 15 15 15h29c8 0 15 -7 15 -15v-40z
M109 175c0 -8 -7 -15 -15 -15h-29c-8 0 -15 7 -15 15v40c0 8 7 15 15 15h29c8 0 15 -7 15 -15v-40zM247 15c0 -8 -7 -15 -15 -15h-29c-8 0 -15 7 -15 15v40c0 8 7 15 15 15h29c8 0 15 -7 15 -15v-40zM109 95c0 -8 -7 -15 -15 -15h-29c-8 0 -15 7 -15 15v40c0 8 7 15 15 15
h29c8 0 15 -7 15 -15v-40zM178 15c0 -8 -7 -15 -15 -15h-29c-8 0 -15 7 -15 15v40c0 8 7 15 15 15h29c8 0 15 -7 15 -15v-40zM109 15c0 -8 -7 -15 -15 -15h-29c-8 0 -15 7 -15 15v40c0 8 7 15 15 15h29c8 0 15 -7 15 -15v-40z" />
    <glyph glyph-name="lslash" unicode="&#x142;" 
d="M109 495c0 -8 -7 -15 -15 -15h-29c-8 0 -15 7 -15 15v40c0 8 7 15 15 15h29c8 0 15 -7 15 -15v-40zM109 415c0 -8 -7 -15 -15 -15h-29c-8 0 -15 7 -15 15v40c0 8 7 15 15 15h29c8 0 15 -7 15 -15v-40zM247 335c0 -8 -7 -15 -15 -15h-29c-8 0 -15 7 -15 15v40
c0 8 7 15 15 15h29c8 0 15 -7 15 -15v-40zM109 335c0 -8 -7 -15 -15 -15h-29c-8 0 -15 7 -15 15v40c0 8 7 15 15 15h29c8 0 15 -7 15 -15v-40zM385 15c0 -8 -7 -15 -15 -15h-29c-8 0 -15 7 -15 15v40c0 8 7 15 15 15h29c8 0 15 -7 15 -15v-40zM109 255c0 -8 -7 -15 -15 -15
h-29c-8 0 -15 7 -15 15v40c0 8 7 15 15 15h29c8 0 15 -7 15 -15v-40zM178 255c0 -8 -7 -15 -15 -15h-29c-8 0 -15 7 -15 15v40c0 8 7 15 15 15h29c8 0 15 -7 15 -15v-40zM316 15c0 -8 -7 -15 -15 -15h-29c-8 0 -15 7 -15 15v40c0 8 7 15 15 15h29c8 0 15 -7 15 -15v-40z
M109 175c0 -8 -7 -15 -15 -15h-29c-8 0 -15 7 -15 15v40c0 8 7 15 15 15h29c8 0 15 -7 15 -15v-40zM247 15c0 -8 -7 -15 -15 -15h-29c-8 0 -15 7 -15 15v40c0 8 7 15 15 15h29c8 0 15 -7 15 -15v-40zM109 95c0 -8 -7 -15 -15 -15h-29c-8 0 -15 7 -15 15v40c0 8 7 15 15 15
h29c8 0 15 -7 15 -15v-40zM178 15c0 -8 -7 -15 -15 -15h-29c-8 0 -15 7 -15 15v40c0 8 7 15 15 15h29c8 0 15 -7 15 -15v-40zM109 15c0 -8 -7 -15 -15 -15h-29c-8 0 -15 7 -15 15v40c0 8 7 15 15 15h29c8 0 15 -7 15 -15v-40z" />
    <glyph glyph-name="Thorn" unicode="&#xde;" 
d="M316 415c0 -8 -7 -15 -15 -15h-29c-8 0 -15 7 -15 15v40c0 8 7 15 15 15h29c8 0 15 -7 15 -15v-40zM385 335c0 -8 -7 -15 -15 -15h-29c-8 0 -15 7 -15 15v40c0 8 7 15 15 15h29c8 0 15 -7 15 -15v-40zM247 415c0 -8 -7 -15 -15 -15h-29c-8 0 -15 7 -15 15v40
c0 8 7 15 15 15h29c8 0 15 -7 15 -15v-40zM385 255c0 -8 -7 -15 -15 -15h-29c-8 0 -15 7 -15 15v40c0 8 7 15 15 15h29c8 0 15 -7 15 -15v-40zM109 495c0 -8 -7 -15 -15 -15h-29c-8 0 -15 7 -15 15v40c0 8 7 15 15 15h29c8 0 15 -7 15 -15v-40zM178 415c0 -8 -7 -15 -15 -15
h-29c-8 0 -15 7 -15 15v40c0 8 7 15 15 15h29c8 0 15 -7 15 -15v-40zM109 415c0 -8 -7 -15 -15 -15h-29c-8 0 -15 7 -15 15v40c0 8 7 15 15 15h29c8 0 15 -7 15 -15v-40zM316 175c0 -8 -7 -15 -15 -15h-29c-8 0 -15 7 -15 15v40c0 8 7 15 15 15h29c8 0 15 -7 15 -15v-40z
M109 335c0 -8 -7 -15 -15 -15h-29c-8 0 -15 7 -15 15v40c0 8 7 15 15 15h29c8 0 15 -7 15 -15v-40zM247 175c0 -8 -7 -15 -15 -15h-29c-8 0 -15 7 -15 15v40c0 8 7 15 15 15h29c8 0 15 -7 15 -15v-40zM109 255c0 -8 -7 -15 -15 -15h-29c-8 0 -15 7 -15 15v40c0 8 7 15 15 15
h29c8 0 15 -7 15 -15v-40zM178 175c0 -8 -7 -15 -15 -15h-29c-8 0 -15 7 -15 15v40c0 8 7 15 15 15h29c8 0 15 -7 15 -15v-40zM109 175c0 -8 -7 -15 -15 -15h-29c-8 0 -15 7 -15 15v40c0 8 7 15 15 15h29c8 0 15 -7 15 -15v-40zM109 95c0 -8 -7 -15 -15 -15h-29
c-8 0 -15 7 -15 15v40c0 8 7 15 15 15h29c8 0 15 -7 15 -15v-40zM109 15c0 -8 -7 -15 -15 -15h-29c-8 0 -15 7 -15 15v40c0 8 7 15 15 15h29c8 0 15 -7 15 -15v-40z" />
    <glyph glyph-name="thorn" unicode="&#xfe;" 
d="M316 415c0 -8 -7 -15 -15 -15h-29c-8 0 -15 7 -15 15v40c0 8 7 15 15 15h29c8 0 15 -7 15 -15v-40zM385 335c0 -8 -7 -15 -15 -15h-29c-8 0 -15 7 -15 15v40c0 8 7 15 15 15h29c8 0 15 -7 15 -15v-40zM247 415c0 -8 -7 -15 -15 -15h-29c-8 0 -15 7 -15 15v40
c0 8 7 15 15 15h29c8 0 15 -7 15 -15v-40zM385 255c0 -8 -7 -15 -15 -15h-29c-8 0 -15 7 -15 15v40c0 8 7 15 15 15h29c8 0 15 -7 15 -15v-40zM109 495c0 -8 -7 -15 -15 -15h-29c-8 0 -15 7 -15 15v40c0 8 7 15 15 15h29c8 0 15 -7 15 -15v-40zM178 415c0 -8 -7 -15 -15 -15
h-29c-8 0 -15 7 -15 15v40c0 8 7 15 15 15h29c8 0 15 -7 15 -15v-40zM109 415c0 -8 -7 -15 -15 -15h-29c-8 0 -15 7 -15 15v40c0 8 7 15 15 15h29c8 0 15 -7 15 -15v-40zM316 175c0 -8 -7 -15 -15 -15h-29c-8 0 -15 7 -15 15v40c0 8 7 15 15 15h29c8 0 15 -7 15 -15v-40z
M109 335c0 -8 -7 -15 -15 -15h-29c-8 0 -15 7 -15 15v40c0 8 7 15 15 15h29c8 0 15 -7 15 -15v-40zM247 175c0 -8 -7 -15 -15 -15h-29c-8 0 -15 7 -15 15v40c0 8 7 15 15 15h29c8 0 15 -7 15 -15v-40zM109 255c0 -8 -7 -15 -15 -15h-29c-8 0 -15 7 -15 15v40c0 8 7 15 15 15
h29c8 0 15 -7 15 -15v-40zM178 175c0 -8 -7 -15 -15 -15h-29c-8 0 -15 7 -15 15v40c0 8 7 15 15 15h29c8 0 15 -7 15 -15v-40zM109 175c0 -8 -7 -15 -15 -15h-29c-8 0 -15 7 -15 15v40c0 8 7 15 15 15h29c8 0 15 -7 15 -15v-40zM109 95c0 -8 -7 -15 -15 -15h-29
c-8 0 -15 7 -15 15v40c0 8 7 15 15 15h29c8 0 15 -7 15 -15v-40zM109 15c0 -8 -7 -15 -15 -15h-29c-8 0 -15 7 -15 15v40c0 8 7 15 15 15h29c8 0 15 -7 15 -15v-40z" />
    <glyph glyph-name="5x8" 
d="M385 575c0 -8 -7 -15 -15 -15h-29c-8 0 -15 7 -15 15v40c0 8 7 15 15 15h29c8 0 15 -7 15 -15v-40zM316 575c0 -8 -7 -15 -15 -15h-29c-8 0 -15 7 -15 15v40c0 8 7 15 15 15h29c8 0 15 -7 15 -15v-40zM385 495c0 -8 -7 -15 -15 -15h-29c-8 0 -15 7 -15 15v40
c0 8 7 15 15 15h29c8 0 15 -7 15 -15v-40zM247 575c0 -8 -7 -15 -15 -15h-29c-8 0 -15 7 -15 15v40c0 8 7 15 15 15h29c8 0 15 -7 15 -15v-40zM316 495c0 -8 -7 -15 -15 -15h-29c-8 0 -15 7 -15 15v40c0 8 7 15 15 15h29c8 0 15 -7 15 -15v-40zM385 415c0 -8 -7 -15 -15 -15
h-29c-8 0 -15 7 -15 15v40c0 8 7 15 15 15h29c8 0 15 -7 15 -15v-40zM178 575c0 -8 -7 -15 -15 -15h-29c-8 0 -15 7 -15 15v40c0 8 7 15 15 15h29c8 0 15 -7 15 -15v-40zM247 495c0 -8 -7 -15 -15 -15h-29c-8 0 -15 7 -15 15v40c0 8 7 15 15 15h29c8 0 15 -7 15 -15v-40z
M316 415c0 -8 -7 -15 -15 -15h-29c-8 0 -15 7 -15 15v40c0 8 7 15 15 15h29c8 0 15 -7 15 -15v-40zM385 335c0 -8 -7 -15 -15 -15h-29c-8 0 -15 7 -15 15v40c0 8 7 15 15 15h29c8 0 15 -7 15 -15v-40zM109 575c0 -8 -7 -15 -15 -15h-29c-8 0 -15 7 -15 15v40c0 8 7 15 15 15
h29c8 0 15 -7 15 -15v-40zM178 495c0 -8 -7 -15 -15 -15h-29c-8 0 -15 7 -15 15v40c0 8 7 15 15 15h29c8 0 15 -7 15 -15v-40zM247 415c0 -8 -7 -15 -15 -15h-29c-8 0 -15 7 -15 15v40c0 8 7 15 15 15h29c8 0 15 -7 15 -15v-40zM316 335c0 -8 -7 -15 -15 -15h-29
c-8 0 -15 7 -15 15v40c0 8 7 15 15 15h29c8 0 15 -7 15 -15v-40zM385 255c0 -8 -7 -15 -15 -15h-29c-8 0 -15 7 -15 15v40c0 8 7 15 15 15h29c8 0 15 -7 15 -15v-40zM109 495c0 -8 -7 -15 -15 -15h-29c-8 0 -15 7 -15 15v40c0 8 7 15 15 15h29c8 0 15 -7 15 -15v-40z
M178 415c0 -8 -7 -15 -15 -15h-29c-8 0 -15 7 -15 15v40c0 8 7 15 15 15h29c8 0 15 -7 15 -15v-40zM247 335c0 -8 -7 -15 -15 -15h-29c-8 0 -15 7 -15 15v40c0 8 7 15 15 15h29c8 0 15 -7 15 -15v-40zM316 255c0 -8 -7 -15 -15 -15h-29c-8 0 -15 7 -15 15v40c0 8 7 15 15 15
h29c8 0 15 -7 15 -15v-40zM385 175c0 -8 -7 -15 -15 -15h-29c-8 0 -15 7 -15 15v40c0 8 7 15 15 15h29c8 0 15 -7 15 -15v-40zM109 415c0 -8 -7 -15 -15 -15h-29c-8 0 -15 7 -15 15v40c0 8 7 15 15 15h29c8 0 15 -7 15 -15v-40zM178 335c0 -8 -7 -15 -15 -15h-29
c-8 0 -15 7 -15 15v40c0 8 7 15 15 15h29c8 0 15 -7 15 -15v-40zM247 255c0 -8 -7 -15 -15 -15h-29c-8 0 -15 7 -15 15v40c0 8 7 15 15 15h29c8 0 15 -7 15 -15v-40zM316 175c0 -8 -7 -15 -15 -15h-29c-8 0 -15 7 -15 15v40c0 8 7 15 15 15h29c8 0 15 -7 15 -15v-40zM385 95
c0 -8 -7 -15 -15 -15h-29c-8 0 -15 7 -15 15v40c0 8 7 15 15 15h29c8 0 15 -7 15 -15v-40zM109 335c0 -8 -7 -15 -15 -15h-29c-8 0 -15 7 -15 15v40c0 8 7 15 15 15h29c8 0 15 -7 15 -15v-40zM178 255c0 -8 -7 -15 -15 -15h-29c-8 0 -15 7 -15 15v40c0 8 7 15 15 15h29
c8 0 15 -7 15 -15v-40zM247 175c0 -8 -7 -15 -15 -15h-29c-8 0 -15 7 -15 15v40c0 8 7 15 15 15h29c8 0 15 -7 15 -15v-40zM316 95c0 -8 -7 -15 -15 -15h-29c-8 0 -15 7 -15 15v40c0 8 7 15 15 15h29c8 0 15 -7 15 -15v-40zM385 15c0 -8 -7 -15 -15 -15h-29
c-8 0 -15 7 -15 15v40c0 8 7 15 15 15h29c8 0 15 -7 15 -15v-40zM109 255c0 -8 -7 -15 -15 -15h-29c-8 0 -15 7 -15 15v40c0 8 7 15 15 15h29c8 0 15 -7 15 -15v-40zM178 175c0 -8 -7 -15 -15 -15h-29c-8 0 -15 7 -15 15v40c0 8 7 15 15 15h29c8 0 15 -7 15 -15v-40zM247 95
c0 -8 -7 -15 -15 -15h-29c-8 0 -15 7 -15 15v40c0 8 7 15 15 15h29c8 0 15 -7 15 -15v-40zM316 15c0 -8 -7 -15 -15 -15h-29c-8 0 -15 7 -15 15v40c0 8 7 15 15 15h29c8 0 15 -7 15 -15v-40zM109 175c0 -8 -7 -15 -15 -15h-29c-8 0 -15 7 -15 15v40c0 8 7 15 15 15h29
c8 0 15 -7 15 -15v-40zM178 95c0 -8 -7 -15 -15 -15h-29c-8 0 -15 7 -15 15v40c0 8 7 15 15 15h29c8 0 15 -7 15 -15v-40zM247 15c0 -8 -7 -15 -15 -15h-29c-8 0 -15 7 -15 15v40c0 8 7 15 15 15h29c8 0 15 -7 15 -15v-40zM109 95c0 -8 -7 -15 -15 -15h-29
c-8 0 -15 7 -15 15v40c0 8 7 15 15 15h29c8 0 15 -7 15 -15v-40zM178 15c0 -8 -7 -15 -15 -15h-29c-8 0 -15 7 -15 15v40c0 8 7 15 15 15h29c8 0 15 -7 15 -15v-40zM109 15c0 -8 -7 -15 -15 -15h-29c-8 0 -15 7 -15 15v40c0 8 7 15 15 15h29c8 0 15 -7 15 -15v-40z" />
    <glyph glyph-name="5x7" 
d="M385 495c0 -8 -7 -15 -15 -15h-29c-8 0 -15 7 -15 15v40c0 8 7 15 15 15h29c8 0 15 -7 15 -15v-40zM316 495c0 -8 -7 -15 -15 -15h-29c-8 0 -15 7 -15 15v40c0 8 7 15 15 15h29c8 0 15 -7 15 -15v-40zM385 415c0 -8 -7 -15 -15 -15h-29c-8 0 -15 7 -15 15v40
c0 8 7 15 15 15h29c8 0 15 -7 15 -15v-40zM247 495c0 -8 -7 -15 -15 -15h-29c-8 0 -15 7 -15 15v40c0 8 7 15 15 15h29c8 0 15 -7 15 -15v-40zM316 415c0 -8 -7 -15 -15 -15h-29c-8 0 -15 7 -15 15v40c0 8 7 15 15 15h29c8 0 15 -7 15 -15v-40zM385 335c0 -8 -7 -15 -15 -15
h-29c-8 0 -15 7 -15 15v40c0 8 7 15 15 15h29c8 0 15 -7 15 -15v-40zM178 495c0 -8 -7 -15 -15 -15h-29c-8 0 -15 7 -15 15v40c0 8 7 15 15 15h29c8 0 15 -7 15 -15v-40zM247 415c0 -8 -7 -15 -15 -15h-29c-8 0 -15 7 -15 15v40c0 8 7 15 15 15h29c8 0 15 -7 15 -15v-40z
M316 335c0 -8 -7 -15 -15 -15h-29c-8 0 -15 7 -15 15v40c0 8 7 15 15 15h29c8 0 15 -7 15 -15v-40zM385 255c0 -8 -7 -15 -15 -15h-29c-8 0 -15 7 -15 15v40c0 8 7 15 15 15h29c8 0 15 -7 15 -15v-40zM109 495c0 -8 -7 -15 -15 -15h-29c-8 0 -15 7 -15 15v40c0 8 7 15 15 15
h29c8 0 15 -7 15 -15v-40zM178 415c0 -8 -7 -15 -15 -15h-29c-8 0 -15 7 -15 15v40c0 8 7 15 15 15h29c8 0 15 -7 15 -15v-40zM247 335c0 -8 -7 -15 -15 -15h-29c-8 0 -15 7 -15 15v40c0 8 7 15 15 15h29c8 0 15 -7 15 -15v-40zM316 255c0 -8 -7 -15 -15 -15h-29
c-8 0 -15 7 -15 15v40c0 8 7 15 15 15h29c8 0 15 -7 15 -15v-40zM385 175c0 -8 -7 -15 -15 -15h-29c-8 0 -15 7 -15 15v40c0 8 7 15 15 15h29c8 0 15 -7 15 -15v-40zM109 415c0 -8 -7 -15 -15 -15h-29c-8 0 -15 7 -15 15v40c0 8 7 15 15 15h29c8 0 15 -7 15 -15v-40z
M178 335c0 -8 -7 -15 -15 -15h-29c-8 0 -15 7 -15 15v40c0 8 7 15 15 15h29c8 0 15 -7 15 -15v-40zM247 255c0 -8 -7 -15 -15 -15h-29c-8 0 -15 7 -15 15v40c0 8 7 15 15 15h29c8 0 15 -7 15 -15v-40zM316 175c0 -8 -7 -15 -15 -15h-29c-8 0 -15 7 -15 15v40c0 8 7 15 15 15
h29c8 0 15 -7 15 -15v-40zM385 95c0 -8 -7 -15 -15 -15h-29c-8 0 -15 7 -15 15v40c0 8 7 15 15 15h29c8 0 15 -7 15 -15v-40zM109 335c0 -8 -7 -15 -15 -15h-29c-8 0 -15 7 -15 15v40c0 8 7 15 15 15h29c8 0 15 -7 15 -15v-40zM178 255c0 -8 -7 -15 -15 -15h-29
c-8 0 -15 7 -15 15v40c0 8 7 15 15 15h29c8 0 15 -7 15 -15v-40zM247 175c0 -8 -7 -15 -15 -15h-29c-8 0 -15 7 -15 15v40c0 8 7 15 15 15h29c8 0 15 -7 15 -15v-40zM316 95c0 -8 -7 -15 -15 -15h-29c-8 0 -15 7 -15 15v40c0 8 7 15 15 15h29c8 0 15 -7 15 -15v-40zM385 15
c0 -8 -7 -15 -15 -15h-29c-8 0 -15 7 -15 15v40c0 8 7 15 15 15h29c8 0 15 -7 15 -15v-40zM109 255c0 -8 -7 -15 -15 -15h-29c-8 0 -15 7 -15 15v40c0 8 7 15 15 15h29c8 0 15 -7 15 -15v-40zM178 175c0 -8 -7 -15 -15 -15h-29c-8 0 -15 7 -15 15v40c0 8 7 15 15 15h29
c8 0 15 -7 15 -15v-40zM247 95c0 -8 -7 -15 -15 -15h-29c-8 0 -15 7 -15 15v40c0 8 7 15 15 15h29c8 0 15 -7 15 -15v-40zM316 15c0 -8 -7 -15 -15 -15h-29c-8 0 -15 7 -15 15v40c0 8 7 15 15 15h29c8 0 15 -7 15 -15v-40zM109 175c0 -8 -7 -15 -15 -15h-29
c-8 0 -15 7 -15 15v40c0 8 7 15 15 15h29c8 0 15 -7 15 -15v-40zM178 95c0 -8 -7 -15 -15 -15h-29c-8 0 -15 7 -15 15v40c0 8 7 15 15 15h29c8 0 15 -7 15 -15v-40zM247 15c0 -8 -7 -15 -15 -15h-29c-8 0 -15 7 -15 15v40c0 8 7 15 15 15h29c8 0 15 -7 15 -15v-40zM109 95
c0 -8 -7 -15 -15 -15h-29c-8 0 -15 7 -15 15v40c0 8 7 15 15 15h29c8 0 15 -7 15 -15v-40zM178 15c0 -8 -7 -15 -15 -15h-29c-8 0 -15 7 -15 15v40c0 8 7 15 15 15h29c8 0 15 -7 15 -15v-40zM109 15c0 -8 -7 -15 -15 -15h-29c-8 0 -15 7 -15 15v40c0 8 7 15 15 15h29
c8 0 15 -7 15 -15v-40z" />
    <glyph glyph-name="space" unicode=" " horiz-adv-x="464" 
 />
    <glyph glyph-name="exclam" unicode="!" horiz-adv-x="159" 
d="M109 495c0 -8 -7 -15 -15 -15h-29c-8 0 -15 7 -15 15v40c0 8 7 15 15 15h29c8 0 15 -7 15 -15v-40zM109 415c0 -8 -7 -15 -15 -15h-29c-8 0 -15 7 -15 15v40c0 8 7 15 15 15h29c8 0 15 -7 15 -15v-40zM109 335c0 -8 -7 -15 -15 -15h-29c-8 0 -15 7 -15 15v40
c0 8 7 15 15 15h29c8 0 15 -7 15 -15v-40zM109 255c0 -8 -7 -15 -15 -15h-29c-8 0 -15 7 -15 15v40c0 8 7 15 15 15h29c8 0 15 -7 15 -15v-40zM109 95c0 -8 -7 -15 -15 -15h-29c-8 0 -15 7 -15 15v40c0 8 7 15 15 15h29c8 0 15 -7 15 -15v-40zM109 15c0 -8 -7 -15 -15 -15
h-29c-8 0 -15 7 -15 15v40c0 8 7 15 15 15h29c8 0 15 -7 15 -15v-40z" />
    <glyph glyph-name="quotedbl" unicode="&#x22;" horiz-adv-x="297" 
d="M247 495c0 -8 -7 -15 -15 -15h-29c-8 0 -15 7 -15 15v40c0 8 7 15 15 15h29c8 0 15 -7 15 -15v-40zM247 415c0 -8 -7 -15 -15 -15h-29c-8 0 -15 7 -15 15v40c0 8 7 15 15 15h29c8 0 15 -7 15 -15v-40zM109 495c0 -8 -7 -15 -15 -15h-29c-8 0 -15 7 -15 15v40
c0 8 7 15 15 15h29c8 0 15 -7 15 -15v-40zM247 335c0 -8 -7 -15 -15 -15h-29c-8 0 -15 7 -15 15v40c0 8 7 15 15 15h29c8 0 15 -7 15 -15v-40zM109 415c0 -8 -7 -15 -15 -15h-29c-8 0 -15 7 -15 15v40c0 8 7 15 15 15h29c8 0 15 -7 15 -15v-40zM109 335c0 -8 -7 -15 -15 -15
h-29c-8 0 -15 7 -15 15v40c0 8 7 15 15 15h29c8 0 15 -7 15 -15v-40z" />
    <glyph glyph-name="numbersign" unicode="#" 
d="M316 495c0 -8 -7 -15 -15 -15h-29c-8 0 -15 7 -15 15v40c0 8 7 15 15 15h29c8 0 15 -7 15 -15v-40zM316 415c0 -8 -7 -15 -15 -15h-29c-8 0 -15 7 -15 15v40c0 8 7 15 15 15h29c8 0 15 -7 15 -15v-40zM385 335c0 -8 -7 -15 -15 -15h-29c-8 0 -15 7 -15 15v40
c0 8 7 15 15 15h29c8 0 15 -7 15 -15v-40zM178 495c0 -8 -7 -15 -15 -15h-29c-8 0 -15 7 -15 15v40c0 8 7 15 15 15h29c8 0 15 -7 15 -15v-40zM316 335c0 -8 -7 -15 -15 -15h-29c-8 0 -15 7 -15 15v40c0 8 7 15 15 15h29c8 0 15 -7 15 -15v-40zM178 415c0 -8 -7 -15 -15 -15
h-29c-8 0 -15 7 -15 15v40c0 8 7 15 15 15h29c8 0 15 -7 15 -15v-40zM247 335c0 -8 -7 -15 -15 -15h-29c-8 0 -15 7 -15 15v40c0 8 7 15 15 15h29c8 0 15 -7 15 -15v-40zM316 255c0 -8 -7 -15 -15 -15h-29c-8 0 -15 7 -15 15v40c0 8 7 15 15 15h29c8 0 15 -7 15 -15v-40z
M385 175c0 -8 -7 -15 -15 -15h-29c-8 0 -15 7 -15 15v40c0 8 7 15 15 15h29c8 0 15 -7 15 -15v-40zM178 335c0 -8 -7 -15 -15 -15h-29c-8 0 -15 7 -15 15v40c0 8 7 15 15 15h29c8 0 15 -7 15 -15v-40zM316 175c0 -8 -7 -15 -15 -15h-29c-8 0 -15 7 -15 15v40c0 8 7 15 15 15
h29c8 0 15 -7 15 -15v-40zM109 335c0 -8 -7 -15 -15 -15h-29c-8 0 -15 7 -15 15v40c0 8 7 15 15 15h29c8 0 15 -7 15 -15v-40zM178 255c0 -8 -7 -15 -15 -15h-29c-8 0 -15 7 -15 15v40c0 8 7 15 15 15h29c8 0 15 -7 15 -15v-40zM247 175c0 -8 -7 -15 -15 -15h-29
c-8 0 -15 7 -15 15v40c0 8 7 15 15 15h29c8 0 15 -7 15 -15v-40zM316 95c0 -8 -7 -15 -15 -15h-29c-8 0 -15 7 -15 15v40c0 8 7 15 15 15h29c8 0 15 -7 15 -15v-40zM178 175c0 -8 -7 -15 -15 -15h-29c-8 0 -15 7 -15 15v40c0 8 7 15 15 15h29c8 0 15 -7 15 -15v-40zM316 15
c0 -8 -7 -15 -15 -15h-29c-8 0 -15 7 -15 15v40c0 8 7 15 15 15h29c8 0 15 -7 15 -15v-40zM109 175c0 -8 -7 -15 -15 -15h-29c-8 0 -15 7 -15 15v40c0 8 7 15 15 15h29c8 0 15 -7 15 -15v-40zM178 95c0 -8 -7 -15 -15 -15h-29c-8 0 -15 7 -15 15v40c0 8 7 15 15 15h29
c8 0 15 -7 15 -15v-40zM178 15c0 -8 -7 -15 -15 -15h-29c-8 0 -15 7 -15 15v40c0 8 7 15 15 15h29c8 0 15 -7 15 -15v-40z" />
    <glyph glyph-name="dollar" unicode="$" 
d="M385 415c0 -8 -7 -15 -15 -15h-29c-8 0 -15 7 -15 15v40c0 8 7 15 15 15h29c8 0 15 -7 15 -15v-40zM247 495c0 -8 -7 -15 -15 -15h-29c-8 0 -15 7 -15 15v40c0 8 7 15 15 15h29c8 0 15 -7 15 -15v-40zM316 415c0 -8 -7 -15 -15 -15h-29c-8 0 -15 7 -15 15v40
c0 8 7 15 15 15h29c8 0 15 -7 15 -15v-40zM247 415c0 -8 -7 -15 -15 -15h-29c-8 0 -15 7 -15 15v40c0 8 7 15 15 15h29c8 0 15 -7 15 -15v-40zM178 415c0 -8 -7 -15 -15 -15h-29c-8 0 -15 7 -15 15v40c0 8 7 15 15 15h29c8 0 15 -7 15 -15v-40zM316 255c0 -8 -7 -15 -15 -15
h-29c-8 0 -15 7 -15 15v40c0 8 7 15 15 15h29c8 0 15 -7 15 -15v-40zM385 175c0 -8 -7 -15 -15 -15h-29c-8 0 -15 7 -15 15v40c0 8 7 15 15 15h29c8 0 15 -7 15 -15v-40zM247 255c0 -8 -7 -15 -15 -15h-29c-8 0 -15 7 -15 15v40c0 8 7 15 15 15h29c8 0 15 -7 15 -15v-40z
M109 335c0 -8 -7 -15 -15 -15h-29c-8 0 -15 7 -15 15v40c0 8 7 15 15 15h29c8 0 15 -7 15 -15v-40zM178 255c0 -8 -7 -15 -15 -15h-29c-8 0 -15 7 -15 15v40c0 8 7 15 15 15h29c8 0 15 -7 15 -15v-40zM316 95c0 -8 -7 -15 -15 -15h-29c-8 0 -15 7 -15 15v40c0 8 7 15 15 15
h29c8 0 15 -7 15 -15v-40zM247 95c0 -8 -7 -15 -15 -15h-29c-8 0 -15 7 -15 15v40c0 8 7 15 15 15h29c8 0 15 -7 15 -15v-40zM178 95c0 -8 -7 -15 -15 -15h-29c-8 0 -15 7 -15 15v40c0 8 7 15 15 15h29c8 0 15 -7 15 -15v-40zM247 15c0 -8 -7 -15 -15 -15h-29
c-8 0 -15 7 -15 15v40c0 8 7 15 15 15h29c8 0 15 -7 15 -15v-40zM109 95c0 -8 -7 -15 -15 -15h-29c-8 0 -15 7 -15 15v40c0 8 7 15 15 15h29c8 0 15 -7 15 -15v-40z" />
    <glyph glyph-name="percent" unicode="%" 
d="M385 495c0 -8 -7 -15 -15 -15h-29c-8 0 -15 7 -15 15v40c0 8 7 15 15 15h29c8 0 15 -7 15 -15v-40zM385 415c0 -8 -7 -15 -15 -15h-29c-8 0 -15 7 -15 15v40c0 8 7 15 15 15h29c8 0 15 -7 15 -15v-40zM178 495c0 -8 -7 -15 -15 -15h-29c-8 0 -15 7 -15 15v40
c0 8 7 15 15 15h29c8 0 15 -7 15 -15v-40zM316 335c0 -8 -7 -15 -15 -15h-29c-8 0 -15 7 -15 15v40c0 8 7 15 15 15h29c8 0 15 -7 15 -15v-40zM109 495c0 -8 -7 -15 -15 -15h-29c-8 0 -15 7 -15 15v40c0 8 7 15 15 15h29c8 0 15 -7 15 -15v-40zM178 415c0 -8 -7 -15 -15 -15
h-29c-8 0 -15 7 -15 15v40c0 8 7 15 15 15h29c8 0 15 -7 15 -15v-40zM109 415c0 -8 -7 -15 -15 -15h-29c-8 0 -15 7 -15 15v40c0 8 7 15 15 15h29c8 0 15 -7 15 -15v-40zM247 255c0 -8 -7 -15 -15 -15h-29c-8 0 -15 7 -15 15v40c0 8 7 15 15 15h29c8 0 15 -7 15 -15v-40z
M385 95c0 -8 -7 -15 -15 -15h-29c-8 0 -15 7 -15 15v40c0 8 7 15 15 15h29c8 0 15 -7 15 -15v-40zM316 95c0 -8 -7 -15 -15 -15h-29c-8 0 -15 7 -15 15v40c0 8 7 15 15 15h29c8 0 15 -7 15 -15v-40zM385 15c0 -8 -7 -15 -15 -15h-29c-8 0 -15 7 -15 15v40c0 8 7 15 15 15h29
c8 0 15 -7 15 -15v-40zM178 175c0 -8 -7 -15 -15 -15h-29c-8 0 -15 7 -15 15v40c0 8 7 15 15 15h29c8 0 15 -7 15 -15v-40zM316 15c0 -8 -7 -15 -15 -15h-29c-8 0 -15 7 -15 15v40c0 8 7 15 15 15h29c8 0 15 -7 15 -15v-40zM109 95c0 -8 -7 -15 -15 -15h-29
c-8 0 -15 7 -15 15v40c0 8 7 15 15 15h29c8 0 15 -7 15 -15v-40zM109 15c0 -8 -7 -15 -15 -15h-29c-8 0 -15 7 -15 15v40c0 8 7 15 15 15h29c8 0 15 -7 15 -15v-40z" />
    <glyph glyph-name="ampersand" unicode="&#x26;" 
d="M316 495c0 -8 -7 -15 -15 -15h-29c-8 0 -15 7 -15 15v40c0 8 7 15 15 15h29c8 0 15 -7 15 -15v-40zM385 415c0 -8 -7 -15 -15 -15h-29c-8 0 -15 7 -15 15v40c0 8 7 15 15 15h29c8 0 15 -7 15 -15v-40zM247 495c0 -8 -7 -15 -15 -15h-29c-8 0 -15 7 -15 15v40
c0 8 7 15 15 15h29c8 0 15 -7 15 -15v-40zM178 495c0 -8 -7 -15 -15 -15h-29c-8 0 -15 7 -15 15v40c0 8 7 15 15 15h29c8 0 15 -7 15 -15v-40zM385 255c0 -8 -7 -15 -15 -15h-29c-8 0 -15 7 -15 15v40c0 8 7 15 15 15h29c8 0 15 -7 15 -15v-40zM316 255c0 -8 -7 -15 -15 -15
h-29c-8 0 -15 7 -15 15v40c0 8 7 15 15 15h29c8 0 15 -7 15 -15v-40zM385 175c0 -8 -7 -15 -15 -15h-29c-8 0 -15 7 -15 15v40c0 8 7 15 15 15h29c8 0 15 -7 15 -15v-40zM109 415c0 -8 -7 -15 -15 -15h-29c-8 0 -15 7 -15 15v40c0 8 7 15 15 15h29c8 0 15 -7 15 -15v-40z
M247 255c0 -8 -7 -15 -15 -15h-29c-8 0 -15 7 -15 15v40c0 8 7 15 15 15h29c8 0 15 -7 15 -15v-40zM385 95c0 -8 -7 -15 -15 -15h-29c-8 0 -15 7 -15 15v40c0 8 7 15 15 15h29c8 0 15 -7 15 -15v-40zM109 335c0 -8 -7 -15 -15 -15h-29c-8 0 -15 7 -15 15v40c0 8 7 15 15 15
h29c8 0 15 -7 15 -15v-40zM178 255c0 -8 -7 -15 -15 -15h-29c-8 0 -15 7 -15 15v40c0 8 7 15 15 15h29c8 0 15 -7 15 -15v-40zM385 15c0 -8 -7 -15 -15 -15h-29c-8 0 -15 7 -15 15v40c0 8 7 15 15 15h29c8 0 15 -7 15 -15v-40zM316 15c0 -8 -7 -15 -15 -15h-29
c-8 0 -15 7 -15 15v40c0 8 7 15 15 15h29c8 0 15 -7 15 -15v-40zM109 175c0 -8 -7 -15 -15 -15h-29c-8 0 -15 7 -15 15v40c0 8 7 15 15 15h29c8 0 15 -7 15 -15v-40zM247 15c0 -8 -7 -15 -15 -15h-29c-8 0 -15 7 -15 15v40c0 8 7 15 15 15h29c8 0 15 -7 15 -15v-40zM109 95
c0 -8 -7 -15 -15 -15h-29c-8 0 -15 7 -15 15v40c0 8 7 15 15 15h29c8 0 15 -7 15 -15v-40zM178 15c0 -8 -7 -15 -15 -15h-29c-8 0 -15 7 -15 15v40c0 8 7 15 15 15h29c8 0 15 -7 15 -15v-40z" />
    <glyph glyph-name="quotesingle" unicode="'" horiz-adv-x="159" 
d="M109 495c0 -8 -7 -15 -15 -15h-29c-8 0 -15 7 -15 15v40c0 8 7 15 15 15h29c8 0 15 -7 15 -15v-40zM109 415c0 -8 -7 -15 -15 -15h-29c-8 0 -15 7 -15 15v40c0 8 7 15 15 15h29c8 0 15 -7 15 -15v-40zM109 335c0 -8 -7 -15 -15 -15h-29c-8 0 -15 7 -15 15v40
c0 8 7 15 15 15h29c8 0 15 -7 15 -15v-40z" />
    <glyph glyph-name="parenleft" unicode="(" horiz-adv-x="228" 
d="M178 495c0 -8 -7 -15 -15 -15h-29c-8 0 -15 7 -15 15v40c0 8 7 15 15 15h29c8 0 15 -7 15 -15v-40zM109 415c0 -8 -7 -15 -15 -15h-29c-8 0 -15 7 -15 15v40c0 8 7 15 15 15h29c8 0 15 -7 15 -15v-40zM109 335c0 -8 -7 -15 -15 -15h-29c-8 0 -15 7 -15 15v40
c0 8 7 15 15 15h29c8 0 15 -7 15 -15v-40zM109 255c0 -8 -7 -15 -15 -15h-29c-8 0 -15 7 -15 15v40c0 8 7 15 15 15h29c8 0 15 -7 15 -15v-40zM109 175c0 -8 -7 -15 -15 -15h-29c-8 0 -15 7 -15 15v40c0 8 7 15 15 15h29c8 0 15 -7 15 -15v-40zM109 95c0 -8 -7 -15 -15 -15
h-29c-8 0 -15 7 -15 15v40c0 8 7 15 15 15h29c8 0 15 -7 15 -15v-40zM178 15c0 -8 -7 -15 -15 -15h-29c-8 0 -15 7 -15 15v40c0 8 7 15 15 15h29c8 0 15 -7 15 -15v-40z" />
    <glyph glyph-name="parenright" unicode=")" horiz-adv-x="228" 
d="M109 495c0 -8 -7 -15 -15 -15h-29c-8 0 -15 7 -15 15v40c0 8 7 15 15 15h29c8 0 15 -7 15 -15v-40zM178 415c0 -8 -7 -15 -15 -15h-29c-8 0 -15 7 -15 15v40c0 8 7 15 15 15h29c8 0 15 -7 15 -15v-40zM178 335c0 -8 -7 -15 -15 -15h-29c-8 0 -15 7 -15 15v40
c0 8 7 15 15 15h29c8 0 15 -7 15 -15v-40zM178 255c0 -8 -7 -15 -15 -15h-29c-8 0 -15 7 -15 15v40c0 8 7 15 15 15h29c8 0 15 -7 15 -15v-40zM178 175c0 -8 -7 -15 -15 -15h-29c-8 0 -15 7 -15 15v40c0 8 7 15 15 15h29c8 0 15 -7 15 -15v-40zM178 95c0 -8 -7 -15 -15 -15
h-29c-8 0 -15 7 -15 15v40c0 8 7 15 15 15h29c8 0 15 -7 15 -15v-40zM109 15c0 -8 -7 -15 -15 -15h-29c-8 0 -15 7 -15 15v40c0 8 7 15 15 15h29c8 0 15 -7 15 -15v-40z" />
    <glyph glyph-name="asterisk" unicode="*" horiz-adv-x="297" 
d="M247 495c0 -8 -7 -15 -15 -15h-29c-8 0 -15 7 -15 15v40c0 8 7 15 15 15h29c8 0 15 -7 15 -15v-40zM109 495c0 -8 -7 -15 -15 -15h-29c-8 0 -15 7 -15 15v40c0 8 7 15 15 15h29c8 0 15 -7 15 -15v-40zM178 415c0 -8 -7 -15 -15 -15h-29c-8 0 -15 7 -15 15v40
c0 8 7 15 15 15h29c8 0 15 -7 15 -15v-40zM247 335c0 -8 -7 -15 -15 -15h-29c-8 0 -15 7 -15 15v40c0 8 7 15 15 15h29c8 0 15 -7 15 -15v-40zM109 335c0 -8 -7 -15 -15 -15h-29c-8 0 -15 7 -15 15v40c0 8 7 15 15 15h29c8 0 15 -7 15 -15v-40z" />
    <glyph glyph-name="plus" unicode="+" 
d="M247 415c0 -8 -7 -15 -15 -15h-29c-8 0 -15 7 -15 15v40c0 8 7 15 15 15h29c8 0 15 -7 15 -15v-40zM385 255c0 -8 -7 -15 -15 -15h-29c-8 0 -15 7 -15 15v40c0 8 7 15 15 15h29c8 0 15 -7 15 -15v-40zM247 335c0 -8 -7 -15 -15 -15h-29c-8 0 -15 7 -15 15v40
c0 8 7 15 15 15h29c8 0 15 -7 15 -15v-40zM316 255c0 -8 -7 -15 -15 -15h-29c-8 0 -15 7 -15 15v40c0 8 7 15 15 15h29c8 0 15 -7 15 -15v-40zM247 255c0 -8 -7 -15 -15 -15h-29c-8 0 -15 7 -15 15v40c0 8 7 15 15 15h29c8 0 15 -7 15 -15v-40zM178 255c0 -8 -7 -15 -15 -15
h-29c-8 0 -15 7 -15 15v40c0 8 7 15 15 15h29c8 0 15 -7 15 -15v-40zM247 175c0 -8 -7 -15 -15 -15h-29c-8 0 -15 7 -15 15v40c0 8 7 15 15 15h29c8 0 15 -7 15 -15v-40zM109 255c0 -8 -7 -15 -15 -15h-29c-8 0 -15 7 -15 15v40c0 8 7 15 15 15h29c8 0 15 -7 15 -15v-40z
M247 95c0 -8 -7 -15 -15 -15h-29c-8 0 -15 7 -15 15v40c0 8 7 15 15 15h29c8 0 15 -7 15 -15v-40z" />
    <glyph glyph-name="comma" unicode="," horiz-adv-x="228" 
d="M178 95c0 -8 -7 -15 -15 -15h-29c-8 0 -15 7 -15 15v40c0 8 7 15 15 15h29c8 0 15 -7 15 -15v-40zM178 15c0 -8 -7 -15 -15 -15h-29c-8 0 -15 7 -15 15v40c0 8 7 15 15 15h29c8 0 15 -7 15 -15v-40zM109 -65c0 -8 -7 -15 -15 -15h-29c-8 0 -15 7 -15 15v40
c0 8 7 15 15 15h29c8 0 15 -7 15 -15v-40z" />
    <glyph glyph-name="hyphen" unicode="-" horiz-adv-x="297" 
d="M247 255c0 -8 -7 -15 -15 -15h-29c-8 0 -15 7 -15 15v40c0 8 7 15 15 15h29c8 0 15 -7 15 -15v-40zM178 255c0 -8 -7 -15 -15 -15h-29c-8 0 -15 7 -15 15v40c0 8 7 15 15 15h29c8 0 15 -7 15 -15v-40zM109 255c0 -8 -7 -15 -15 -15h-29c-8 0 -15 7 -15 15v40
c0 8 7 15 15 15h29c8 0 15 -7 15 -15v-40z" />
    <glyph glyph-name="period" unicode="." horiz-adv-x="159" 
d="M109 95c0 -8 -7 -15 -15 -15h-29c-8 0 -15 7 -15 15v40c0 8 7 15 15 15h29c8 0 15 -7 15 -15v-40zM109 15c0 -8 -7 -15 -15 -15h-29c-8 0 -15 7 -15 15v40c0 8 7 15 15 15h29c8 0 15 -7 15 -15v-40z" />
    <glyph glyph-name="slash" unicode="/" 
d="M385 495c0 -8 -7 -15 -15 -15h-29c-8 0 -15 7 -15 15v40c0 8 7 15 15 15h29c8 0 15 -7 15 -15v-40zM385 415c0 -8 -7 -15 -15 -15h-29c-8 0 -15 7 -15 15v40c0 8 7 15 15 15h29c8 0 15 -7 15 -15v-40zM316 335c0 -8 -7 -15 -15 -15h-29c-8 0 -15 7 -15 15c1 13 0 30 0 40
c0 8 7 15 15 15h29c8 0 15 -7 15 -15v-40zM247 255c0 -8 -7 -15 -15 -15h-29c-8 0 -15 7 -15 15v40c0 8 7 15 15 15h29c8 0 15 -7 15 -15v-40zM178 175c0 -8 -7 -15 -15 -15h-29c-8 0 -15 7 -15 15v40c0 8 7 15 15 15h29c8 0 15 -7 15 -15v-40zM109 95c0 -8 -7 -15 -15 -15
h-29c-8 0 -15 7 -15 15v40c0 8 7 15 15 15h29c8 0 15 -7 15 -15v-40zM109 15c0 -8 -7 -15 -15 -15h-29c-8 0 -15 7 -15 15v40c0 8 7 15 15 15h29c8 0 15 -7 15 -15v-40z" />
    <glyph glyph-name="zero" unicode="0" 
d="M316 495c0 -8 -7 -15 -15 -15h-29c-8 0 -15 7 -15 15v40c0 8 7 15 15 15h29c8 0 15 -7 15 -15v-40zM385 415c0 -8 -7 -15 -15 -15h-29c-8 0 -15 7 -15 15v40c0 8 7 15 15 15h29c8 0 15 -7 15 -15v-40zM247 495c0 -8 -7 -15 -15 -15h-29c-8 0 -15 7 -15 15v40
c0 8 7 15 15 15h29c8 0 15 -7 15 -15v-40zM316 415c0 -8 -7 -15 -15 -15h-29c-8 0 -15 7 -15 15v40c0 8 7 15 15 15h29c8 0 15 -7 15 -15v-40zM385 335c0 -8 -7 -15 -15 -15h-29c-8 0 -15 7 -15 15v40c0 8 7 15 15 15h29c8 0 15 -7 15 -15v-40zM178 495c0 -8 -7 -15 -15 -15
h-29c-8 0 -15 7 -15 15v40c0 8 7 15 15 15h29c8 0 15 -7 15 -15v-40zM385 255c0 -8 -7 -15 -15 -15h-29c-8 0 -15 7 -15 15v40c0 8 7 15 15 15h29c8 0 15 -7 15 -15v-40zM247 335c0 -8 -7 -15 -15 -15h-29c-8 0 -15 7 -15 15v40c0 8 7 15 15 15h29c8 0 15 -7 15 -15v-40z
M385 175c0 -8 -7 -15 -15 -15h-29c-8 0 -15 7 -15 15v40c0 8 7 15 15 15h29c8 0 15 -7 15 -15v-40zM109 415c0 -8 -7 -15 -15 -15h-29c-8 0 -15 7 -15 15v40c0 8 7 15 15 15h29c8 0 15 -7 15 -15v-40zM247 255c0 -8 -7 -15 -15 -15h-29c-8 0 -15 7 -15 15v40c0 8 7 15 15 15
h29c8 0 15 -7 15 -15v-40zM385 95c0 -8 -7 -15 -15 -15h-29c-8 0 -15 7 -15 15v40c0 8 7 15 15 15h29c8 0 15 -7 15 -15v-40zM109 335c0 -8 -7 -15 -15 -15h-29c-8 0 -15 7 -15 15v40c0 8 7 15 15 15h29c8 0 15 -7 15 -15v-40zM247 175c0 -8 -7 -15 -15 -15h-29
c-8 0 -15 7 -15 15v40c0 8 7 15 15 15h29c8 0 15 -7 15 -15v-40zM109 255c0 -8 -7 -15 -15 -15h-29c-8 0 -15 7 -15 15v40c0 8 7 15 15 15h29c8 0 15 -7 15 -15v-40zM316 15c0 -8 -7 -15 -15 -15h-29c-8 0 -15 7 -15 15v40c0 8 7 15 15 15h29c8 0 15 -7 15 -15v-40zM109 175
c0 -8 -7 -15 -15 -15h-29c-8 0 -15 7 -15 15v40c0 8 7 15 15 15h29c8 0 15 -7 15 -15v-40zM178 95c0 -8 -7 -15 -15 -15h-29c-8 0 -15 7 -15 15v40c0 8 7 15 15 15h29c8 0 15 -7 15 -15v-40zM247 15c0 -8 -7 -15 -15 -15h-29c-8 0 -15 7 -15 15v40c0 8 7 15 15 15h29
c8 0 15 -7 15 -15v-40zM109 95c0 -8 -7 -15 -15 -15h-29c-8 0 -15 7 -15 15v40c0 8 7 15 15 15h29c8 0 15 -7 15 -15v-40zM178 15c0 -8 -7 -15 -15 -15h-29c-8 0 -15 7 -15 15v40c0 8 7 15 15 15h29c8 0 15 -7 15 -15v-40z" />
    <glyph glyph-name="one" unicode="1" 
d="M247 495c0 -8 -7 -15 -15 -15h-29c-8 0 -15 7 -15 15v40c0 8 7 15 15 15h29c8 0 15 -7 15 -15v-40zM178 495c0 -8 -7 -15 -15 -15h-29c-8 0 -15 7 -15 15v40c0 8 7 15 15 15h29c8 0 15 -7 15 -15v-40zM247 415c0 -8 -7 -15 -15 -15h-29c-8 0 -15 7 -15 15v40
c0 8 7 15 15 15h29c8 0 15 -7 15 -15v-40zM109 495c0 -8 -7 -15 -15 -15h-29c-8 0 -15 7 -15 15v40c0 8 7 15 15 15h29c8 0 15 -7 15 -15v-40zM247 335c0 -8 -7 -15 -15 -15h-29c-8 0 -15 7 -15 15v40c0 8 7 15 15 15h29c8 0 15 -7 15 -15v-40zM247 255c0 -8 -7 -15 -15 -15
h-29c-8 0 -15 7 -15 15v40c0 8 7 15 15 15h29c8 0 15 -7 15 -15v-40zM247 175c0 -8 -7 -15 -15 -15h-29c-8 0 -15 7 -15 15v40c0 8 7 15 15 15h29c8 0 15 -7 15 -15v-40zM385 15c0 -8 -7 -15 -15 -15h-29c-8 0 -15 7 -15 15v40c0 8 7 15 15 15h29c8 0 15 -7 15 -15v-40z
M247 95c0 -8 -7 -15 -15 -15h-29c-8 0 -15 7 -15 15v40c0 8 7 15 15 15h29c8 0 15 -7 15 -15v-40zM316 15c0 -8 -7 -15 -15 -15h-29c-8 0 -15 7 -15 15v40c0 8 7 15 15 15h29c8 0 15 -7 15 -15v-40zM247 15c0 -8 -7 -15 -15 -15h-29c-8 0 -15 7 -15 15v40c0 8 7 15 15 15h29
c8 0 15 -7 15 -15v-40zM178 15c0 -8 -7 -15 -15 -15h-29c-8 0 -15 7 -15 15v40c0 8 7 15 15 15h29c8 0 15 -7 15 -15v-40zM109 15c0 -8 -7 -15 -15 -15h-29c-8 0 -15 7 -15 15v40c0 8 7 15 15 15h29c8 0 15 -7 15 -15v-40z" />
    <glyph glyph-name="two" unicode="2" 
d="M316 495c0 -8 -7 -15 -15 -15h-29c-8 0 -15 7 -15 15v40c0 8 7 15 15 15h29c8 0 15 -7 15 -15v-40zM385 415c0 -8 -7 -15 -15 -15h-29c-8 0 -15 7 -15 15v40c0 8 7 15 15 15h29c8 0 15 -7 15 -15v-40zM247 495c0 -8 -7 -15 -15 -15h-29c-8 0 -15 7 -15 15v40
c0 8 7 15 15 15h29c8 0 15 -7 15 -15v-40zM385 335c0 -8 -7 -15 -15 -15h-29c-8 0 -15 7 -15 15v40c0 8 7 15 15 15h29c8 0 15 -7 15 -15v-40zM178 495c0 -8 -7 -15 -15 -15h-29c-8 0 -15 7 -15 15v40c0 8 7 15 15 15h29c8 0 15 -7 15 -15v-40zM316 255c0 -8 -7 -15 -15 -15
h-29c-8 0 -15 7 -15 15v40c0 8 7 15 15 15h29c8 0 15 -7 15 -15v-40zM109 415c0 -8 -7 -15 -15 -15h-29c-8 0 -15 7 -15 15v40c0 8 7 15 15 15h29c8 0 15 -7 15 -15v-40zM247 255c0 -8 -7 -15 -15 -15h-29c-8 0 -15 7 -15 15v40c0 8 7 15 15 15h29c8 0 15 -7 15 -15v-40z
M178 255c0 -8 -7 -15 -15 -15h-29c-8 0 -15 7 -15 15v40c0 8 7 15 15 15h29c8 0 15 -7 15 -15v-40zM385 15c0 -8 -7 -15 -15 -15h-29c-8 0 -15 7 -15 15v40c0 8 7 15 15 15h29c8 0 15 -7 15 -15v-40zM316 15c0 -8 -7 -15 -15 -15h-29c-8 0 -15 7 -15 15v40c0 8 7 15 15 15
h29c8 0 15 -7 15 -15v-40zM109 175c0 -8 -7 -15 -15 -15h-29c-8 0 -15 7 -15 15v40c0 8 7 15 15 15h29c8 0 15 -7 15 -15v-40zM247 15c0 -8 -7 -15 -15 -15h-29c-8 0 -15 7 -15 15v40c0 8 7 15 15 15h29c8 0 15 -7 15 -15v-40zM109 95c0 -8 -7 -15 -15 -15h-29
c-8 0 -15 7 -15 15v40c0 8 7 15 15 15h29c8 0 15 -7 15 -15v-40zM178 15c0 -8 -7 -15 -15 -15h-29c-8 0 -15 7 -15 15v40c0 8 7 15 15 15h29c8 0 15 -7 15 -15v-40zM109 15c0 -8 -7 -15 -15 -15h-29c-8 0 -15 7 -15 15v40c0 8 7 15 15 15h29c8 0 15 -7 15 -15v-40z" />
    <glyph glyph-name="three" unicode="3" 
d="M316 495c0 -8 -7 -15 -15 -15h-29c-8 0 -15 7 -15 15v40c0 8 7 15 15 15h29c8 0 15 -7 15 -15v-40zM385 415c0 -8 -7 -15 -15 -15h-29c-8 0 -15 7 -15 15v40c0 8 7 15 15 15h29c8 0 15 -7 15 -15v-40zM247 495c0 -8 -7 -15 -15 -15h-29c-8 0 -15 7 -15 15v40
c0 8 7 15 15 15h29c8 0 15 -7 15 -15v-40zM385 335c0 -8 -7 -15 -15 -15h-29c-8 0 -15 7 -15 15v40c0 8 7 15 15 15h29c8 0 15 -7 15 -15v-40zM178 495c0 -8 -7 -15 -15 -15h-29c-8 0 -15 7 -15 15v40c0 8 7 15 15 15h29c8 0 15 -7 15 -15v-40zM316 255c0 -8 -7 -15 -15 -15
h-29c-8 0 -15 7 -15 15v40c0 8 7 15 15 15h29c8 0 15 -7 15 -15v-40zM385 175c0 -8 -7 -15 -15 -15h-29c-8 0 -15 7 -15 15v40c0 8 7 15 15 15h29c8 0 15 -7 15 -15v-40zM109 415c0 -8 -7 -15 -15 -15h-29c-8 0 -15 7 -15 15v40c0 8 7 15 15 15h29c8 0 15 -7 15 -15v-40z
M247 255c0 -8 -7 -15 -15 -15h-29c-8 0 -15 7 -15 15v40c0 8 7 15 15 15h29c8 0 15 -7 15 -15v-40zM385 95c0 -8 -7 -15 -15 -15h-29c-8 0 -15 7 -15 15v40c0 8 7 15 15 15h29c8 0 15 -7 15 -15v-40zM178 255c0 -8 -7 -15 -15 -15h-29c-8 0 -15 7 -15 15v40c0 8 7 15 15 15
h29c8 0 15 -7 15 -15v-40zM316 15c0 -8 -7 -15 -15 -15h-29c-8 0 -15 7 -15 15v40c0 8 7 15 15 15h29c8 0 15 -7 15 -15v-40zM247 15c0 -8 -7 -15 -15 -15h-29c-8 0 -15 7 -15 15v40c0 8 7 15 15 15h29c8 0 15 -7 15 -15v-40zM109 95c0 -8 -7 -15 -15 -15h-29
c-8 0 -15 7 -15 15v40c0 8 7 15 15 15h29c8 0 15 -7 15 -15v-40zM178 15c0 -8 -7 -15 -15 -15h-29c-8 0 -15 7 -15 15v40c0 8 7 15 15 15h29c8 0 15 -7 15 -15v-40z" />
    <glyph glyph-name="four" unicode="4" 
d="M385 495c0 -8 -7 -15 -15 -15h-29c-8 0 -15 7 -15 15v40c0 8 7 15 15 15h29c8 0 15 -7 15 -15v-40zM385 415c0 -8 -7 -15 -15 -15h-29c-8 0 -15 7 -15 15v40c0 8 7 15 15 15h29c8 0 15 -7 15 -15v-40zM385 335c0 -8 -7 -15 -15 -15h-29c-8 0 -15 7 -15 15v40
c0 8 7 15 15 15h29c8 0 15 -7 15 -15v-40zM385 255c0 -8 -7 -15 -15 -15h-29c-8 0 -15 7 -15 15v40c0 8 7 15 15 15h29c8 0 15 -7 15 -15v-40zM109 495c0 -8 -7 -15 -15 -15h-29c-8 0 -15 7 -15 15v40c0 8 7 15 15 15h29c8 0 15 -7 15 -15v-40zM316 255c0 -8 -7 -15 -15 -15
h-29c-8 0 -15 7 -15 15v40c0 8 7 15 15 15h29c8 0 15 -7 15 -15v-40zM385 175c0 -8 -7 -15 -15 -15h-29c-8 0 -15 7 -15 15v40c0 8 7 15 15 15h29c8 0 15 -7 15 -15v-40zM109 415c0 -8 -7 -15 -15 -15h-29c-8 0 -15 7 -15 15v40c0 8 7 15 15 15h29c8 0 15 -7 15 -15v-40z
M247 255c0 -8 -7 -15 -15 -15h-29c-8 0 -15 7 -15 15v40c0 8 7 15 15 15h29c8 0 15 -7 15 -15v-40zM385 95c0 -8 -7 -15 -15 -15h-29c-8 0 -15 7 -15 15v40c0 8 7 15 15 15h29c8 0 15 -7 15 -15v-40zM109 335c0 -8 -7 -15 -15 -15h-29c-8 0 -15 7 -15 15v40c0 8 7 15 15 15
h29c8 0 15 -7 15 -15v-40zM178 255c0 -8 -7 -15 -15 -15h-29c-8 0 -15 7 -15 15v40c0 8 7 15 15 15h29c8 0 15 -7 15 -15v-40zM385 15c0 -8 -7 -15 -15 -15h-29c-8 0 -15 7 -15 15v40c0 8 7 15 15 15h29c8 0 15 -7 15 -15v-40zM109 255c0 -8 -7 -15 -15 -15h-29
c-8 0 -15 7 -15 15v40c0 8 7 15 15 15h29c8 0 15 -7 15 -15v-40z" />
    <glyph glyph-name="five" unicode="5" 
d="M385 495c0 -8 -7 -15 -15 -15h-29c-8 0 -15 7 -15 15v40c0 8 7 15 15 15h29c8 0 15 -7 15 -15v-40zM316 495c0 -8 -7 -15 -15 -15h-29c-8 0 -15 7 -15 15v40c0 8 7 15 15 15h29c8 0 15 -7 15 -15v-40zM247 495c0 -8 -7 -15 -15 -15h-29c-8 0 -15 7 -15 15v40
c0 8 7 15 15 15h29c8 0 15 -7 15 -15v-40zM178 495c0 -8 -7 -15 -15 -15h-29c-8 0 -15 7 -15 15v40c0 8 7 15 15 15h29c8 0 15 -7 15 -15v-40zM109 495c0 -8 -7 -15 -15 -15h-29c-8 0 -15 7 -15 15v40c0 8 7 15 15 15h29c8 0 15 -7 15 -15v-40zM316 255c0 -8 -7 -15 -15 -15
h-29c-8 0 -15 7 -15 15v40c0 8 7 15 15 15h29c8 0 15 -7 15 -15v-40zM385 175c0 -8 -7 -15 -15 -15h-29c-8 0 -15 7 -15 15v40c0 8 7 15 15 15h29c8 0 15 -7 15 -15v-40zM109 415c0 -8 -7 -15 -15 -15h-29c-8 0 -15 7 -15 15v40c0 8 7 15 15 15h29c8 0 15 -7 15 -15v-40z
M247 255c0 -8 -7 -15 -15 -15h-29c-8 0 -15 7 -15 15v40c0 8 7 15 15 15h29c8 0 15 -7 15 -15v-40zM385 95c0 -8 -7 -15 -15 -15h-29c-8 0 -15 7 -15 15v40c0 8 7 15 15 15h29c8 0 15 -7 15 -15v-40zM109 335c0 -8 -7 -15 -15 -15h-29c-8 0 -15 7 -15 15v40c0 8 7 15 15 15
h29c8 0 15 -7 15 -15v-40zM178 255c0 -8 -7 -15 -15 -15h-29c-8 0 -15 7 -15 15v40c0 8 7 15 15 15h29c8 0 15 -7 15 -15v-40zM316 15c0 -8 -7 -15 -15 -15h-29c-8 0 -15 7 -15 15v40c0 8 7 15 15 15h29c8 0 15 -7 15 -15v-40zM247 15c0 -8 -7 -15 -15 -15h-29
c-8 0 -15 7 -15 15v40c0 8 7 15 15 15h29c8 0 15 -7 15 -15v-40zM109 95c0 -8 -7 -15 -15 -15h-29c-8 0 -15 7 -15 15v40c0 8 7 15 15 15h29c8 0 15 -7 15 -15v-40zM178 15c0 -8 -7 -15 -15 -15h-29c-8 0 -15 7 -15 15v40c0 8 7 15 15 15h29c8 0 15 -7 15 -15v-40z" />
    <glyph glyph-name="six" unicode="6" 
d="M316 495c0 -8 -7 -15 -15 -15h-29c-8 0 -15 7 -15 15v40c0 8 7 15 15 15h29c8 0 15 -7 15 -15v-40zM385 415c0 -8 -7 -15 -15 -15h-29c-8 0 -15 7 -15 15v40c0 8 7 15 15 15h29c8 0 15 -7 15 -15v-40zM247 495c0 -8 -7 -15 -15 -15h-29c-8 0 -15 7 -15 15v40
c0 8 7 15 15 15h29c8 0 15 -7 15 -15v-40zM178 495c0 -8 -7 -15 -15 -15h-29c-8 0 -15 7 -15 15v40c0 8 7 15 15 15h29c8 0 15 -7 15 -15v-40zM316 255c0 -8 -7 -15 -15 -15h-29c-8 0 -15 7 -15 15v40c0 8 7 15 15 15h29c8 0 15 -7 15 -15v-40zM385 175c0 -8 -7 -15 -15 -15
h-29c-8 0 -15 7 -15 15v40c0 8 7 15 15 15h29c8 0 15 -7 15 -15v-40zM109 415c0 -8 -7 -15 -15 -15h-29c-8 0 -15 7 -15 15v40c0 8 7 15 15 15h29c8 0 15 -7 15 -15v-40zM247 255c0 -8 -7 -15 -15 -15h-29c-8 0 -15 7 -15 15v40c0 8 7 15 15 15h29c8 0 15 -7 15 -15v-40z
M385 95c0 -8 -7 -15 -15 -15h-29c-8 0 -15 7 -15 15v40c0 8 7 15 15 15h29c8 0 15 -7 15 -15v-40zM109 335c0 -8 -7 -15 -15 -15h-29c-8 0 -15 7 -15 15v40c0 8 7 15 15 15h29c8 0 15 -7 15 -15v-40zM178 255c0 -8 -7 -15 -15 -15h-29c-8 0 -15 7 -15 15v40c0 8 7 15 15 15
h29c8 0 15 -7 15 -15v-40zM109 255c0 -8 -7 -15 -15 -15h-29c-8 0 -15 7 -15 15v40c0 8 7 15 15 15h29c8 0 15 -7 15 -15v-40zM316 15c0 -8 -7 -15 -15 -15h-29c-8 0 -15 7 -15 15v40c0 8 7 15 15 15h29c8 0 15 -7 15 -15v-40zM109 175c0 -8 -7 -15 -15 -15h-29
c-8 0 -15 7 -15 15v40c0 8 7 15 15 15h29c8 0 15 -7 15 -15v-40zM247 15c0 -8 -7 -15 -15 -15h-29c-8 0 -15 7 -15 15v40c0 8 7 15 15 15h29c8 0 15 -7 15 -15v-40zM109 95c0 -8 -7 -15 -15 -15h-29c-8 0 -15 7 -15 15v40c0 8 7 15 15 15h29c8 0 15 -7 15 -15v-40zM178 15
c0 -8 -7 -15 -15 -15h-29c-8 0 -15 7 -15 15v40c0 8 7 15 15 15h29c8 0 15 -7 15 -15v-40z" />
    <glyph glyph-name="seven" unicode="7" 
d="M385 495c0 -8 -7 -15 -15 -15h-29c-8 0 -15 7 -15 15v40c0 8 7 15 15 15h29c8 0 15 -7 15 -15v-40zM316 495c0 -8 -7 -15 -15 -15h-29c-8 0 -15 7 -15 15v40c0 8 7 15 15 15h29c8 0 15 -7 15 -15v-40zM385 415c0 -8 -7 -15 -15 -15h-29c-8 0 -15 7 -15 15v40
c0 8 7 15 15 15h29c8 0 15 -7 15 -15v-40zM247 495c0 -8 -7 -15 -15 -15h-29c-8 0 -15 7 -15 15v40c0 8 7 15 15 15h29c8 0 15 -7 15 -15v-40zM178 495c0 -8 -7 -15 -15 -15h-29c-8 0 -15 7 -15 15v40c0 8 7 15 15 15h29c8 0 15 -7 15 -15v-40zM316 335c0 -8 -7 -15 -15 -15
h-29c-8 0 -15 7 -15 15v40c0 8 7 15 15 15h29c8 0 15 -7 15 -15v-40zM109 495c0 -8 -7 -15 -15 -15h-29c-8 0 -15 7 -15 15v40c0 8 7 15 15 15h29c8 0 15 -7 15 -15v-40zM247 255c0 -8 -7 -15 -15 -15h-29c-8 0 -15 7 -15 15v40c0 8 7 15 15 15h29c8 0 15 -7 15 -15v-40z
M247 175c0 -8 -7 -15 -15 -15h-29c-8 0 -15 7 -15 15v40c0 8 7 15 15 15h29c8 0 15 -7 15 -15v-40zM247 95c0 -8 -7 -15 -15 -15h-29c-8 0 -15 7 -15 15v40c0 8 7 15 15 15h29c8 0 15 -7 15 -15v-40zM247 15c0 -8 -7 -15 -15 -15h-29c-8 0 -15 7 -15 15v40c0 8 7 15 15 15
h29c8 0 15 -7 15 -15v-40z" />
    <glyph glyph-name="eight" unicode="8" 
d="M316 495c0 -8 -7 -15 -15 -15h-29c-8 0 -15 7 -15 15v40c0 8 7 15 15 15h29c8 0 15 -7 15 -15v-40zM385 415c0 -8 -7 -15 -15 -15h-29c-8 0 -15 7 -15 15v40c0 8 7 15 15 15h29c8 0 15 -7 15 -15v-40zM247 495c0 -8 -7 -15 -15 -15h-29c-8 0 -15 7 -15 15v40
c0 8 7 15 15 15h29c8 0 15 -7 15 -15v-40zM385 335c0 -8 -7 -15 -15 -15h-29c-8 0 -15 7 -15 15v40c0 8 7 15 15 15h29c8 0 15 -7 15 -15v-40zM178 495c0 -8 -7 -15 -15 -15h-29c-8 0 -15 7 -15 15v40c0 8 7 15 15 15h29c8 0 15 -7 15 -15v-40zM316 255c0 -8 -7 -15 -15 -15
h-29c-8 0 -15 7 -15 15v40c0 8 7 15 15 15h29c8 0 15 -7 15 -15v-40zM385 175c0 -8 -7 -15 -15 -15h-29c-8 0 -15 7 -15 15v40c0 8 7 15 15 15h29c8 0 15 -7 15 -15v-40zM109 415c0 -8 -7 -15 -15 -15h-29c-8 0 -15 7 -15 15v40c0 8 7 15 15 15h29c8 0 15 -7 15 -15v-40z
M247 255c0 -8 -7 -15 -15 -15h-29c-8 0 -15 7 -15 15v40c0 8 7 15 15 15h29c8 0 15 -7 15 -15v-40zM385 95c0 -8 -7 -15 -15 -15h-29c-8 0 -15 7 -15 15v40c0 8 7 15 15 15h29c8 0 15 -7 15 -15v-40zM109 335c0 -8 -7 -15 -15 -15h-29c-8 0 -15 7 -15 15v40c0 8 7 15 15 15
h29c8 0 15 -7 15 -15v-40zM178 255c0 -8 -7 -15 -15 -15h-29c-8 0 -15 7 -15 15v40c0 8 7 15 15 15h29c8 0 15 -7 15 -15v-40zM316 15c0 -8 -7 -15 -15 -15h-29c-8 0 -15 7 -15 15v40c0 8 7 15 15 15h29c8 0 15 -7 15 -15v-40zM109 175c0 -8 -7 -15 -15 -15h-29
c-8 0 -15 7 -15 15v40c0 8 7 15 15 15h29c8 0 15 -7 15 -15v-40zM247 15c0 -8 -7 -15 -15 -15h-29c-8 0 -15 7 -15 15v40c0 8 7 15 15 15h29c8 0 15 -7 15 -15v-40zM109 95c0 -8 -7 -15 -15 -15h-29c-8 0 -15 7 -15 15v40c0 8 7 15 15 15h29c8 0 15 -7 15 -15v-40zM178 15
c0 -8 -7 -15 -15 -15h-29c-8 0 -15 7 -15 15v40c0 8 7 15 15 15h29c8 0 15 -7 15 -15v-40z" />
    <glyph glyph-name="nine" unicode="9" 
d="M316 495c0 -8 -7 -15 -15 -15h-29c-8 0 -15 7 -15 15v40c0 8 7 15 15 15h29c8 0 15 -7 15 -15v-40zM385 415c0 -8 -7 -15 -15 -15h-29c-8 0 -15 7 -15 15v40c0 8 7 15 15 15h29c8 0 15 -7 15 -15v-40zM247 495c0 -8 -7 -15 -15 -15h-29c-8 0 -15 7 -15 15v40
c0 8 7 15 15 15h29c8 0 15 -7 15 -15v-40zM385 335c0 -8 -7 -15 -15 -15h-29c-8 0 -15 7 -15 15v40c0 8 7 15 15 15h29c8 0 15 -7 15 -15v-40zM178 495c0 -8 -7 -15 -15 -15h-29c-8 0 -15 7 -15 15v40c0 8 7 15 15 15h29c8 0 15 -7 15 -15v-40zM385 255c0 -8 -7 -15 -15 -15
h-29c-8 0 -15 7 -15 15v40c0 8 7 15 15 15h29c8 0 15 -7 15 -15v-40zM316 255c0 -8 -7 -15 -15 -15h-29c-8 0 -15 7 -15 15v40c0 8 7 15 15 15h29c8 0 15 -7 15 -15v-40zM385 175c0 -8 -7 -15 -15 -15h-29c-8 0 -15 7 -15 15v40c0 8 7 15 15 15h29c8 0 15 -7 15 -15v-40z
M109 415c0 -8 -7 -15 -15 -15h-29c-8 0 -15 7 -15 15v40c0 8 7 15 15 15h29c8 0 15 -7 15 -15v-40zM247 255c0 -8 -7 -15 -15 -15h-29c-8 0 -15 7 -15 15v40c0 8 7 15 15 15h29c8 0 15 -7 15 -15v-40zM385 95c0 -8 -7 -15 -15 -15h-29c-8 0 -15 7 -15 15v40c0 8 7 15 15 15
h29c8 0 15 -7 15 -15v-40zM109 335c0 -8 -7 -15 -15 -15h-29c-8 0 -15 7 -15 15v40c0 8 7 15 15 15h29c8 0 15 -7 15 -15v-40zM178 255c0 -8 -7 -15 -15 -15h-29c-8 0 -15 7 -15 15v40c0 8 7 15 15 15h29c8 0 15 -7 15 -15v-40zM316 15c0 -8 -7 -15 -15 -15h-29
c-8 0 -15 7 -15 15v40c0 8 7 15 15 15h29c8 0 15 -7 15 -15v-40zM247 15c0 -8 -7 -15 -15 -15h-29c-8 0 -15 7 -15 15v40c0 8 7 15 15 15h29c8 0 15 -7 15 -15v-40zM109 95c0 -8 -7 -15 -15 -15h-29c-8 0 -15 7 -15 15v40c0 8 7 15 15 15h29c8 0 15 -7 15 -15v-40zM178 15
c0 -8 -7 -15 -15 -15h-29c-8 0 -15 7 -15 15v40c0 8 7 15 15 15h29c8 0 15 -7 15 -15v-40z" />
    <glyph glyph-name="colon" unicode=":" horiz-adv-x="159" 
d="M109 335c0 -8 -7 -15 -15 -15h-29c-8 0 -15 7 -15 15v40c0 8 7 15 15 15h29c8 0 15 -7 15 -15v-40zM109 255c0 -8 -7 -15 -15 -15h-29c-8 0 -15 7 -15 15v40c0 8 7 15 15 15h29c8 0 15 -7 15 -15v-40zM109 95c0 -8 -7 -15 -15 -15h-29c-8 0 -15 7 -15 15v40
c0 8 7 15 15 15h29c8 0 15 -7 15 -15v-40zM109 15c0 -8 -7 -15 -15 -15h-29c-8 0 -15 7 -15 15v40c0 8 7 15 15 15h29c8 0 15 -7 15 -15v-40z" />
    <glyph glyph-name="semicolon" unicode=";" horiz-adv-x="228" 
d="M178 335c0 -8 -7 -15 -15 -15h-29c-8 0 -15 7 -15 15v40c0 8 7 15 15 15h29c8 0 15 -7 15 -15v-40zM178 255c0 -8 -7 -15 -15 -15h-29c-8 0 -15 7 -15 15v40c0 8 7 15 15 15h29c8 0 15 -7 15 -15v-40zM178 95c0 -8 -7 -15 -15 -15h-29c-8 0 -15 7 -15 15v40
c0 8 7 15 15 15h29c8 0 15 -7 15 -15v-40zM178 15c0 -8 -7 -15 -15 -15h-29c-8 0 -15 7 -15 15v40c0 8 7 15 15 15h29c8 0 15 -7 15 -15v-40zM109 -65c0 -8 -7 -15 -15 -15h-29c-8 0 -15 7 -15 15v40c0 8 7 15 15 15h29c8 0 15 -7 15 -15v-40z" />
    <glyph glyph-name="less" unicode="&#x3c;" horiz-adv-x="366" 
d="M316 495c0 -8 -7 -15 -15 -15h-29c-8 0 -15 7 -15 15v40c0 8 7 15 15 15h29c8 0 15 -7 15 -15v-40zM247 415c0 -8 -7 -15 -15 -15h-29c-8 0 -15 7 -15 15v40c0 8 7 15 15 15h29c8 0 15 -7 15 -15v-40zM178 335c0 -8 -7 -15 -15 -15h-29c-8 0 -15 7 -15 15v40
c0 8 7 15 15 15h29c8 0 15 -7 15 -15v-40zM109 255c0 -8 -7 -15 -15 -15h-29c-8 0 -15 7 -15 15v40c0 8 7 15 15 15h29c8 0 15 -7 15 -15v-40zM178 175c0 -8 -7 -15 -15 -15h-29c-8 0 -15 7 -15 15v40c0 8 7 15 15 15h29c8 0 15 -7 15 -15v-40zM247 95c0 -8 -7 -15 -15 -15
h-29c-8 0 -15 7 -15 15v40c0 8 7 15 15 15h29c8 0 15 -7 15 -15v-40zM316 15c0 -8 -7 -15 -15 -15h-29c-8 0 -15 7 -15 15v40c0 8 7 15 15 15h29c8 0 15 -7 15 -15v-40z" />
    <glyph glyph-name="equal" unicode="=" horiz-adv-x="297" 
d="M247 335c0 -8 -7 -15 -15 -15h-29c-8 0 -15 7 -15 15v40c0 8 7 15 15 15h29c8 0 15 -7 15 -15v-40zM178 335c0 -8 -7 -15 -15 -15h-29c-8 0 -15 7 -15 15v40c0 8 7 15 15 15h29c8 0 15 -7 15 -15v-40zM109 335c0 -8 -7 -15 -15 -15h-29c-8 0 -15 7 -15 15v40
c0 8 7 15 15 15h29c8 0 15 -7 15 -15v-40zM247 175c0 -8 -7 -15 -15 -15h-29c-8 0 -15 7 -15 15v40c0 8 7 15 15 15h29c8 0 15 -7 15 -15v-40zM178 175c0 -8 -7 -15 -15 -15h-29c-8 0 -15 7 -15 15v40c0 8 7 15 15 15h29c8 0 15 -7 15 -15v-40zM109 175c0 -8 -7 -15 -15 -15
h-29c-8 0 -15 7 -15 15v40c0 8 7 15 15 15h29c8 0 15 -7 15 -15v-40z" />
    <glyph glyph-name="greater" unicode="&#x3e;" horiz-adv-x="366" 
d="M109 495c0 -8 -7 -15 -15 -15h-29c-8 0 -15 7 -15 15v40c0 8 7 15 15 15h29c8 0 15 -7 15 -15v-40zM178 415c0 -8 -7 -15 -15 -15h-29c-8 0 -15 7 -15 15v40c0 8 7 15 15 15h29c8 0 15 -7 15 -15v-40zM247 335c0 -8 -7 -15 -15 -15h-29c-8 0 -15 7 -15 15v40
c0 8 7 15 15 15h29c8 0 15 -7 15 -15v-40zM316 255c0 -8 -7 -15 -15 -15h-29c-8 0 -15 7 -15 15v40c0 8 7 15 15 15h29c8 0 15 -7 15 -15v-40zM247 175c0 -8 -7 -15 -15 -15h-29c-8 0 -15 7 -15 15v40c0 8 7 15 15 15h29c8 0 15 -7 15 -15v-40zM178 95c0 -8 -7 -15 -15 -15
h-29c-8 0 -15 7 -15 15v40c0 8 7 15 15 15h29c8 0 15 -7 15 -15v-40zM109 15c0 -8 -7 -15 -15 -15h-29c-8 0 -15 7 -15 15v40c0 8 7 15 15 15h29c8 0 15 -7 15 -15v-40z" />
    <glyph glyph-name="question" unicode="?" 
d="M316 495c0 -8 -7 -15 -15 -15h-29c-8 0 -15 7 -15 15v40c0 8 7 15 15 15h29c8 0 15 -7 15 -15v-40zM385 415c0 -8 -7 -15 -15 -15h-29c-8 0 -15 7 -15 15v40c0 8 7 15 15 15h29c8 0 15 -7 15 -15v-40zM247 495c0 -8 -7 -15 -15 -15h-29c-8 0 -15 7 -15 15v40
c0 8 7 15 15 15h29c8 0 15 -7 15 -15v-40zM385 335c0 -8 -7 -15 -15 -15h-29c-8 0 -15 7 -15 15v40c0 8 7 15 15 15h29c8 0 15 -7 15 -15v-40zM178 495c0 -8 -7 -15 -15 -15h-29c-8 0 -15 7 -15 15v40c0 8 7 15 15 15h29c8 0 15 -7 15 -15v-40zM316 255c0 -8 -7 -15 -15 -15
h-29c-8 0 -15 7 -15 15v40c0 8 7 15 15 15h29c8 0 15 -7 15 -15v-40zM109 415c0 -8 -7 -15 -15 -15h-29c-8 0 -15 7 -15 15v40c0 8 7 15 15 15h29c8 0 15 -7 15 -15v-40zM247 255c0 -8 -7 -15 -15 -15h-29c-8 0 -15 7 -15 15v40c0 8 7 15 15 15h29c8 0 15 -7 15 -15v-40z
M247 175c0 -8 -7 -15 -15 -15h-29c-8 0 -15 7 -15 15v40c0 8 7 15 15 15h29c8 0 15 -7 15 -15v-40zM247 15c0 -8 -7 -15 -15 -15h-29c-8 0 -15 7 -15 15v40c0 8 7 15 15 15h29c8 0 15 -7 15 -15v-40z" />
    <glyph glyph-name="at" unicode="@" 
d="M316 495c0 -8 -7 -15 -15 -15h-29c-8 0 -15 7 -15 15v40c0 8 7 15 15 15h29c8 0 15 -7 15 -15v-40zM385 415c0 -8 -7 -15 -15 -15h-29c-8 0 -15 7 -15 15v40c0 8 7 15 15 15h29c8 0 15 -7 15 -15v-40zM247 495c0 -8 -7 -15 -15 -15h-29c-8 0 -15 7 -15 15v40
c0 8 7 15 15 15h29c8 0 15 -7 15 -15v-40zM385 335c0 -8 -7 -15 -15 -15h-29c-8 0 -15 7 -15 15v40c0 8 7 15 15 15h29c8 0 15 -7 15 -15v-40zM178 495c0 -8 -7 -15 -15 -15h-29c-8 0 -15 7 -15 15v40c0 8 7 15 15 15h29c8 0 15 -7 15 -15v-40zM385 255c0 -8 -7 -15 -15 -15
h-29c-8 0 -15 7 -15 15v40c0 8 7 15 15 15h29c8 0 15 -7 15 -15v-40zM247 335c0 -8 -7 -15 -15 -15h-29c-8 0 -15 7 -15 15v40c0 8 7 15 15 15h29c8 0 15 -7 15 -15v-40zM109 415c0 -8 -7 -15 -15 -15h-29c-8 0 -15 7 -15 15v40c0 8 7 15 15 15h29c8 0 15 -7 15 -15v-40z
M247 255c0 -8 -7 -15 -15 -15h-29c-8 0 -15 7 -15 15v40c0 8 7 15 15 15h29c8 0 15 -7 15 -15v-40zM316 175c0 -8 -7 -15 -15 -15h-29c-8 0 -15 7 -15 15v40c0 8 7 15 15 15h29c8 0 15 -7 15 -15v-40zM109 335c0 -8 -7 -15 -15 -15h-29c-8 0 -15 7 -15 15v40c0 8 7 15 15 15
h29c8 0 15 -7 15 -15v-40zM178 255c0 -8 -7 -15 -15 -15h-29c-8 0 -15 7 -15 15v40c0 8 7 15 15 15h29c8 0 15 -7 15 -15v-40zM247 175c0 -8 -7 -15 -15 -15h-29c-8 0 -15 7 -15 15v40c0 8 7 15 15 15h29c8 0 15 -7 15 -15v-40zM109 255c0 -8 -7 -15 -15 -15h-29
c-8 0 -15 7 -15 15v40c0 8 7 15 15 15h29c8 0 15 -7 15 -15v-40zM316 15c0 -8 -7 -15 -15 -15h-29c-8 0 -15 7 -15 15v40c0 8 7 15 15 15h29c8 0 15 -7 15 -15v-40zM109 175c0 -8 -7 -15 -15 -15h-29c-8 0 -15 7 -15 15v40c0 8 7 15 15 15h29c8 0 15 -7 15 -15v-40zM247 15
c0 -8 -7 -15 -15 -15h-29c-8 0 -15 7 -15 15v40c0 8 7 15 15 15h29c8 0 15 -7 15 -15v-40zM109 95c0 -8 -7 -15 -15 -15h-29c-8 0 -15 7 -15 15v40c0 8 7 15 15 15h29c8 0 15 -7 15 -15v-40zM178 15c0 -8 -7 -15 -15 -15h-29c-8 0 -15 7 -15 15v40c0 8 7 15 15 15h29
c8 0 15 -7 15 -15v-40z" />
    <glyph glyph-name="A" unicode="A" 
d="M247 495c0 -8 -7 -15 -15 -15h-29c-8 0 -15 7 -15 15v40c0 8 7 15 15 15h29c8 0 15 -7 15 -15v-40zM316 415c0 -8 -7 -15 -15 -15h-29c-8 0 -15 7 -15 15v40c0 8 7 15 15 15h29c8 0 15 -7 15 -15v-40zM385 335c0 -8 -7 -15 -15 -15h-29c-8 0 -15 7 -15 15v40
c0 8 7 15 15 15h29c8 0 15 -7 15 -15v-40zM385 255c0 -8 -7 -15 -15 -15h-29c-8 0 -15 7 -15 15v40c0 8 7 15 15 15h29c8 0 15 -7 15 -15v-40zM178 415c0 -8 -7 -15 -15 -15h-29c-8 0 -15 7 -15 15v40c0 8 7 15 15 15h29c8 0 15 -7 15 -15v-40zM385 175c0 -8 -7 -15 -15 -15
h-29c-8 0 -15 7 -15 15v40c0 8 7 15 15 15h29c8 0 15 -7 15 -15v-40zM316 175c0 -8 -7 -15 -15 -15h-29c-8 0 -15 7 -15 15v40c0 8 7 15 15 15h29c8 0 15 -7 15 -15v-40zM385 95c0 -8 -7 -15 -15 -15h-29c-8 0 -15 7 -15 15v40c0 8 7 15 15 15h29c8 0 15 -7 15 -15v-40z
M109 335c0 -8 -7 -15 -15 -15h-29c-8 0 -15 7 -15 15v40c0 8 7 15 15 15h29c8 0 15 -7 15 -15v-40zM247 175c0 -8 -7 -15 -15 -15h-29c-8 0 -15 7 -15 15v40c0 8 7 15 15 15h29c8 0 15 -7 15 -15v-40zM385 15c0 -8 -7 -15 -15 -15h-29c-8 0 -15 7 -15 15v40c0 8 7 15 15 15
h29c8 0 15 -7 15 -15v-40zM109 255c0 -8 -7 -15 -15 -15h-29c-8 0 -15 7 -15 15v40c0 8 7 15 15 15h29c8 0 15 -7 15 -15v-40zM178 175c0 -8 -7 -15 -15 -15h-29c-8 0 -15 7 -15 15v40c0 8 7 15 15 15h29c8 0 15 -7 15 -15v-40zM109 175c0 -8 -7 -15 -15 -15h-29
c-8 0 -15 7 -15 15v40c0 8 7 15 15 15h29c8 0 15 -7 15 -15v-40zM109 95c0 -8 -7 -15 -15 -15h-29c-8 0 -15 7 -15 15v40c0 8 7 15 15 15h29c8 0 15 -7 15 -15v-40zM109 15c0 -8 -7 -15 -15 -15h-29c-8 0 -15 7 -15 15v40c0 8 7 15 15 15h29c8 0 15 -7 15 -15v-40z" />
    <glyph glyph-name="B" unicode="B" 
d="M316 495c0 -8 -7 -15 -15 -15h-29c-8 0 -15 7 -15 15v40c0 8 7 15 15 15h29c8 0 15 -7 15 -15v-40zM385 415c0 -8 -7 -15 -15 -15h-29c-8 0 -15 7 -15 15v40c0 8 7 15 15 15h29c8 0 15 -7 15 -15v-40zM247 495c0 -8 -7 -15 -15 -15h-29c-8 0 -15 7 -15 15v40
c0 8 7 15 15 15h29c8 0 15 -7 15 -15v-40zM385 335c0 -8 -7 -15 -15 -15h-29c-8 0 -15 7 -15 15v40c0 8 7 15 15 15h29c8 0 15 -7 15 -15v-40zM178 495c0 -8 -7 -15 -15 -15h-29c-8 0 -15 7 -15 15v40c0 8 7 15 15 15h29c8 0 15 -7 15 -15v-40zM109 495c0 -8 -7 -15 -15 -15
h-29c-8 0 -15 7 -15 15v40c0 8 7 15 15 15h29c8 0 15 -7 15 -15v-40zM316 255c0 -8 -7 -15 -15 -15h-29c-8 0 -15 7 -15 15v40c0 8 7 15 15 15h29c8 0 15 -7 15 -15v-40zM385 175c0 -8 -7 -15 -15 -15h-29c-8 0 -15 7 -15 15v40c0 8 7 15 15 15h29c8 0 15 -7 15 -15v-40z
M109 415c0 -8 -7 -15 -15 -15h-29c-8 0 -15 7 -15 15v40c0 8 7 15 15 15h29c8 0 15 -7 15 -15v-40zM247 255c0 -8 -7 -15 -15 -15h-29c-8 0 -15 7 -15 15v40c0 8 7 15 15 15h29c8 0 15 -7 15 -15v-40zM385 95c0 -8 -7 -15 -15 -15h-29c-8 0 -15 7 -15 15v40c0 8 7 15 15 15
h29c8 0 15 -7 15 -15v-40zM109 335c0 -8 -7 -15 -15 -15h-29c-8 0 -15 7 -15 15v40c0 8 7 15 15 15h29c8 0 15 -7 15 -15v-40zM178 255c0 -8 -7 -15 -15 -15h-29c-8 0 -15 7 -15 15v40c0 8 7 15 15 15h29c8 0 15 -7 15 -15v-40zM109 255c0 -8 -7 -15 -15 -15h-29
c-8 0 -15 7 -15 15v40c0 8 7 15 15 15h29c8 0 15 -7 15 -15v-40zM316 15c0 -8 -7 -15 -15 -15h-29c-8 0 -15 7 -15 15v40c0 8 7 15 15 15h29c8 0 15 -7 15 -15v-40zM109 175c0 -8 -7 -15 -15 -15h-29c-8 0 -15 7 -15 15v40c0 8 7 15 15 15h29c8 0 15 -7 15 -15v-40zM247 15
c0 -8 -7 -15 -15 -15h-29c-8 0 -15 7 -15 15v40c0 8 7 15 15 15h29c8 0 15 -7 15 -15v-40zM109 95c0 -8 -7 -15 -15 -15h-29c-8 0 -15 7 -15 15v40c0 8 7 15 15 15h29c8 0 15 -7 15 -15v-40zM178 15c0 -8 -7 -15 -15 -15h-29c-8 0 -15 7 -15 15v40c0 8 7 15 15 15h29
c8 0 15 -7 15 -15v-40zM109 15c0 -8 -7 -15 -15 -15h-29c-8 0 -15 7 -15 15v40c0 8 7 15 15 15h29c8 0 15 -7 15 -15v-40z" />
    <glyph glyph-name="C" unicode="C" 
d="M316 495c0 -8 -7 -15 -15 -15h-29c-8 0 -15 7 -15 15v40c0 8 7 15 15 15h29c8 0 15 -7 15 -15v-40zM385 415c0 -8 -7 -15 -15 -15h-29c-8 0 -15 7 -15 15v40c0 8 7 15 15 15h29c8 0 15 -7 15 -15v-40zM247 495c0 -8 -7 -15 -15 -15h-29c-8 0 -15 7 -15 15v40
c0 8 7 15 15 15h29c8 0 15 -7 15 -15v-40zM178 495c0 -8 -7 -15 -15 -15h-29c-8 0 -15 7 -15 15v40c0 8 7 15 15 15h29c8 0 15 -7 15 -15v-40zM109 415c0 -8 -7 -15 -15 -15h-29c-8 0 -15 7 -15 15v40c0 8 7 15 15 15h29c8 0 15 -7 15 -15v-40zM385 95c0 -8 -7 -15 -15 -15
h-29c-8 0 -15 7 -15 15v40c0 8 7 15 15 15h29c8 0 15 -7 15 -15v-40zM109 335c0 -8 -7 -15 -15 -15h-29c-8 0 -15 7 -15 15v40c0 8 7 15 15 15h29c8 0 15 -7 15 -15v-40zM109 255c0 -8 -7 -15 -15 -15h-29c-8 0 -15 7 -15 15v40c0 8 7 15 15 15h29c8 0 15 -7 15 -15v-40z
M316 15c0 -8 -7 -15 -15 -15h-29c-8 0 -15 7 -15 15v40c0 8 7 15 15 15h29c8 0 15 -7 15 -15v-40zM109 175c0 -8 -7 -15 -15 -15h-29c-8 0 -15 7 -15 15v40c0 8 7 15 15 15h29c8 0 15 -7 15 -15v-40zM247 15c0 -8 -7 -15 -15 -15h-29c-8 0 -15 7 -15 15v40c0 8 7 15 15 15
h29c8 0 15 -7 15 -15v-40zM109 95c0 -8 -7 -15 -15 -15h-29c-8 0 -15 7 -15 15v40c0 8 7 15 15 15h29c8 0 15 -7 15 -15v-40zM178 15c0 -8 -7 -15 -15 -15h-29c-8 0 -15 7 -15 15v40c0 8 7 15 15 15h29c8 0 15 -7 15 -15v-40z" />
    <glyph glyph-name="D" unicode="D" 
d="M316 495c0 -8 -7 -15 -15 -15h-29c-8 0 -15 7 -15 15v40c0 8 7 15 15 15h29c8 0 15 -7 15 -15v-40zM385 415c0 -8 -7 -15 -15 -15h-29c-8 0 -15 7 -15 15v40c0 8 7 15 15 15h29c8 0 15 -7 15 -15v-40zM247 495c0 -8 -7 -15 -15 -15h-29c-8 0 -15 7 -15 15v40
c0 8 7 15 15 15h29c8 0 15 -7 15 -15v-40zM385 335c0 -8 -7 -15 -15 -15h-29c-8 0 -15 7 -15 15v40c0 8 7 15 15 15h29c8 0 15 -7 15 -15v-40zM178 495c0 -8 -7 -15 -15 -15h-29c-8 0 -15 7 -15 15v40c0 8 7 15 15 15h29c8 0 15 -7 15 -15v-40zM385 255c0 -8 -7 -15 -15 -15
h-29c-8 0 -15 7 -15 15v40c0 8 7 15 15 15h29c8 0 15 -7 15 -15v-40zM109 495c0 -8 -7 -15 -15 -15h-29c-8 0 -15 7 -15 15v40c0 8 7 15 15 15h29c8 0 15 -7 15 -15v-40zM385 175c0 -8 -7 -15 -15 -15h-29c-8 0 -15 7 -15 15v40c0 8 7 15 15 15h29c8 0 15 -7 15 -15v-40z
M109 415c0 -8 -7 -15 -15 -15h-29c-8 0 -15 7 -15 15v40c0 8 7 15 15 15h29c8 0 15 -7 15 -15v-40zM385 95c0 -8 -7 -15 -15 -15h-29c-8 0 -15 7 -15 15v40c0 8 7 15 15 15h29c8 0 15 -7 15 -15v-40zM109 335c0 -8 -7 -15 -15 -15h-29c-8 0 -15 7 -15 15v40c0 8 7 15 15 15
h29c8 0 15 -7 15 -15v-40zM109 255c0 -8 -7 -15 -15 -15h-29c-8 0 -15 7 -15 15v40c0 8 7 15 15 15h29c8 0 15 -7 15 -15v-40zM316 15c0 -8 -7 -15 -15 -15h-29c-8 0 -15 7 -15 15v40c0 8 7 15 15 15h29c8 0 15 -7 15 -15v-40zM109 175c0 -8 -7 -15 -15 -15h-29
c-8 0 -15 7 -15 15v40c0 8 7 15 15 15h29c8 0 15 -7 15 -15v-40zM247 15c0 -8 -7 -15 -15 -15h-29c-8 0 -15 7 -15 15v40c0 8 7 15 15 15h29c8 0 15 -7 15 -15v-40zM109 95c0 -8 -7 -15 -15 -15h-29c-8 0 -15 7 -15 15v40c0 8 7 15 15 15h29c8 0 15 -7 15 -15v-40zM178 15
c0 -8 -7 -15 -15 -15h-29c-8 0 -15 7 -15 15v40c0 8 7 15 15 15h29c8 0 15 -7 15 -15v-40zM109 15c0 -8 -7 -15 -15 -15h-29c-8 0 -15 7 -15 15v40c0 8 7 15 15 15h29c8 0 15 -7 15 -15v-40z" />
    <glyph glyph-name="E" unicode="E" 
d="M385 495c0 -8 -7 -15 -15 -15h-29c-8 0 -15 7 -15 15v40c0 8 7 15 15 15h29c8 0 15 -7 15 -15v-40zM316 495c0 -8 -7 -15 -15 -15h-29c-8 0 -15 7 -15 15v40c0 8 7 15 15 15h29c8 0 15 -7 15 -15v-40zM247 495c0 -8 -7 -15 -15 -15h-29c-8 0 -15 7 -15 15v40
c0 8 7 15 15 15h29c8 0 15 -7 15 -15v-40zM178 495c0 -8 -7 -15 -15 -15h-29c-8 0 -15 7 -15 15v40c0 8 7 15 15 15h29c8 0 15 -7 15 -15v-40zM109 495c0 -8 -7 -15 -15 -15h-29c-8 0 -15 7 -15 15v40c0 8 7 15 15 15h29c8 0 15 -7 15 -15v-40zM316 255c0 -8 -7 -15 -15 -15
h-29c-8 0 -15 7 -15 15v40c0 8 7 15 15 15h29c8 0 15 -7 15 -15v-40zM109 415c0 -8 -7 -15 -15 -15h-29c-8 0 -15 7 -15 15v40c0 8 7 15 15 15h29c8 0 15 -7 15 -15v-40zM247 255c0 -8 -7 -15 -15 -15h-29c-8 0 -15 7 -15 15v40c0 8 7 15 15 15h29c8 0 15 -7 15 -15v-40z
M109 335c0 -8 -7 -15 -15 -15h-29c-8 0 -15 7 -15 15v40c0 8 7 15 15 15h29c8 0 15 -7 15 -15v-40zM178 255c0 -8 -7 -15 -15 -15h-29c-8 0 -15 7 -15 15v40c0 8 7 15 15 15h29c8 0 15 -7 15 -15v-40zM385 15c0 -8 -7 -15 -15 -15h-29c-8 0 -15 7 -15 15v40c0 8 7 15 15 15
h29c8 0 15 -7 15 -15v-40zM109 255c0 -8 -7 -15 -15 -15h-29c-8 0 -15 7 -15 15v40c0 8 7 15 15 15h29c8 0 15 -7 15 -15v-40zM316 15c0 -8 -7 -15 -15 -15h-29c-8 0 -15 7 -15 15v40c0 8 7 15 15 15h29c8 0 15 -7 15 -15v-40zM109 175c0 -8 -7 -15 -15 -15h-29
c-8 0 -15 7 -15 15v40c0 8 7 15 15 15h29c8 0 15 -7 15 -15v-40zM247 15c0 -8 -7 -15 -15 -15h-29c-8 0 -15 7 -15 15v40c0 8 7 15 15 15h29c8 0 15 -7 15 -15v-40zM109 95c0 -8 -7 -15 -15 -15h-29c-8 0 -15 7 -15 15v40c0 8 7 15 15 15h29c8 0 15 -7 15 -15v-40zM178 15
c0 -8 -7 -15 -15 -15h-29c-8 0 -15 7 -15 15v40c0 8 7 15 15 15h29c8 0 15 -7 15 -15v-40zM109 15c0 -8 -7 -15 -15 -15h-29c-8 0 -15 7 -15 15v40c0 8 7 15 15 15h29c8 0 15 -7 15 -15v-40z" />
    <glyph glyph-name="F" unicode="F" 
d="M385 495c0 -8 -7 -15 -15 -15h-29c-8 0 -15 7 -15 15v40c0 8 7 15 15 15h29c8 0 15 -7 15 -15v-40zM316 495c0 -8 -7 -15 -15 -15h-29c-8 0 -15 7 -15 15v40c0 8 7 15 15 15h29c8 0 15 -7 15 -15v-40zM247 495c0 -8 -7 -15 -15 -15h-29c-8 0 -15 7 -15 15v40
c0 8 7 15 15 15h29c8 0 15 -7 15 -15v-40zM178 495c0 -8 -7 -15 -15 -15h-29c-8 0 -15 7 -15 15v40c0 8 7 15 15 15h29c8 0 15 -7 15 -15v-40zM109 495c0 -8 -7 -15 -15 -15h-29c-8 0 -15 7 -15 15v40c0 8 7 15 15 15h29c8 0 15 -7 15 -15v-40zM316 255c0 -8 -7 -15 -15 -15
h-29c-8 0 -15 7 -15 15v40c0 8 7 15 15 15h29c8 0 15 -7 15 -15v-40zM109 415c0 -8 -7 -15 -15 -15h-29c-8 0 -15 7 -15 15v40c0 8 7 15 15 15h29c8 0 15 -7 15 -15v-40zM247 255c0 -8 -7 -15 -15 -15h-29c-8 0 -15 7 -15 15v40c0 8 7 15 15 15h29c8 0 15 -7 15 -15v-40z
M109 335c0 -8 -7 -15 -15 -15h-29c-8 0 -15 7 -15 15v40c0 8 7 15 15 15h29c8 0 15 -7 15 -15v-40zM178 255c0 -8 -7 -15 -15 -15h-29c-8 0 -15 7 -15 15v40c0 8 7 15 15 15h29c8 0 15 -7 15 -15v-40zM109 255c0 -8 -7 -15 -15 -15h-29c-8 0 -15 7 -15 15v40c0 8 7 15 15 15
h29c8 0 15 -7 15 -15v-40zM109 175c0 -8 -7 -15 -15 -15h-29c-8 0 -15 7 -15 15v40c0 8 7 15 15 15h29c8 0 15 -7 15 -15v-40zM109 95c0 -8 -7 -15 -15 -15h-29c-8 0 -15 7 -15 15v40c0 8 7 15 15 15h29c8 0 15 -7 15 -15v-40zM109 15c0 -8 -7 -15 -15 -15h-29
c-8 0 -15 7 -15 15v40c0 8 7 15 15 15h29c8 0 15 -7 15 -15v-40z" />
    <glyph glyph-name="G" unicode="G" 
d="M385 495c0 -8 -7 -15 -15 -15h-29c-8 0 -15 7 -15 15v40c0 8 7 15 15 15h29c8 0 15 -7 15 -15v-40zM316 495c0 -8 -7 -15 -15 -15h-29c-8 0 -15 7 -15 15v40c0 8 7 15 15 15h29c8 0 15 -7 15 -15v-40zM247 495c0 -8 -7 -15 -15 -15h-29c-8 0 -15 7 -15 15v40
c0 8 7 15 15 15h29c8 0 15 -7 15 -15v-40zM178 495c0 -8 -7 -15 -15 -15h-29c-8 0 -15 7 -15 15v40c0 8 7 15 15 15h29c8 0 15 -7 15 -15v-40zM385 255c0 -8 -7 -15 -15 -15h-29c-8 0 -15 7 -15 15v40c0 8 7 15 15 15h29c8 0 15 -7 15 -15v-40zM316 255c0 -8 -7 -15 -15 -15
h-29c-8 0 -15 7 -15 15v40c0 8 7 15 15 15h29c8 0 15 -7 15 -15v-40zM385 175c0 -8 -7 -15 -15 -15h-29c-8 0 -15 7 -15 15v40c0 8 7 15 15 15h29c8 0 15 -7 15 -15v-40zM109 415c0 -8 -7 -15 -15 -15h-29c-8 0 -15 7 -15 15v40c0 8 7 15 15 15h29c8 0 15 -7 15 -15v-40z
M247 255c0 -8 -7 -15 -15 -15h-29c-8 0 -15 7 -15 15v40c0 8 7 15 15 15h29c8 0 15 -7 15 -15v-40zM385 95c0 -8 -7 -15 -15 -15h-29c-8 0 -15 7 -15 15v40c0 8 7 15 15 15h29c8 0 15 -7 15 -15v-40zM109 335c0 -8 -7 -15 -15 -15h-29c-8 0 -15 7 -15 15v40c0 8 7 15 15 15
h29c8 0 15 -7 15 -15v-40zM385 15c0 -8 -7 -15 -15 -15h-29c-8 0 -15 7 -15 15v40c0 8 7 15 15 15h29c8 0 15 -7 15 -15v-40zM109 255c0 -8 -7 -15 -15 -15h-29c-8 0 -15 7 -15 15v40c0 8 7 15 15 15h29c8 0 15 -7 15 -15v-40zM316 15c0 -8 -7 -15 -15 -15h-29
c-8 0 -15 7 -15 15v40c0 8 7 15 15 15h29c8 0 15 -7 15 -15v-40zM109 175c0 -8 -7 -15 -15 -15h-29c-8 0 -15 7 -15 15v40c0 8 7 15 15 15h29c8 0 15 -7 15 -15v-40zM247 15c0 -8 -7 -15 -15 -15h-29c-8 0 -15 7 -15 15v40c0 8 7 15 15 15h29c8 0 15 -7 15 -15v-40zM109 95
c0 -8 -7 -15 -15 -15h-29c-8 0 -15 7 -15 15v40c0 8 7 15 15 15h29c8 0 15 -7 15 -15v-40zM178 15c0 -8 -7 -15 -15 -15h-29c-8 0 -15 7 -15 15v40c0 8 7 15 15 15h29c8 0 15 -7 15 -15v-40z" />
    <glyph glyph-name="H" unicode="H" 
d="M385 495c0 -8 -7 -15 -15 -15h-29c-8 0 -15 7 -15 15v40c0 8 7 15 15 15h29c8 0 15 -7 15 -15v-40zM385 415c0 -8 -7 -15 -15 -15h-29c-8 0 -15 7 -15 15v40c0 8 7 15 15 15h29c8 0 15 -7 15 -15v-40zM385 335c0 -8 -7 -15 -15 -15h-29c-8 0 -15 7 -15 15v40
c0 8 7 15 15 15h29c8 0 15 -7 15 -15v-40zM385 255c0 -8 -7 -15 -15 -15h-29c-8 0 -15 7 -15 15v40c0 8 7 15 15 15h29c8 0 15 -7 15 -15v-40zM109 495c0 -8 -7 -15 -15 -15h-29c-8 0 -15 7 -15 15v40c0 8 7 15 15 15h29c8 0 15 -7 15 -15v-40zM316 255c0 -8 -7 -15 -15 -15
h-29c-8 0 -15 7 -15 15v40c0 8 7 15 15 15h29c8 0 15 -7 15 -15v-40zM385 175c0 -8 -7 -15 -15 -15h-29c-8 0 -15 7 -15 15v40c0 8 7 15 15 15h29c8 0 15 -7 15 -15v-40zM109 415c0 -8 -7 -15 -15 -15h-29c-8 0 -15 7 -15 15v40c0 8 7 15 15 15h29c8 0 15 -7 15 -15v-40z
M247 255c0 -8 -7 -15 -15 -15h-29c-8 0 -15 7 -15 15v40c0 8 7 15 15 15h29c8 0 15 -7 15 -15v-40zM385 95c0 -8 -7 -15 -15 -15h-29c-8 0 -15 7 -15 15v40c0 8 7 15 15 15h29c8 0 15 -7 15 -15v-40zM109 335c0 -8 -7 -15 -15 -15h-29c-8 0 -15 7 -15 15v40c0 8 7 15 15 15
h29c8 0 15 -7 15 -15v-40zM178 255c0 -8 -7 -15 -15 -15h-29c-8 0 -15 7 -15 15v40c0 8 7 15 15 15h29c8 0 15 -7 15 -15v-40zM385 15c0 -8 -7 -15 -15 -15h-29c-8 0 -15 7 -15 15v40c0 8 7 15 15 15h29c8 0 15 -7 15 -15v-40zM109 255c0 -8 -7 -15 -15 -15h-29
c-8 0 -15 7 -15 15v40c0 8 7 15 15 15h29c8 0 15 -7 15 -15v-40zM109 175c0 -8 -7 -15 -15 -15h-29c-8 0 -15 7 -15 15v40c0 8 7 15 15 15h29c8 0 15 -7 15 -15v-40zM109 95c0 -8 -7 -15 -15 -15h-29c-8 0 -15 7 -15 15v40c0 8 7 15 15 15h29c8 0 15 -7 15 -15v-40zM109 15
c0 -8 -7 -15 -15 -15h-29c-8 0 -15 7 -15 15v40c0 8 7 15 15 15h29c8 0 15 -7 15 -15v-40z" />
    <glyph glyph-name="I" unicode="I" 
d="M385 495c0 -8 -7 -15 -15 -15h-29c-8 0 -15 7 -15 15v40c0 8 7 15 15 15h29c8 0 15 -7 15 -15v-40zM316 495c0 -8 -7 -15 -15 -15h-29c-8 0 -15 7 -15 15v40c0 8 7 15 15 15h29c8 0 15 -7 15 -15v-40zM247 495c0 -8 -7 -15 -15 -15h-29c-8 0 -15 7 -15 15v40
c0 8 7 15 15 15h29c8 0 15 -7 15 -15v-40zM178 495c0 -8 -7 -15 -15 -15h-29c-8 0 -15 7 -15 15v40c0 8 7 15 15 15h29c8 0 15 -7 15 -15v-40zM247 415c0 -8 -7 -15 -15 -15h-29c-8 0 -15 7 -15 15v40c0 8 7 15 15 15h29c8 0 15 -7 15 -15v-40zM109 495c0 -8 -7 -15 -15 -15
h-29c-8 0 -15 7 -15 15v40c0 8 7 15 15 15h29c8 0 15 -7 15 -15v-40zM247 335c0 -8 -7 -15 -15 -15h-29c-8 0 -15 7 -15 15v40c0 8 7 15 15 15h29c8 0 15 -7 15 -15v-40zM247 255c0 -8 -7 -15 -15 -15h-29c-8 0 -15 7 -15 15v40c0 8 7 15 15 15h29c8 0 15 -7 15 -15v-40z
M247 175c0 -8 -7 -15 -15 -15h-29c-8 0 -15 7 -15 15v40c0 8 7 15 15 15h29c8 0 15 -7 15 -15v-40zM385 15c0 -8 -7 -15 -15 -15h-29c-8 0 -15 7 -15 15v40c0 8 7 15 15 15h29c8 0 15 -7 15 -15v-40zM247 95c0 -8 -7 -15 -15 -15h-29c-8 0 -15 7 -15 15v40c0 8 7 15 15 15
h29c8 0 15 -7 15 -15v-40zM316 15c0 -8 -7 -15 -15 -15h-29c-8 0 -15 7 -15 15v40c0 8 7 15 15 15h29c8 0 15 -7 15 -15v-40zM247 15c0 -8 -7 -15 -15 -15h-29c-8 0 -15 7 -15 15v40c0 8 7 15 15 15h29c8 0 15 -7 15 -15v-40zM178 15c0 -8 -7 -15 -15 -15h-29
c-8 0 -15 7 -15 15v40c0 8 7 15 15 15h29c8 0 15 -7 15 -15v-40zM109 15c0 -8 -7 -15 -15 -15h-29c-8 0 -15 7 -15 15v40c0 8 7 15 15 15h29c8 0 15 -7 15 -15v-40z" />
    <glyph glyph-name="J" unicode="J" 
d="M385 495c0 -8 -7 -15 -15 -15h-29c-8 0 -15 7 -15 15v40c0 8 7 15 15 15h29c8 0 15 -7 15 -15v-40zM385 415c0 -8 -7 -15 -15 -15h-29c-8 0 -15 7 -15 15v40c0 8 7 15 15 15h29c8 0 15 -7 15 -15v-40zM385 335c0 -8 -7 -15 -15 -15h-29c-8 0 -15 7 -15 15v40
c0 8 7 15 15 15h29c8 0 15 -7 15 -15v-40zM385 255c0 -8 -7 -15 -15 -15h-29c-8 0 -15 7 -15 15v40c0 8 7 15 15 15h29c8 0 15 -7 15 -15v-40zM385 175c0 -8 -7 -15 -15 -15h-29c-8 0 -15 7 -15 15v40c0 8 7 15 15 15h29c8 0 15 -7 15 -15v-40zM385 95c0 -8 -7 -15 -15 -15
h-29c-8 0 -15 7 -15 15v40c0 8 7 15 15 15h29c8 0 15 -7 15 -15v-40zM316 15c0 -8 -7 -15 -15 -15h-29c-8 0 -15 7 -15 15v40c0 8 7 15 15 15h29c8 0 15 -7 15 -15v-40zM247 15c0 -8 -7 -15 -15 -15h-29c-8 0 -15 7 -15 15v40c0 8 7 15 15 15h29c8 0 15 -7 15 -15v-40z
M109 95c0 -8 -7 -15 -15 -15h-29c-8 0 -15 7 -15 15v40c0 8 7 15 15 15h29c8 0 15 -7 15 -15v-40zM178 15c0 -8 -7 -15 -15 -15h-29c-8 0 -15 7 -15 15v40c0 8 7 15 15 15h29c8 0 15 -7 15 -15v-40z" />
    <glyph glyph-name="K" unicode="K" 
d="M385 495c0 -8 -7 -15 -15 -15h-29c-8 0 -15 7 -15 15v40c0 8 7 15 15 15h29c8 0 15 -7 15 -15v-40zM316 415c0 -8 -7 -15 -15 -15h-29c-8 0 -15 7 -15 15v40c0 8 7 15 15 15h29c8 0 15 -7 15 -15v-40zM109 495c0 -8 -7 -15 -15 -15h-29c-8 0 -15 7 -15 15v40
c0 8 7 15 15 15h29c8 0 15 -7 15 -15v-40zM247 335c0 -8 -7 -15 -15 -15h-29c-8 0 -15 7 -15 15v40c0 8 7 15 15 15h29c8 0 15 -7 15 -15v-40zM109 415c0 -8 -7 -15 -15 -15h-29c-8 0 -15 7 -15 15v40c0 8 7 15 15 15h29c8 0 15 -7 15 -15v-40zM109 335c0 -8 -7 -15 -15 -15
h-29c-8 0 -15 7 -15 15v40c0 8 7 15 15 15h29c8 0 15 -7 15 -15v-40zM178 255c0 -8 -7 -15 -15 -15h-29c-8 0 -15 7 -15 15v40c0 8 7 15 15 15h29c8 0 15 -7 15 -15v-40zM247 175c0 -8 -7 -15 -15 -15h-29c-8 0 -15 7 -15 15v40c0 8 7 15 15 15h29c8 0 15 -7 15 -15v-40z
M316 95c0 -8 -7 -15 -15 -15h-29c-8 0 -15 7 -15 15v40c0 8 7 15 15 15h29c8 0 15 -7 15 -15v-40zM385 15c0 -8 -7 -15 -15 -15h-29c-8 0 -15 7 -15 15v40c0 8 7 15 15 15h29c8 0 15 -7 15 -15v-40zM109 255c0 -8 -7 -15 -15 -15h-29c-8 0 -15 7 -15 15v40c0 8 7 15 15 15
h29c8 0 15 -7 15 -15v-40zM109 175c0 -8 -7 -15 -15 -15h-29c-8 0 -15 7 -15 15v40c0 8 7 15 15 15h29c8 0 15 -7 15 -15v-40zM109 95c0 -8 -7 -15 -15 -15h-29c-8 0 -15 7 -15 15v40c0 8 7 15 15 15h29c8 0 15 -7 15 -15v-40zM109 15c0 -8 -7 -15 -15 -15h-29
c-8 0 -15 7 -15 15v40c0 8 7 15 15 15h29c8 0 15 -7 15 -15v-40z" />
    <glyph glyph-name="L" unicode="L" 
d="M109 495c0 -8 -7 -15 -15 -15h-29c-8 0 -15 7 -15 15v40c0 8 7 15 15 15h29c8 0 15 -7 15 -15v-40zM109 415c0 -8 -7 -15 -15 -15h-29c-8 0 -15 7 -15 15v40c0 8 7 15 15 15h29c8 0 15 -7 15 -15v-40zM109 335c0 -8 -7 -15 -15 -15h-29c-8 0 -15 7 -15 15v40
c0 8 7 15 15 15h29c8 0 15 -7 15 -15v-40zM385 15c0 -8 -7 -15 -15 -15h-29c-8 0 -15 7 -15 15v40c0 8 7 15 15 15h29c8 0 15 -7 15 -15v-40zM109 255c0 -8 -7 -15 -15 -15h-29c-8 0 -15 7 -15 15v40c0 8 7 15 15 15h29c8 0 15 -7 15 -15v-40zM316 15c0 -8 -7 -15 -15 -15
h-29c-8 0 -15 7 -15 15v40c0 8 7 15 15 15h29c8 0 15 -7 15 -15v-40zM109 175c0 -8 -7 -15 -15 -15h-29c-8 0 -15 7 -15 15v40c0 8 7 15 15 15h29c8 0 15 -7 15 -15v-40zM247 15c0 -8 -7 -15 -15 -15h-29c-8 0 -15 7 -15 15v40c0 8 7 15 15 15h29c8 0 15 -7 15 -15v-40z
M109 95c0 -8 -7 -15 -15 -15h-29c-8 0 -15 7 -15 15v40c0 8 7 15 15 15h29c8 0 15 -7 15 -15v-40zM178 15c0 -8 -7 -15 -15 -15h-29c-8 0 -15 7 -15 15v40c0 8 7 15 15 15h29c8 0 15 -7 15 -15v-40zM109 15c0 -8 -7 -15 -15 -15h-29c-8 0 -15 7 -15 15v40c0 8 7 15 15 15h29
c8 0 15 -7 15 -15v-40z" />
    <glyph glyph-name="M" unicode="M" 
d="M385 495c0 -8 -7 -15 -15 -15h-29c-8 0 -15 7 -15 15v40c0 8 7 15 15 15h29c8 0 15 -7 15 -15v-40zM385 415c0 -8 -7 -15 -15 -15h-29c-8 0 -15 7 -15 15v40c0 8 7 15 15 15h29c8 0 15 -7 15 -15v-40zM316 415c0 -8 -7 -15 -15 -15h-29c-8 0 -15 7 -15 15v40
c0 8 7 15 15 15h29c8 0 15 -7 15 -15v-40zM385 335c0 -8 -7 -15 -15 -15h-29c-8 0 -15 7 -15 15v40c0 8 7 15 15 15h29c8 0 15 -7 15 -15v-40zM385 255c0 -8 -7 -15 -15 -15h-29c-8 0 -15 7 -15 15v40c0 8 7 15 15 15h29c8 0 15 -7 15 -15v-40zM109 495c0 -8 -7 -15 -15 -15
h-29c-8 0 -15 7 -15 15v40c0 8 7 15 15 15h29c8 0 15 -7 15 -15v-40zM178 415c0 -8 -7 -15 -15 -15h-29c-8 0 -15 7 -15 15v40c0 8 7 15 15 15h29c8 0 15 -7 15 -15v-40zM247 335c0 -8 -7 -15 -15 -15h-29c-8 0 -15 7 -15 15v40c0 8 7 15 15 15h29c8 0 15 -7 15 -15v-40z
M385 175c0 -8 -7 -15 -15 -15h-29c-8 0 -15 7 -15 15v40c0 8 7 15 15 15h29c8 0 15 -7 15 -15v-40zM109 415c0 -8 -7 -15 -15 -15h-29c-8 0 -15 7 -15 15v40c0 8 7 15 15 15h29c8 0 15 -7 15 -15v-40zM247 255c0 -8 -7 -15 -15 -15h-29c-8 0 -15 7 -15 15v40c0 8 7 15 15 15
h29c8 0 15 -7 15 -15v-40zM385 95c0 -8 -7 -15 -15 -15h-29c-8 0 -15 7 -15 15v40c0 8 7 15 15 15h29c8 0 15 -7 15 -15v-40zM109 335c0 -8 -7 -15 -15 -15h-29c-8 0 -15 7 -15 15v40c0 8 7 15 15 15h29c8 0 15 -7 15 -15v-40zM385 15c0 -8 -7 -15 -15 -15h-29
c-8 0 -15 7 -15 15v40c0 8 7 15 15 15h29c8 0 15 -7 15 -15v-40zM109 255c0 -8 -7 -15 -15 -15h-29c-8 0 -15 7 -15 15v40c0 8 7 15 15 15h29c8 0 15 -7 15 -15v-40zM109 175c0 -8 -7 -15 -15 -15h-29c-8 0 -15 7 -15 15v40c0 8 7 15 15 15h29c8 0 15 -7 15 -15v-40zM109 95
c0 -8 -7 -15 -15 -15h-29c-8 0 -15 7 -15 15v40c0 8 7 15 15 15h29c8 0 15 -7 15 -15v-40zM109 15c0 -8 -7 -15 -15 -15h-29c-8 0 -15 7 -15 15v40c0 8 7 15 15 15h29c8 0 15 -7 15 -15v-40z" />
    <glyph glyph-name="N" unicode="N" 
d="M385 495c0 -8 -7 -15 -15 -15h-29c-8 0 -15 7 -15 15v40c0 8 7 15 15 15h29c8 0 15 -7 15 -15v-40zM385 415c0 -8 -7 -15 -15 -15h-29c-8 0 -15 7 -15 15v40c0 8 7 15 15 15h29c8 0 15 -7 15 -15v-40zM385 335c0 -8 -7 -15 -15 -15h-29c-8 0 -15 7 -15 15v40
c0 8 7 15 15 15h29c8 0 15 -7 15 -15v-40zM385 255c0 -8 -7 -15 -15 -15h-29c-8 0 -15 7 -15 15v40c0 8 7 15 15 15h29c8 0 15 -7 15 -15v-40zM109 495c0 -8 -7 -15 -15 -15h-29c-8 0 -15 7 -15 15v40c0 8 7 15 15 15h29c8 0 15 -7 15 -15v-40zM178 415c0 -8 -7 -15 -15 -15
h-29c-8 0 -15 7 -15 15v40c0 8 7 15 15 15h29c8 0 15 -7 15 -15v-40zM247 335c0 -8 -7 -15 -15 -15h-29c-8 0 -15 7 -15 15v40c0 8 7 15 15 15h29c8 0 15 -7 15 -15v-40zM385 175c0 -8 -7 -15 -15 -15h-29c-8 0 -15 7 -15 15v40c0 8 7 15 15 15h29c8 0 15 -7 15 -15v-40z
M109 415c0 -8 -7 -15 -15 -15h-29c-8 0 -15 7 -15 15v40c0 8 7 15 15 15h29c8 0 15 -7 15 -15v-40zM247 255c0 -8 -7 -15 -15 -15h-29c-8 0 -15 7 -15 15v40c0 8 7 15 15 15h29c8 0 15 -7 15 -15v-40zM385 95c0 -8 -7 -15 -15 -15h-29c-8 0 -15 7 -15 15v40c0 8 7 15 15 15
h29c8 0 15 -7 15 -15v-40zM109 335c0 -8 -7 -15 -15 -15h-29c-8 0 -15 7 -15 15v40c0 8 7 15 15 15h29c8 0 15 -7 15 -15v-40zM247 175c0 -8 -7 -15 -15 -15h-29c-8 0 -15 7 -15 15v40c0 8 7 15 15 15h29c8 0 15 -7 15 -15v-40zM316 95c0 -8 -7 -15 -15 -15h-29
c-8 0 -15 7 -15 15v40c0 8 7 15 15 15h29c8 0 15 -7 15 -15v-40zM385 15c0 -8 -7 -15 -15 -15h-29c-8 0 -15 7 -15 15v40c0 8 7 15 15 15h29c8 0 15 -7 15 -15v-40zM109 255c0 -8 -7 -15 -15 -15h-29c-8 0 -15 7 -15 15v40c0 8 7 15 15 15h29c8 0 15 -7 15 -15v-40zM109 175
c0 -8 -7 -15 -15 -15h-29c-8 0 -15 7 -15 15v40c0 8 7 15 15 15h29c8 0 15 -7 15 -15v-40zM109 95c0 -8 -7 -15 -15 -15h-29c-8 0 -15 7 -15 15v40c0 8 7 15 15 15h29c8 0 15 -7 15 -15v-40zM109 15c0 -8 -7 -15 -15 -15h-29c-8 0 -15 7 -15 15v40c0 8 7 15 15 15h29
c8 0 15 -7 15 -15v-40z" />
    <glyph glyph-name="O" unicode="O" 
d="M316 495c0 -8 -7 -15 -15 -15h-29c-8 0 -15 7 -15 15v40c0 8 7 15 15 15h29c8 0 15 -7 15 -15v-40zM385 415c0 -8 -7 -15 -15 -15h-29c-8 0 -15 7 -15 15v40c0 8 7 15 15 15h29c8 0 15 -7 15 -15v-40zM247 495c0 -8 -7 -15 -15 -15h-29c-8 0 -15 7 -15 15v40
c0 8 7 15 15 15h29c8 0 15 -7 15 -15v-40zM385 335c0 -8 -7 -15 -15 -15h-29c-8 0 -15 7 -15 15v40c0 8 7 15 15 15h29c8 0 15 -7 15 -15v-40zM178 495c0 -8 -7 -15 -15 -15h-29c-8 0 -15 7 -15 15v40c0 8 7 15 15 15h29c8 0 15 -7 15 -15v-40zM385 255c0 -8 -7 -15 -15 -15
h-29c-8 0 -15 7 -15 15v40c0 8 7 15 15 15h29c8 0 15 -7 15 -15v-40zM385 175c0 -8 -7 -15 -15 -15h-29c-8 0 -15 7 -15 15v40c0 8 7 15 15 15h29c8 0 15 -7 15 -15v-40zM109 415c0 -8 -7 -15 -15 -15h-29c-8 0 -15 7 -15 15v40c0 8 7 15 15 15h29c8 0 15 -7 15 -15v-40z
M385 95c0 -8 -7 -15 -15 -15h-29c-8 0 -15 7 -15 15v40c0 8 7 15 15 15h29c8 0 15 -7 15 -15v-40zM109 335c0 -8 -7 -15 -15 -15h-29c-8 0 -15 7 -15 15v40c0 8 7 15 15 15h29c8 0 15 -7 15 -15v-40zM109 255c0 -8 -7 -15 -15 -15h-29c-8 0 -15 7 -15 15v40c0 8 7 15 15 15
h29c8 0 15 -7 15 -15v-40zM316 15c0 -8 -7 -15 -15 -15h-29c-8 0 -15 7 -15 15v40c0 8 7 15 15 15h29c8 0 15 -7 15 -15v-40zM109 175c0 -8 -7 -15 -15 -15h-29c-8 0 -15 7 -15 15v40c0 8 7 15 15 15h29c8 0 15 -7 15 -15v-40zM247 15c0 -8 -7 -15 -15 -15h-29
c-8 0 -15 7 -15 15v40c0 8 7 15 15 15h29c8 0 15 -7 15 -15v-40zM109 95c0 -8 -7 -15 -15 -15h-29c-8 0 -15 7 -15 15v40c0 8 7 15 15 15h29c8 0 15 -7 15 -15v-40zM178 15c0 -8 -7 -15 -15 -15h-29c-8 0 -15 7 -15 15v40c0 8 7 15 15 15h29c8 0 15 -7 15 -15v-40z" />
    <glyph glyph-name="P" unicode="P" 
d="M316 495c0 -8 -7 -15 -15 -15h-29c-8 0 -15 7 -15 15v40c0 8 7 15 15 15h29c8 0 15 -7 15 -15v-40zM385 415c0 -8 -7 -15 -15 -15h-29c-8 0 -15 7 -15 15v40c0 8 7 15 15 15h29c8 0 15 -7 15 -15v-40zM247 495c0 -8 -7 -15 -15 -15h-29c-8 0 -15 7 -15 15v40
c0 8 7 15 15 15h29c8 0 15 -7 15 -15v-40zM385 335c0 -8 -7 -15 -15 -15h-29c-8 0 -15 7 -15 15v40c0 8 7 15 15 15h29c8 0 15 -7 15 -15v-40zM178 495c0 -8 -7 -15 -15 -15h-29c-8 0 -15 7 -15 15v40c0 8 7 15 15 15h29c8 0 15 -7 15 -15v-40zM109 495c0 -8 -7 -15 -15 -15
h-29c-8 0 -15 7 -15 15v40c0 8 7 15 15 15h29c8 0 15 -7 15 -15v-40zM316 255c0 -8 -7 -15 -15 -15h-29c-8 0 -15 7 -15 15v40c0 8 7 15 15 15h29c8 0 15 -7 15 -15v-40zM109 415c0 -8 -7 -15 -15 -15h-29c-8 0 -15 7 -15 15v40c0 8 7 15 15 15h29c8 0 15 -7 15 -15v-40z
M247 255c0 -8 -7 -15 -15 -15h-29c-8 0 -15 7 -15 15v40c0 8 7 15 15 15h29c8 0 15 -7 15 -15v-40zM109 335c0 -8 -7 -15 -15 -15h-29c-8 0 -15 7 -15 15v40c0 8 7 15 15 15h29c8 0 15 -7 15 -15v-40zM178 255c0 -8 -7 -15 -15 -15h-29c-8 0 -15 7 -15 15v40c0 8 7 15 15 15
h29c8 0 15 -7 15 -15v-40zM109 255c0 -8 -7 -15 -15 -15h-29c-8 0 -15 7 -15 15v40c0 8 7 15 15 15h29c8 0 15 -7 15 -15v-40zM109 175c0 -8 -7 -15 -15 -15h-29c-8 0 -15 7 -15 15v40c0 8 7 15 15 15h29c8 0 15 -7 15 -15v-40zM109 95c0 -8 -7 -15 -15 -15h-29
c-8 0 -15 7 -15 15v40c0 8 7 15 15 15h29c8 0 15 -7 15 -15v-40zM109 15c0 -8 -7 -15 -15 -15h-29c-8 0 -15 7 -15 15v40c0 8 7 15 15 15h29c8 0 15 -7 15 -15v-40z" />
    <glyph glyph-name="Q" unicode="Q" 
d="M316 495c0 -8 -7 -15 -15 -15h-29c-8 0 -15 7 -15 15v40c0 8 7 15 15 15h29c8 0 15 -7 15 -15v-40zM385 415c0 -8 -7 -15 -15 -15h-29c-8 0 -15 7 -15 15v40c0 8 7 15 15 15h29c8 0 15 -7 15 -15v-40zM247 495c0 -8 -7 -15 -15 -15h-29c-8 0 -15 7 -15 15v40
c0 8 7 15 15 15h29c8 0 15 -7 15 -15v-40zM385 335c0 -8 -7 -15 -15 -15h-29c-8 0 -15 7 -15 15v40c0 8 7 15 15 15h29c8 0 15 -7 15 -15v-40zM178 495c0 -8 -7 -15 -15 -15h-29c-8 0 -15 7 -15 15v40c0 8 7 15 15 15h29c8 0 15 -7 15 -15v-40zM385 255c0 -8 -7 -15 -15 -15
h-29c-8 0 -15 7 -15 15v40c0 8 7 15 15 15h29c8 0 15 -7 15 -15v-40zM385 175c0 -8 -7 -15 -15 -15h-29c-8 0 -15 7 -15 15v40c0 8 7 15 15 15h29c8 0 15 -7 15 -15v-40zM109 415c0 -8 -7 -15 -15 -15h-29c-8 0 -15 7 -15 15v40c0 8 7 15 15 15h29c8 0 15 -7 15 -15v-40z
M109 335c0 -8 -7 -15 -15 -15h-29c-8 0 -15 7 -15 15v40c0 8 7 15 15 15h29c8 0 15 -7 15 -15v-40zM247 175c0 -8 -7 -15 -15 -15h-29c-8 0 -15 7 -15 15v40c0 8 7 15 15 15h29c8 0 15 -7 15 -15v-40zM316 95c0 -8 -7 -15 -15 -15h-29c-8 0 -15 7 -15 15v40c0 8 7 15 15 15
h29c8 0 15 -7 15 -15v-40zM385 15c0 -8 -7 -15 -15 -15h-29c-8 0 -15 7 -15 15v40c0 8 7 15 15 15h29c8 0 15 -7 15 -15v-40zM109 255c0 -8 -7 -15 -15 -15h-29c-8 0 -15 7 -15 15v40c0 8 7 15 15 15h29c8 0 15 -7 15 -15v-40zM109 175c0 -8 -7 -15 -15 -15h-29
c-8 0 -15 7 -15 15v40c0 8 7 15 15 15h29c8 0 15 -7 15 -15v-40zM247 15c0 -8 -7 -15 -15 -15h-29c-8 0 -15 7 -15 15v40c0 8 7 15 15 15h29c8 0 15 -7 15 -15v-40zM109 95c0 -8 -7 -15 -15 -15h-29c-8 0 -15 7 -15 15v40c0 8 7 15 15 15h29c8 0 15 -7 15 -15v-40zM178 15
c0 -8 -7 -15 -15 -15h-29c-8 0 -15 7 -15 15v40c0 8 7 15 15 15h29c8 0 15 -7 15 -15v-40z" />
    <glyph glyph-name="R" unicode="R" 
d="M316 495c0 -8 -7 -15 -15 -15h-29c-8 0 -15 7 -15 15v40c0 8 7 15 15 15h29c8 0 15 -7 15 -15v-40zM385 415c0 -8 -7 -15 -15 -15h-29c-8 0 -15 7 -15 15v40c0 8 7 15 15 15h29c8 0 15 -7 15 -15v-40zM247 495c0 -8 -7 -15 -15 -15h-29c-8 0 -15 7 -15 15v40
c0 8 7 15 15 15h29c8 0 15 -7 15 -15v-40zM385 335c0 -8 -7 -15 -15 -15h-29c-8 0 -15 7 -15 15v40c0 8 7 15 15 15h29c8 0 15 -7 15 -15v-40zM178 495c0 -8 -7 -15 -15 -15h-29c-8 0 -15 7 -15 15v40c0 8 7 15 15 15h29c8 0 15 -7 15 -15v-40zM109 495c0 -8 -7 -15 -15 -15
h-29c-8 0 -15 7 -15 15v40c0 8 7 15 15 15h29c8 0 15 -7 15 -15v-40zM316 255c0 -8 -7 -15 -15 -15h-29c-8 0 -15 7 -15 15v40c0 8 7 15 15 15h29c8 0 15 -7 15 -15v-40zM109 415c0 -8 -7 -15 -15 -15h-29c-8 0 -15 7 -15 15v40c0 8 7 15 15 15h29c8 0 15 -7 15 -15v-40z
M247 255c0 -8 -7 -15 -15 -15h-29c-8 0 -15 7 -15 15v40c0 8 7 15 15 15h29c8 0 15 -7 15 -15v-40zM109 335c0 -8 -7 -15 -15 -15h-29c-8 0 -15 7 -15 15v40c0 8 7 15 15 15h29c8 0 15 -7 15 -15v-40zM178 255c0 -8 -7 -15 -15 -15h-29c-8 0 -15 7 -15 15v40c0 8 7 15 15 15
h29c8 0 15 -7 15 -15v-40zM247 175c0 -8 -7 -15 -15 -15h-29c-8 0 -15 7 -15 15v40c0 8 7 15 15 15h29c8 0 15 -7 15 -15v-40zM316 95c0 -8 -7 -15 -15 -15h-29c-8 0 -15 7 -15 15v40c0 8 7 15 15 15h29c8 0 15 -7 15 -15v-40zM385 15c0 -8 -7 -15 -15 -15h-29
c-8 0 -15 7 -15 15v40c0 8 7 15 15 15h29c8 0 15 -7 15 -15v-40zM109 255c0 -8 -7 -15 -15 -15h-29c-8 0 -15 7 -15 15v40c0 8 7 15 15 15h29c8 0 15 -7 15 -15v-40zM109 175c0 -8 -7 -15 -15 -15h-29c-8 0 -15 7 -15 15v40c0 8 7 15 15 15h29c8 0 15 -7 15 -15v-40zM109 95
c0 -8 -7 -15 -15 -15h-29c-8 0 -15 7 -15 15v40c0 8 7 15 15 15h29c8 0 15 -7 15 -15v-40zM109 15c0 -8 -7 -15 -15 -15h-29c-8 0 -15 7 -15 15v40c0 8 7 15 15 15h29c8 0 15 -7 15 -15v-40z" />
    <glyph glyph-name="S" unicode="S" 
d="M316 495c0 -8 -7 -15 -15 -15h-29c-8 0 -15 7 -15 15v40c0 8 7 15 15 15h29c8 0 15 -7 15 -15v-40zM385 415c0 -8 -7 -15 -15 -15h-29c-8 0 -15 7 -15 15v40c0 8 7 15 15 15h29c8 0 15 -7 15 -15v-40zM247 495c0 -8 -7 -15 -15 -15h-29c-8 0 -15 7 -15 15v40
c0 8 7 15 15 15h29c8 0 15 -7 15 -15v-40zM178 495c0 -8 -7 -15 -15 -15h-29c-8 0 -15 7 -15 15v40c0 8 7 15 15 15h29c8 0 15 -7 15 -15v-40zM316 255c0 -8 -7 -15 -15 -15h-29c-8 0 -15 7 -15 15v40c0 8 7 15 15 15h29c8 0 15 -7 15 -15v-40zM385 175c0 -8 -7 -15 -15 -15
h-29c-8 0 -15 7 -15 15v40c0 8 7 15 15 15h29c8 0 15 -7 15 -15v-40zM109 415c0 -8 -7 -15 -15 -15h-29c-8 0 -15 7 -15 15v40c0 8 7 15 15 15h29c8 0 15 -7 15 -15v-40zM247 255c0 -8 -7 -15 -15 -15h-29c-8 0 -15 7 -15 15v40c0 8 7 15 15 15h29c8 0 15 -7 15 -15v-40z
M385 95c0 -8 -7 -15 -15 -15h-29c-8 0 -15 7 -15 15v40c0 8 7 15 15 15h29c8 0 15 -7 15 -15v-40zM109 335c0 -8 -7 -15 -15 -15h-29c-8 0 -15 7 -15 15v40c0 8 7 15 15 15h29c8 0 15 -7 15 -15v-40zM178 255c0 -8 -7 -15 -15 -15h-29c-8 0 -15 7 -15 15v40c0 8 7 15 15 15
h29c8 0 15 -7 15 -15v-40zM316 15c0 -8 -7 -15 -15 -15h-29c-8 0 -15 7 -15 15v40c0 8 7 15 15 15h29c8 0 15 -7 15 -15v-40zM247 15c0 -8 -7 -15 -15 -15h-29c-8 0 -15 7 -15 15v40c0 8 7 15 15 15h29c8 0 15 -7 15 -15v-40zM109 95c0 -8 -7 -15 -15 -15h-29
c-8 0 -15 7 -15 15v40c0 8 7 15 15 15h29c8 0 15 -7 15 -15v-40zM178 15c0 -8 -7 -15 -15 -15h-29c-8 0 -15 7 -15 15v40c0 8 7 15 15 15h29c8 0 15 -7 15 -15v-40z" />
    <glyph glyph-name="T" unicode="T" 
d="M385 495c0 -8 -7 -15 -15 -15h-29c-8 0 -15 7 -15 15v40c0 8 7 15 15 15h29c8 0 15 -7 15 -15v-40zM316 495c0 -8 -7 -15 -15 -15h-29c-8 0 -15 7 -15 15v40c0 8 7 15 15 15h29c8 0 15 -7 15 -15v-40zM247 495c0 -8 -7 -15 -15 -15h-29c-8 0 -15 7 -15 15v40
c0 8 7 15 15 15h29c8 0 15 -7 15 -15v-40zM178 495c0 -8 -7 -15 -15 -15h-29c-8 0 -15 7 -15 15v40c0 8 7 15 15 15h29c8 0 15 -7 15 -15v-40zM247 415c0 -8 -7 -15 -15 -15h-29c-8 0 -15 7 -15 15v40c0 8 7 15 15 15h29c8 0 15 -7 15 -15v-40zM109 495c0 -8 -7 -15 -15 -15
h-29c-8 0 -15 7 -15 15v40c0 8 7 15 15 15h29c8 0 15 -7 15 -15v-40zM247 335c0 -8 -7 -15 -15 -15h-29c-8 0 -15 7 -15 15v40c0 8 7 15 15 15h29c8 0 15 -7 15 -15v-40zM247 255c0 -8 -7 -15 -15 -15h-29c-8 0 -15 7 -15 15v40c0 8 7 15 15 15h29c8 0 15 -7 15 -15v-40z
M247 175c0 -8 -7 -15 -15 -15h-29c-8 0 -15 7 -15 15v40c0 8 7 15 15 15h29c8 0 15 -7 15 -15v-40zM247 95c0 -8 -7 -15 -15 -15h-29c-8 0 -15 7 -15 15v40c0 8 7 15 15 15h29c8 0 15 -7 15 -15v-40zM247 15c0 -8 -7 -15 -15 -15h-29c-8 0 -15 7 -15 15v40c0 8 7 15 15 15
h29c8 0 15 -7 15 -15v-40z" />
    <glyph glyph-name="U" unicode="U" 
d="M385 495c0 -8 -7 -15 -15 -15h-29c-8 0 -15 7 -15 15v40c0 8 7 15 15 15h29c8 0 15 -7 15 -15v-40zM385 415c0 -8 -7 -15 -15 -15h-29c-8 0 -15 7 -15 15v40c0 8 7 15 15 15h29c8 0 15 -7 15 -15v-40zM385 335c0 -8 -7 -15 -15 -15h-29c-8 0 -15 7 -15 15v40
c0 8 7 15 15 15h29c8 0 15 -7 15 -15v-40zM385 255c0 -8 -7 -15 -15 -15h-29c-8 0 -15 7 -15 15v40c0 8 7 15 15 15h29c8 0 15 -7 15 -15v-40zM109 495c0 -8 -7 -15 -15 -15h-29c-8 0 -15 7 -15 15v40c0 8 7 15 15 15h29c8 0 15 -7 15 -15v-40zM385 175c0 -8 -7 -15 -15 -15
h-29c-8 0 -15 7 -15 15v40c0 8 7 15 15 15h29c8 0 15 -7 15 -15v-40zM109 415c0 -8 -7 -15 -15 -15h-29c-8 0 -15 7 -15 15v40c0 8 7 15 15 15h29c8 0 15 -7 15 -15v-40zM385 95c0 -8 -7 -15 -15 -15h-29c-8 0 -15 7 -15 15v40c0 8 7 15 15 15h29c8 0 15 -7 15 -15v-40z
M109 335c0 -8 -7 -15 -15 -15h-29c-8 0 -15 7 -15 15v40c0 8 7 15 15 15h29c8 0 15 -7 15 -15v-40zM109 255c0 -8 -7 -15 -15 -15h-29c-8 0 -15 7 -15 15v40c0 8 7 15 15 15h29c8 0 15 -7 15 -15v-40zM316 15c0 -8 -7 -15 -15 -15h-29c-8 0 -15 7 -15 15v40c0 8 7 15 15 15
h29c8 0 15 -7 15 -15v-40zM109 175c0 -8 -7 -15 -15 -15h-29c-8 0 -15 7 -15 15v40c0 8 7 15 15 15h29c8 0 15 -7 15 -15v-40zM247 15c0 -8 -7 -15 -15 -15h-29c-8 0 -15 7 -15 15v40c0 8 7 15 15 15h29c8 0 15 -7 15 -15v-40zM109 95c0 -8 -7 -15 -15 -15h-29
c-8 0 -15 7 -15 15v40c0 8 7 15 15 15h29c8 0 15 -7 15 -15v-40zM178 15c0 -8 -7 -15 -15 -15h-29c-8 0 -15 7 -15 15v40c0 8 7 15 15 15h29c8 0 15 -7 15 -15v-40z" />
    <glyph glyph-name="V" unicode="V" 
d="M385 495c0 -8 -7 -15 -15 -15h-29c-8 0 -15 7 -15 15v40c0 8 7 15 15 15h29c8 0 15 -7 15 -15v-40zM385 415c0 -8 -7 -15 -15 -15h-29c-8 0 -15 7 -15 15v40c0 8 7 15 15 15h29c8 0 15 -7 15 -15v-40zM385 335c0 -8 -7 -15 -15 -15h-29c-8 0 -15 7 -15 15v40
c0 8 7 15 15 15h29c8 0 15 -7 15 -15v-40zM385 255c0 -8 -7 -15 -15 -15h-29c-8 0 -15 7 -15 15v40c0 8 7 15 15 15h29c8 0 15 -7 15 -15v-40zM109 495c0 -8 -7 -15 -15 -15h-29c-8 0 -15 7 -15 15v40c0 8 7 15 15 15h29c8 0 15 -7 15 -15v-40zM385 175c0 -8 -7 -15 -15 -15
h-29c-8 0 -15 7 -15 15v40c0 8 7 15 15 15h29c8 0 15 -7 15 -15v-40zM109 415c0 -8 -7 -15 -15 -15h-29c-8 0 -15 7 -15 15v40c0 8 7 15 15 15h29c8 0 15 -7 15 -15v-40zM109 335c0 -8 -7 -15 -15 -15h-29c-8 0 -15 7 -15 15v40c0 8 7 15 15 15h29c8 0 15 -7 15 -15v-40z
M316 95c0 -8 -7 -15 -15 -15h-29c-8 0 -15 7 -15 15v40c0 8 7 15 15 15h29c8 0 15 -7 15 -15v-40zM109 255c0 -8 -7 -15 -15 -15h-29c-8 0 -15 7 -15 15v40c0 8 7 15 15 15h29c8 0 15 -7 15 -15v-40zM109 175c0 -8 -7 -15 -15 -15h-29c-8 0 -15 7 -15 15v40c0 8 7 15 15 15
h29c8 0 15 -7 15 -15v-40zM178 95c0 -8 -7 -15 -15 -15h-29c-8 0 -15 7 -15 15v40c0 8 7 15 15 15h29c8 0 15 -7 15 -15v-40zM247 15c0 -8 -7 -15 -15 -15h-29c-8 0 -15 7 -15 15v40c0 8 7 15 15 15h29c8 0 15 -7 15 -15v-40z" />
    <glyph glyph-name="W" unicode="W" 
d="M385 495c0 -8 -7 -15 -15 -15h-29c-8 0 -15 7 -15 15v40c0 8 7 15 15 15h29c8 0 15 -7 15 -15v-40zM385 415c0 -8 -7 -15 -15 -15h-29c-8 0 -15 7 -15 15v40c0 8 7 15 15 15h29c8 0 15 -7 15 -15v-40zM385 335c0 -8 -7 -15 -15 -15h-29c-8 0 -15 7 -15 15v40
c0 8 7 15 15 15h29c8 0 15 -7 15 -15v-40zM385 255c0 -8 -7 -15 -15 -15h-29c-8 0 -15 7 -15 15v40c0 8 7 15 15 15h29c8 0 15 -7 15 -15v-40zM109 495c0 -8 -7 -15 -15 -15h-29c-8 0 -15 7 -15 15v40c0 8 7 15 15 15h29c8 0 15 -7 15 -15v-40zM385 175c0 -8 -7 -15 -15 -15
h-29c-8 0 -15 7 -15 15v40c0 8 7 15 15 15h29c8 0 15 -7 15 -15v-40zM109 415c0 -8 -7 -15 -15 -15h-29c-8 0 -15 7 -15 15v40c0 8 7 15 15 15h29c8 0 15 -7 15 -15v-40zM247 255c0 -8 -7 -15 -15 -15h-29c-8 0 -15 7 -15 15v40c0 8 7 15 15 15h29c8 0 15 -7 15 -15v-40z
M385 95c0 -8 -7 -15 -15 -15h-29c-8 0 -15 7 -15 15v40c0 8 7 15 15 15h29c8 0 15 -7 15 -15v-40zM109 335c0 -8 -7 -15 -15 -15h-29c-8 0 -15 7 -15 15v40c0 8 7 15 15 15h29c8 0 15 -7 15 -15v-40zM247 175c0 -8 -7 -15 -15 -15h-29c-8 0 -15 7 -15 15v40c0 8 7 15 15 15
h29c8 0 15 -7 15 -15v-40zM316 95c0 -8 -7 -15 -15 -15h-29c-8 0 -15 7 -15 15v40c0 8 7 15 15 15h29c8 0 15 -7 15 -15v-40zM385 15c0 -8 -7 -15 -15 -15h-29c-8 0 -15 7 -15 15v40c0 8 7 15 15 15h29c8 0 15 -7 15 -15v-40zM109 255c0 -8 -7 -15 -15 -15h-29
c-8 0 -15 7 -15 15v40c0 8 7 15 15 15h29c8 0 15 -7 15 -15v-40zM109 175c0 -8 -7 -15 -15 -15h-29c-8 0 -15 7 -15 15v40c0 8 7 15 15 15h29c8 0 15 -7 15 -15v-40zM178 95c0 -8 -7 -15 -15 -15h-29c-8 0 -15 7 -15 15v40c0 8 7 15 15 15h29c8 0 15 -7 15 -15v-40zM109 95
c0 -8 -7 -15 -15 -15h-29c-8 0 -15 7 -15 15v40c0 8 7 15 15 15h29c8 0 15 -7 15 -15v-40zM109 15c0 -8 -7 -15 -15 -15h-29c-8 0 -15 7 -15 15v40c0 8 7 15 15 15h29c8 0 15 -7 15 -15v-40z" />
    <glyph glyph-name="X" unicode="X" 
d="M385 495c0 -8 -7 -15 -15 -15h-29c-8 0 -15 7 -15 15v40c0 8 7 15 15 15h29c8 0 15 -7 15 -15v-40zM385 415c0 -8 -7 -15 -15 -15h-29c-8 0 -15 7 -15 15v40c0 8 7 15 15 15h29c8 0 15 -7 15 -15v-40zM316 335c0 -8 -7 -15 -15 -15h-29c-8 0 -15 7 -15 15v40
c0 8 7 15 15 15h29c8 0 15 -7 15 -15v-40zM109 495c0 -8 -7 -15 -15 -15h-29c-8 0 -15 7 -15 15v40c0 8 7 15 15 15h29c8 0 15 -7 15 -15v-40zM109 415c0 -8 -7 -15 -15 -15h-29c-8 0 -15 7 -15 15v40c0 8 7 15 15 15h29c8 0 15 -7 15 -15v-40zM178 335c0 -8 -7 -15 -15 -15
h-29c-8 0 -15 7 -15 15v40c0 8 7 15 15 15h29c8 0 15 -7 15 -15v-40zM247 255c0 -8 -7 -15 -15 -15h-29c-8 0 -15 7 -15 15v40c0 8 7 15 15 15h29c8 0 15 -7 15 -15v-40zM316 175c0 -8 -7 -15 -15 -15h-29c-8 0 -15 7 -15 15v40c0 8 7 15 15 15h29c8 0 15 -7 15 -15v-40z
M385 95c0 -8 -7 -15 -15 -15h-29c-8 0 -15 7 -15 15v40c0 8 7 15 15 15h29c8 0 15 -7 15 -15v-40zM385 15c0 -8 -7 -15 -15 -15h-29c-8 0 -15 7 -15 15v40c0 8 7 15 15 15h29c8 0 15 -7 15 -15v-40zM178 175c0 -8 -7 -15 -15 -15h-29c-8 0 -15 7 -15 15v40c0 8 7 15 15 15
h29c8 0 15 -7 15 -15v-40zM109 95c0 -8 -7 -15 -15 -15h-29c-8 0 -15 7 -15 15v40c0 8 7 15 15 15h29c8 0 15 -7 15 -15v-40zM109 15c0 -8 -7 -15 -15 -15h-29c-8 0 -15 7 -15 15v40c0 8 7 15 15 15h29c8 0 15 -7 15 -15v-40z" />
    <glyph glyph-name="Y" unicode="Y" 
d="M385 495c0 -8 -7 -15 -15 -15h-29c-8 0 -15 7 -15 15v40c0 8 7 15 15 15h29c8 0 15 -7 15 -15v-40zM385 415c0 -8 -7 -15 -15 -15h-29c-8 0 -15 7 -15 15v40c0 8 7 15 15 15h29c8 0 15 -7 15 -15v-40zM316 335c0 -8 -7 -15 -15 -15h-29c-8 0 -15 7 -15 15v40
c0 8 7 15 15 15h29c8 0 15 -7 15 -15v-40zM109 495c0 -8 -7 -15 -15 -15h-29c-8 0 -15 7 -15 15v40c0 8 7 15 15 15h29c8 0 15 -7 15 -15v-40zM109 415c0 -8 -7 -15 -15 -15h-29c-8 0 -15 7 -15 15v40c0 8 7 15 15 15h29c8 0 15 -7 15 -15v-40zM178 335c0 -8 -7 -15 -15 -15
h-29c-8 0 -15 7 -15 15v40c0 8 7 15 15 15h29c8 0 15 -7 15 -15v-40zM247 255c0 -8 -7 -15 -15 -15h-29c-8 0 -15 7 -15 15v40c0 8 7 15 15 15h29c8 0 15 -7 15 -15v-40zM247 175c0 -8 -7 -15 -15 -15h-29c-8 0 -15 7 -15 15v40c0 8 7 15 15 15h29c8 0 15 -7 15 -15v-40z
M247 95c0 -8 -7 -15 -15 -15h-29c-8 0 -15 7 -15 15v40c0 8 7 15 15 15h29c8 0 15 -7 15 -15v-40zM247 15c0 -8 -7 -15 -15 -15h-29c-8 0 -15 7 -15 15v40c0 8 7 15 15 15h29c8 0 15 -7 15 -15v-40z" />
    <glyph glyph-name="Z" unicode="Z" 
d="M385 495c0 -8 -7 -15 -15 -15h-29c-8 0 -15 7 -15 15v40c0 8 7 15 15 15h29c8 0 15 -7 15 -15v-40zM316 495c0 -8 -7 -15 -15 -15h-29c-8 0 -15 7 -15 15v40c0 8 7 15 15 15h29c8 0 15 -7 15 -15v-40zM385 415c0 -8 -7 -15 -15 -15h-29c-8 0 -15 7 -15 15v40
c0 8 7 15 15 15h29c8 0 15 -7 15 -15v-40zM247 495c0 -8 -7 -15 -15 -15h-29c-8 0 -15 7 -15 15v40c0 8 7 15 15 15h29c8 0 15 -7 15 -15v-40zM178 495c0 -8 -7 -15 -15 -15h-29c-8 0 -15 7 -15 15v40c0 8 7 15 15 15h29c8 0 15 -7 15 -15v-40zM316 335c0 -8 -7 -15 -15 -15
h-29c-8 0 -15 7 -15 15v40c0 8 7 15 15 15h29c8 0 15 -7 15 -15v-40zM109 495c0 -8 -7 -15 -15 -15h-29c-8 0 -15 7 -15 15v40c0 8 7 15 15 15h29c8 0 15 -7 15 -15v-40zM247 255c0 -8 -7 -15 -15 -15h-29c-8 0 -15 7 -15 15v40c0 8 7 15 15 15h29c8 0 15 -7 15 -15v-40z
M385 15c0 -8 -7 -15 -15 -15h-29c-8 0 -15 7 -15 15v40c0 8 7 15 15 15h29c8 0 15 -7 15 -15v-40zM178 175c0 -8 -7 -15 -15 -15h-29c-8 0 -15 7 -15 15v40c0 8 7 15 15 15h29c8 0 15 -7 15 -15v-40zM316 15c0 -8 -7 -15 -15 -15h-29c-8 0 -15 7 -15 15v40c0 8 7 15 15 15
h29c8 0 15 -7 15 -15v-40zM247 15c0 -8 -7 -15 -15 -15h-29c-8 0 -15 7 -15 15v40c0 8 7 15 15 15h29c8 0 15 -7 15 -15v-40zM109 95c0 -8 -7 -15 -15 -15h-29c-8 0 -15 7 -15 15v40c0 8 7 15 15 15h29c8 0 15 -7 15 -15v-40zM178 15c0 -8 -7 -15 -15 -15h-29
c-8 0 -15 7 -15 15v40c0 8 7 15 15 15h29c8 0 15 -7 15 -15v-40zM109 15c0 -8 -7 -15 -15 -15h-29c-8 0 -15 7 -15 15v40c0 8 7 15 15 15h29c8 0 15 -7 15 -15v-40z" />
    <glyph glyph-name="bracketleft" unicode="[" horiz-adv-x="228" 
d="M178 495c0 -8 -7 -15 -15 -15h-29c-8 0 -15 7 -15 15v40c0 8 7 15 15 15h29c8 0 15 -7 15 -15v-40zM109 495c0 -8 -7 -15 -15 -15h-29c-8 0 -15 7 -15 15v40c0 8 7 15 15 15h29c8 0 15 -7 15 -15v-40zM109 415c0 -8 -7 -15 -15 -15h-29c-8 0 -15 7 -15 15v40
c0 8 7 15 15 15h29c8 0 15 -7 15 -15v-40zM109 335c0 -8 -7 -15 -15 -15h-29c-8 0 -15 7 -15 15v40c0 8 7 15 15 15h29c8 0 15 -7 15 -15v-40zM109 255c0 -8 -7 -15 -15 -15h-29c-8 0 -15 7 -15 15v40c0 8 7 15 15 15h29c8 0 15 -7 15 -15v-40zM109 175c0 -8 -7 -15 -15 -15
h-29c-8 0 -15 7 -15 15v40c0 8 7 15 15 15h29c8 0 15 -7 15 -15v-40zM109 95c0 -8 -7 -15 -15 -15h-29c-8 0 -15 7 -15 15v40c0 8 7 15 15 15h29c8 0 15 -7 15 -15v-40zM178 15c0 -8 -7 -15 -15 -15h-29c-8 0 -15 7 -15 15v40c0 8 7 15 15 15h29c8 0 15 -7 15 -15v-40z
M109 15c0 -8 -7 -15 -15 -15h-29c-8 0 -15 7 -15 15v40c0 8 7 15 15 15h29c8 0 15 -7 15 -15v-40z" />
    <glyph glyph-name="backslash" unicode="\" 
d="M109 495c0 -8 -7 -15 -15 -15h-29c-8 0 -15 7 -15 15v40c0 8 7 15 15 15h29c8 0 15 -7 15 -15v-40zM109 415c0 -8 -7 -15 -15 -15h-29c-8 0 -15 7 -15 15v40c0 8 7 15 15 15h29c8 0 15 -7 15 -15v-40zM178 335c0 -8 -7 -15 -15 -15h-29c-8 0 -15 7 -15 15v40
c0 8 7 15 15 15h29c8 0 15 -7 15 -15c0 -10 -1 -27 0 -40zM247 255c0 -8 -7 -15 -15 -15h-29c-8 0 -15 7 -15 15v40c0 8 7 15 15 15h29c8 0 15 -7 15 -15v-40zM316 175c0 -8 -7 -15 -15 -15h-29c-8 0 -15 7 -15 15v40c0 8 7 15 15 15h29c8 0 15 -7 15 -15v-40zM385 95
c0 -8 -7 -15 -15 -15h-29c-8 0 -15 7 -15 15v40c0 8 7 15 15 15h29c8 0 15 -7 15 -15v-40zM385 15c0 -8 -7 -15 -15 -15h-29c-8 0 -15 7 -15 15v40c0 8 7 15 15 15h29c8 0 15 -7 15 -15v-40z" />
    <glyph glyph-name="bracketright" unicode="]" horiz-adv-x="228" 
d="M178 495c0 -8 -7 -15 -15 -15h-29c-8 0 -15 7 -15 15v40c0 8 7 15 15 15h29c8 0 15 -7 15 -15v-40zM109 495c0 -8 -7 -15 -15 -15h-29c-8 0 -15 7 -15 15v40c0 8 7 15 15 15h29c8 0 15 -7 15 -15v-40zM178 415c0 -8 -7 -15 -15 -15h-29c-8 0 -15 7 -15 15v40
c0 8 7 15 15 15h29c8 0 15 -7 15 -15v-40zM178 335c0 -8 -7 -15 -15 -15h-29c-8 0 -15 7 -15 15v40c0 8 7 15 15 15h29c8 0 15 -7 15 -15v-40zM178 255c0 -8 -7 -15 -15 -15h-29c-8 0 -15 7 -15 15v40c0 8 7 15 15 15h29c8 0 15 -7 15 -15v-40zM178 175c0 -8 -7 -15 -15 -15
h-29c-8 0 -15 7 -15 15v40c0 8 7 15 15 15h29c8 0 15 -7 15 -15v-40zM178 95c0 -8 -7 -15 -15 -15h-29c-8 0 -15 7 -15 15v40c0 8 7 15 15 15h29c8 0 15 -7 15 -15v-40zM178 15c0 -8 -7 -15 -15 -15h-29c-8 0 -15 7 -15 15v40c0 8 7 15 15 15h29c8 0 15 -7 15 -15v-40z
M109 15c0 -8 -7 -15 -15 -15h-29c-8 0 -15 7 -15 15v40c0 8 7 15 15 15h29c8 0 15 -7 15 -15v-40z" />
    <glyph glyph-name="asciicircum" unicode="^" 
d="M247 495c0 -8 -7 -15 -15 -15h-29c-8 0 -15 7 -15 15v40c0 8 7 15 15 15h29c8 0 15 -7 15 -15v-40zM316 415c0 -8 -7 -15 -15 -15h-29c-8 0 -15 7 -15 15v40c0 8 7 15 15 15h29c8 0 15 -7 15 -15v-40zM385 335c0 -8 -7 -15 -15 -15h-29c-8 0 -15 7 -15 15v40
c0 8 7 15 15 15h29c8 0 15 -7 15 -15v-40zM178 415c0 -8 -7 -15 -15 -15h-29c-8 0 -15 7 -15 15v40c0 8 7 15 15 15h29c8 0 15 -7 15 -15v-40zM109 335c0 -8 -7 -15 -15 -15h-29c-8 0 -15 7 -15 15v40c0 8 7 15 15 15h29c8 0 15 -7 15 -15v-40z" />
    <glyph glyph-name="underscore" unicode="_" horiz-adv-x="504" 
d="M385 -145c0 -8 -7 -15 -15 -15h-29c-8 0 -15 7 -15 15v40c0 8 7 15 15 15h29c8 0 15 -7 15 -15v-40zM316 -145c0 -8 -7 -15 -15 -15h-29c-8 0 -15 7 -15 15v40c0 8 7 15 15 15h29c8 0 15 -7 15 -15v-40zM247 -145c0 -8 -7 -15 -15 -15h-29c-8 0 -15 7 -15 15v40
c0 8 7 15 15 15h29c8 0 15 -7 15 -15v-40zM178 -145c0 -8 -7 -15 -15 -15h-29c-8 0 -15 7 -15 15v40c0 8 7 15 15 15h29c8 0 15 -7 15 -15v-40zM109 -145c0 -8 -7 -15 -15 -15h-29c-8 0 -15 7 -15 15v40c0 8 7 15 15 15h29c8 0 15 -7 15 -15v-40zM454 -145
c0 -8 -7 -15 -15 -15h-29c-8 0 -15 7 -15 15v40c0 8 7 15 15 15h29c8 0 15 -7 15 -15v-40z" />
    <glyph glyph-name="grave" unicode="`" 
d="M247 495c0 -8 -7 -15 -15 -15h-29c-8 0 -15 7 -15 15v40c0 8 7 15 15 15h29c8 0 15 -7 15 -15v-40zM178 495c0 -8 -7 -15 -15 -15h-29c-8 0 -15 7 -15 15v40c0 8 7 15 15 15h29c8 0 15 -7 15 -15v-40zM109 495c0 -8 -7 -15 -15 -15h-29c-8 0 -15 7 -15 15v40
c0 8 7 15 15 15h29c8 0 15 -7 15 -15v-40z" />
    <glyph glyph-name="a.alt" 
d="M247 335c0 -8 -7 -15 -15 -15h-29c-8 0 -15 7 -15 15v40c0 8 7 15 15 15h29c8 0 15 -7 15 -15v-40zM316 255c0 -8 -7 -15 -15 -15h-29c-8 0 -15 7 -15 15v40c0 8 7 15 15 15h29c8 0 15 -7 15 -15v-40zM385 175c0 -8 -7 -15 -15 -15h-29c-8 0 -15 7 -15 15v40
c0 8 7 15 15 15h29c8 0 15 -7 15 -15v-40zM178 255c0 -8 -7 -15 -15 -15h-29c-8 0 -15 7 -15 15v40c0 8 7 15 15 15h29c8 0 15 -7 15 -15v-40zM385 95c0 -8 -7 -15 -15 -15h-29c-8 0 -15 7 -15 15v40c0 8 7 15 15 15h29c8 0 15 -7 15 -15v-40zM316 95c0 -8 -7 -15 -15 -15
h-29c-8 0 -15 7 -15 15v40c0 8 7 15 15 15h29c8 0 15 -7 15 -15v-40zM247 95c0 -8 -7 -15 -15 -15h-29c-8 0 -15 7 -15 15v40c0 8 7 15 15 15h29c8 0 15 -7 15 -15v-40zM385 15c0 -8 -7 -15 -15 -15h-29c-8 0 -15 7 -15 15v40c0 8 7 15 15 15h29c8 0 15 -7 15 -15v-40z
M109 175c0 -8 -7 -15 -15 -15h-29c-8 0 -15 7 -15 15v40c0 8 7 15 15 15h29c8 0 15 -7 15 -15v-40zM178 95c0 -8 -7 -15 -15 -15h-29c-8 0 -15 7 -15 15v40c0 8 7 15 15 15h29c8 0 15 -7 15 -15v-40zM109 95c0 -8 -7 -15 -15 -15h-29c-8 0 -15 7 -15 15v40c0 8 7 15 15 15
h29c8 0 15 -7 15 -15v-40zM109 15c0 -8 -7 -15 -15 -15h-29c-8 0 -15 7 -15 15v40c0 8 7 15 15 15h29c8 0 15 -7 15 -15v-40z" />
    <glyph glyph-name="b" unicode="b" 
d="M316 495c0 -8 -7 -15 -15 -15h-29c-8 0 -15 7 -15 15v40c0 8 7 15 15 15h29c8 0 15 -7 15 -15v-40zM385 415c0 -8 -7 -15 -15 -15h-29c-8 0 -15 7 -15 15v40c0 8 7 15 15 15h29c8 0 15 -7 15 -15v-40zM247 495c0 -8 -7 -15 -15 -15h-29c-8 0 -15 7 -15 15v40
c0 8 7 15 15 15h29c8 0 15 -7 15 -15v-40zM385 335c0 -8 -7 -15 -15 -15h-29c-8 0 -15 7 -15 15v40c0 8 7 15 15 15h29c8 0 15 -7 15 -15v-40zM178 495c0 -8 -7 -15 -15 -15h-29c-8 0 -15 7 -15 15v40c0 8 7 15 15 15h29c8 0 15 -7 15 -15v-40zM109 495c0 -8 -7 -15 -15 -15
h-29c-8 0 -15 7 -15 15v40c0 8 7 15 15 15h29c8 0 15 -7 15 -15v-40zM316 255c0 -8 -7 -15 -15 -15h-29c-8 0 -15 7 -15 15v40c0 8 7 15 15 15h29c8 0 15 -7 15 -15v-40zM385 175c0 -8 -7 -15 -15 -15h-29c-8 0 -15 7 -15 15v40c0 8 7 15 15 15h29c8 0 15 -7 15 -15v-40z
M109 415c0 -8 -7 -15 -15 -15h-29c-8 0 -15 7 -15 15v40c0 8 7 15 15 15h29c8 0 15 -7 15 -15v-40zM247 255c0 -8 -7 -15 -15 -15h-29c-8 0 -15 7 -15 15v40c0 8 7 15 15 15h29c8 0 15 -7 15 -15v-40zM385 95c0 -8 -7 -15 -15 -15h-29c-8 0 -15 7 -15 15v40c0 8 7 15 15 15
h29c8 0 15 -7 15 -15v-40zM109 335c0 -8 -7 -15 -15 -15h-29c-8 0 -15 7 -15 15v40c0 8 7 15 15 15h29c8 0 15 -7 15 -15v-40zM178 255c0 -8 -7 -15 -15 -15h-29c-8 0 -15 7 -15 15v40c0 8 7 15 15 15h29c8 0 15 -7 15 -15v-40zM109 255c0 -8 -7 -15 -15 -15h-29
c-8 0 -15 7 -15 15v40c0 8 7 15 15 15h29c8 0 15 -7 15 -15v-40zM316 15c0 -8 -7 -15 -15 -15h-29c-8 0 -15 7 -15 15v40c0 8 7 15 15 15h29c8 0 15 -7 15 -15v-40zM109 175c0 -8 -7 -15 -15 -15h-29c-8 0 -15 7 -15 15v40c0 8 7 15 15 15h29c8 0 15 -7 15 -15v-40zM247 15
c0 -8 -7 -15 -15 -15h-29c-8 0 -15 7 -15 15v40c0 8 7 15 15 15h29c8 0 15 -7 15 -15v-40zM109 95c0 -8 -7 -15 -15 -15h-29c-8 0 -15 7 -15 15v40c0 8 7 15 15 15h29c8 0 15 -7 15 -15v-40zM178 15c0 -8 -7 -15 -15 -15h-29c-8 0 -15 7 -15 15v40c0 8 7 15 15 15h29
c8 0 15 -7 15 -15v-40zM109 15c0 -8 -7 -15 -15 -15h-29c-8 0 -15 7 -15 15v40c0 8 7 15 15 15h29c8 0 15 -7 15 -15v-40z" />
    <glyph glyph-name="c.alt" 
d="M316 495c0 -8 -7 -15 -15 -15h-29c-8 0 -15 7 -15 15v40c0 8 7 15 15 15h29c8 0 15 -7 15 -15v-40zM385 415c0 -8 -7 -15 -15 -15h-29c-8 0 -15 7 -15 15v40c0 8 7 15 15 15h29c8 0 15 -7 15 -15v-40zM247 495c0 -8 -7 -15 -15 -15h-29c-8 0 -15 7 -15 15v40
c0 8 7 15 15 15h29c8 0 15 -7 15 -15v-40zM178 495c0 -8 -7 -15 -15 -15h-29c-8 0 -15 7 -15 15v40c0 8 7 15 15 15h29c8 0 15 -7 15 -15v-40zM109 415c0 -8 -7 -15 -15 -15h-29c-8 0 -15 7 -15 15v40c0 8 7 15 15 15h29c8 0 15 -7 15 -15v-40zM385 255c0 -8 -7 -15 -15 -15
h-29c-8 0 -15 7 -15 15v40c0 8 7 15 15 15h29c8 0 15 -7 15 -15v-40zM109 335c0 -8 -7 -15 -15 -15h-29c-8 0 -15 7 -15 15v40c0 8 7 15 15 15h29c8 0 15 -7 15 -15v-40zM109 255c0 -8 -7 -15 -15 -15h-29c-8 0 -15 7 -15 15v40c0 8 7 15 15 15h29c8 0 15 -7 15 -15v-40z
M316 175c0 -8 -7 -15 -15 -15h-29c-8 0 -15 7 -15 15v40c0 8 7 15 15 15h29c8 0 15 -7 15 -15v-40zM247 175c0 -8 -7 -15 -15 -15h-29c-8 0 -15 7 -15 15v40c0 8 7 15 15 15h29c8 0 15 -7 15 -15v-40zM178 175c0 -8 -7 -15 -15 -15h-29c-8 0 -15 7 -15 15v40c0 8 7 15 15 15
h29c8 0 15 -7 15 -15v-40z" />
    <glyph glyph-name="d" unicode="d" 
d="M316 495c0 -8 -7 -15 -15 -15h-29c-8 0 -15 7 -15 15v40c0 8 7 15 15 15h29c8 0 15 -7 15 -15v-40zM385 415c0 -8 -7 -15 -15 -15h-29c-8 0 -15 7 -15 15v40c0 8 7 15 15 15h29c8 0 15 -7 15 -15v-40zM247 495c0 -8 -7 -15 -15 -15h-29c-8 0 -15 7 -15 15v40
c0 8 7 15 15 15h29c8 0 15 -7 15 -15v-40zM385 335c0 -8 -7 -15 -15 -15h-29c-8 0 -15 7 -15 15v40c0 8 7 15 15 15h29c8 0 15 -7 15 -15v-40zM178 495c0 -8 -7 -15 -15 -15h-29c-8 0 -15 7 -15 15v40c0 8 7 15 15 15h29c8 0 15 -7 15 -15v-40zM385 255c0 -8 -7 -15 -15 -15
h-29c-8 0 -15 7 -15 15v40c0 8 7 15 15 15h29c8 0 15 -7 15 -15v-40zM109 495c0 -8 -7 -15 -15 -15h-29c-8 0 -15 7 -15 15v40c0 8 7 15 15 15h29c8 0 15 -7 15 -15v-40zM385 175c0 -8 -7 -15 -15 -15h-29c-8 0 -15 7 -15 15v40c0 8 7 15 15 15h29c8 0 15 -7 15 -15v-40z
M109 415c0 -8 -7 -15 -15 -15h-29c-8 0 -15 7 -15 15v40c0 8 7 15 15 15h29c8 0 15 -7 15 -15v-40zM385 95c0 -8 -7 -15 -15 -15h-29c-8 0 -15 7 -15 15v40c0 8 7 15 15 15h29c8 0 15 -7 15 -15v-40zM109 335c0 -8 -7 -15 -15 -15h-29c-8 0 -15 7 -15 15v40c0 8 7 15 15 15
h29c8 0 15 -7 15 -15v-40zM109 255c0 -8 -7 -15 -15 -15h-29c-8 0 -15 7 -15 15v40c0 8 7 15 15 15h29c8 0 15 -7 15 -15v-40zM316 15c0 -8 -7 -15 -15 -15h-29c-8 0 -15 7 -15 15v40c0 8 7 15 15 15h29c8 0 15 -7 15 -15v-40zM109 175c0 -8 -7 -15 -15 -15h-29
c-8 0 -15 7 -15 15v40c0 8 7 15 15 15h29c8 0 15 -7 15 -15v-40zM247 15c0 -8 -7 -15 -15 -15h-29c-8 0 -15 7 -15 15v40c0 8 7 15 15 15h29c8 0 15 -7 15 -15v-40zM109 95c0 -8 -7 -15 -15 -15h-29c-8 0 -15 7 -15 15v40c0 8 7 15 15 15h29c8 0 15 -7 15 -15v-40zM178 15
c0 -8 -7 -15 -15 -15h-29c-8 0 -15 7 -15 15v40c0 8 7 15 15 15h29c8 0 15 -7 15 -15v-40zM109 15c0 -8 -7 -15 -15 -15h-29c-8 0 -15 7 -15 15v40c0 8 7 15 15 15h29c8 0 15 -7 15 -15v-40z" />
    <glyph glyph-name="e.alt" 
d="M385 335c0 -8 -7 -15 -15 -15h-29c-8 0 -15 7 -15 15v40c0 8 7 15 15 15h29c8 0 15 -7 15 -15v-40zM316 335c0 -8 -7 -15 -15 -15h-29c-8 0 -15 7 -15 15v40c0 8 7 15 15 15h29c8 0 15 -7 15 -15v-40zM247 335c0 -8 -7 -15 -15 -15h-29c-8 0 -15 7 -15 15v40
c0 8 7 15 15 15h29c8 0 15 -7 15 -15v-40zM178 335c0 -8 -7 -15 -15 -15h-29c-8 0 -15 7 -15 15v40c0 8 7 15 15 15h29c8 0 15 -7 15 -15v-40zM109 335c0 -8 -7 -15 -15 -15h-29c-8 0 -15 7 -15 15v40c0 8 7 15 15 15h29c8 0 15 -7 15 -15v-40zM316 175c0 -8 -7 -15 -15 -15
h-29c-8 0 -15 7 -15 15v40c0 8 7 15 15 15h29c8 0 15 -7 15 -15v-40zM109 255c0 -8 -7 -15 -15 -15h-29c-8 0 -15 7 -15 15v40c0 8 7 15 15 15h29c8 0 15 -7 15 -15v-40zM247 175c0 -8 -7 -15 -15 -15h-29c-8 0 -15 7 -15 15v40c0 8 7 15 15 15h29c8 0 15 -7 15 -15v-40z
M178 175c0 -8 -7 -15 -15 -15h-29c-8 0 -15 7 -15 15v40c0 8 7 15 15 15h29c8 0 15 -7 15 -15v-40zM385 15c0 -8 -7 -15 -15 -15h-29c-8 0 -15 7 -15 15v40c0 8 7 15 15 15h29c8 0 15 -7 15 -15v-40zM109 175c0 -8 -7 -15 -15 -15h-29c-8 0 -15 7 -15 15v40c0 8 7 15 15 15
h29c8 0 15 -7 15 -15v-40zM316 15c0 -8 -7 -15 -15 -15h-29c-8 0 -15 7 -15 15v40c0 8 7 15 15 15h29c8 0 15 -7 15 -15v-40zM247 15c0 -8 -7 -15 -15 -15h-29c-8 0 -15 7 -15 15v40c0 8 7 15 15 15h29c8 0 15 -7 15 -15v-40zM109 95c0 -8 -7 -15 -15 -15h-29
c-8 0 -15 7 -15 15v40c0 8 7 15 15 15h29c8 0 15 -7 15 -15v-40zM178 15c0 -8 -7 -15 -15 -15h-29c-8 0 -15 7 -15 15v40c0 8 7 15 15 15h29c8 0 15 -7 15 -15v-40zM109 15c0 -8 -7 -15 -15 -15h-29c-8 0 -15 7 -15 15v40c0 8 7 15 15 15h29c8 0 15 -7 15 -15v-40z" />
    <glyph glyph-name="f" unicode="f" 
d="M385 495c0 -8 -7 -15 -15 -15h-29c-8 0 -15 7 -15 15v40c0 8 7 15 15 15h29c8 0 15 -7 15 -15v-40zM316 495c0 -8 -7 -15 -15 -15h-29c-8 0 -15 7 -15 15v40c0 8 7 15 15 15h29c8 0 15 -7 15 -15v-40zM247 495c0 -8 -7 -15 -15 -15h-29c-8 0 -15 7 -15 15v40
c0 8 7 15 15 15h29c8 0 15 -7 15 -15v-40zM178 495c0 -8 -7 -15 -15 -15h-29c-8 0 -15 7 -15 15v40c0 8 7 15 15 15h29c8 0 15 -7 15 -15v-40zM109 495c0 -8 -7 -15 -15 -15h-29c-8 0 -15 7 -15 15v40c0 8 7 15 15 15h29c8 0 15 -7 15 -15v-40zM316 255c0 -8 -7 -15 -15 -15
h-29c-8 0 -15 7 -15 15v40c0 8 7 15 15 15h29c8 0 15 -7 15 -15v-40zM109 415c0 -8 -7 -15 -15 -15h-29c-8 0 -15 7 -15 15v40c0 8 7 15 15 15h29c8 0 15 -7 15 -15v-40zM247 255c0 -8 -7 -15 -15 -15h-29c-8 0 -15 7 -15 15v40c0 8 7 15 15 15h29c8 0 15 -7 15 -15v-40z
M109 335c0 -8 -7 -15 -15 -15h-29c-8 0 -15 7 -15 15v40c0 8 7 15 15 15h29c8 0 15 -7 15 -15v-40zM178 255c0 -8 -7 -15 -15 -15h-29c-8 0 -15 7 -15 15v40c0 8 7 15 15 15h29c8 0 15 -7 15 -15v-40zM109 255c0 -8 -7 -15 -15 -15h-29c-8 0 -15 7 -15 15v40c0 8 7 15 15 15
h29c8 0 15 -7 15 -15v-40zM109 175c0 -8 -7 -15 -15 -15h-29c-8 0 -15 7 -15 15v40c0 8 7 15 15 15h29c8 0 15 -7 15 -15v-40zM109 95c0 -8 -7 -15 -15 -15h-29c-8 0 -15 7 -15 15v40c0 8 7 15 15 15h29c8 0 15 -7 15 -15v-40zM109 15c0 -8 -7 -15 -15 -15h-29
c-8 0 -15 7 -15 15v40c0 8 7 15 15 15h29c8 0 15 -7 15 -15v-40z" />
    <glyph glyph-name="g" unicode="g" 
d="M385 495c0 -8 -7 -15 -15 -15h-29c-8 0 -15 7 -15 15v40c0 8 7 15 15 15h29c8 0 15 -7 15 -15v-40zM316 495c0 -8 -7 -15 -15 -15h-29c-8 0 -15 7 -15 15v40c0 8 7 15 15 15h29c8 0 15 -7 15 -15v-40zM247 495c0 -8 -7 -15 -15 -15h-29c-8 0 -15 7 -15 15v40
c0 8 7 15 15 15h29c8 0 15 -7 15 -15v-40zM178 495c0 -8 -7 -15 -15 -15h-29c-8 0 -15 7 -15 15v40c0 8 7 15 15 15h29c8 0 15 -7 15 -15v-40zM385 255c0 -8 -7 -15 -15 -15h-29c-8 0 -15 7 -15 15v40c0 8 7 15 15 15h29c8 0 15 -7 15 -15v-40zM316 255c0 -8 -7 -15 -15 -15
h-29c-8 0 -15 7 -15 15v40c0 8 7 15 15 15h29c8 0 15 -7 15 -15v-40zM385 175c0 -8 -7 -15 -15 -15h-29c-8 0 -15 7 -15 15v40c0 8 7 15 15 15h29c8 0 15 -7 15 -15v-40zM109 415c0 -8 -7 -15 -15 -15h-29c-8 0 -15 7 -15 15v40c0 8 7 15 15 15h29c8 0 15 -7 15 -15v-40z
M247 255c0 -8 -7 -15 -15 -15h-29c-8 0 -15 7 -15 15v40c0 8 7 15 15 15h29c8 0 15 -7 15 -15v-40zM385 95c0 -8 -7 -15 -15 -15h-29c-8 0 -15 7 -15 15v40c0 8 7 15 15 15h29c8 0 15 -7 15 -15v-40zM109 335c0 -8 -7 -15 -15 -15h-29c-8 0 -15 7 -15 15v40c0 8 7 15 15 15
h29c8 0 15 -7 15 -15v-40zM385 15c0 -8 -7 -15 -15 -15h-29c-8 0 -15 7 -15 15v40c0 8 7 15 15 15h29c8 0 15 -7 15 -15v-40zM109 255c0 -8 -7 -15 -15 -15h-29c-8 0 -15 7 -15 15v40c0 8 7 15 15 15h29c8 0 15 -7 15 -15v-40zM316 15c0 -8 -7 -15 -15 -15h-29
c-8 0 -15 7 -15 15v40c0 8 7 15 15 15h29c8 0 15 -7 15 -15v-40zM109 175c0 -8 -7 -15 -15 -15h-29c-8 0 -15 7 -15 15v40c0 8 7 15 15 15h29c8 0 15 -7 15 -15v-40zM247 15c0 -8 -7 -15 -15 -15h-29c-8 0 -15 7 -15 15v40c0 8 7 15 15 15h29c8 0 15 -7 15 -15v-40zM109 95
c0 -8 -7 -15 -15 -15h-29c-8 0 -15 7 -15 15v40c0 8 7 15 15 15h29c8 0 15 -7 15 -15v-40zM178 15c0 -8 -7 -15 -15 -15h-29c-8 0 -15 7 -15 15v40c0 8 7 15 15 15h29c8 0 15 -7 15 -15v-40z" />
    <glyph glyph-name="h" unicode="h" 
d="M385 495c0 -8 -7 -15 -15 -15h-29c-8 0 -15 7 -15 15v40c0 8 7 15 15 15h29c8 0 15 -7 15 -15v-40zM385 415c0 -8 -7 -15 -15 -15h-29c-8 0 -15 7 -15 15v40c0 8 7 15 15 15h29c8 0 15 -7 15 -15v-40zM385 335c0 -8 -7 -15 -15 -15h-29c-8 0 -15 7 -15 15v40
c0 8 7 15 15 15h29c8 0 15 -7 15 -15v-40zM385 255c0 -8 -7 -15 -15 -15h-29c-8 0 -15 7 -15 15v40c0 8 7 15 15 15h29c8 0 15 -7 15 -15v-40zM109 495c0 -8 -7 -15 -15 -15h-29c-8 0 -15 7 -15 15v40c0 8 7 15 15 15h29c8 0 15 -7 15 -15v-40zM316 255c0 -8 -7 -15 -15 -15
h-29c-8 0 -15 7 -15 15v40c0 8 7 15 15 15h29c8 0 15 -7 15 -15v-40zM385 175c0 -8 -7 -15 -15 -15h-29c-8 0 -15 7 -15 15v40c0 8 7 15 15 15h29c8 0 15 -7 15 -15v-40zM109 415c0 -8 -7 -15 -15 -15h-29c-8 0 -15 7 -15 15v40c0 8 7 15 15 15h29c8 0 15 -7 15 -15v-40z
M247 255c0 -8 -7 -15 -15 -15h-29c-8 0 -15 7 -15 15v40c0 8 7 15 15 15h29c8 0 15 -7 15 -15v-40zM385 95c0 -8 -7 -15 -15 -15h-29c-8 0 -15 7 -15 15v40c0 8 7 15 15 15h29c8 0 15 -7 15 -15v-40zM109 335c0 -8 -7 -15 -15 -15h-29c-8 0 -15 7 -15 15v40c0 8 7 15 15 15
h29c8 0 15 -7 15 -15v-40zM178 255c0 -8 -7 -15 -15 -15h-29c-8 0 -15 7 -15 15v40c0 8 7 15 15 15h29c8 0 15 -7 15 -15v-40zM385 15c0 -8 -7 -15 -15 -15h-29c-8 0 -15 7 -15 15v40c0 8 7 15 15 15h29c8 0 15 -7 15 -15v-40zM109 255c0 -8 -7 -15 -15 -15h-29
c-8 0 -15 7 -15 15v40c0 8 7 15 15 15h29c8 0 15 -7 15 -15v-40zM109 175c0 -8 -7 -15 -15 -15h-29c-8 0 -15 7 -15 15v40c0 8 7 15 15 15h29c8 0 15 -7 15 -15v-40zM109 95c0 -8 -7 -15 -15 -15h-29c-8 0 -15 7 -15 15v40c0 8 7 15 15 15h29c8 0 15 -7 15 -15v-40zM109 15
c0 -8 -7 -15 -15 -15h-29c-8 0 -15 7 -15 15v40c0 8 7 15 15 15h29c8 0 15 -7 15 -15v-40z" />
    <glyph glyph-name="i" unicode="i" 
d="M385 495c0 -8 -7 -15 -15 -15h-29c-8 0 -15 7 -15 15v40c0 8 7 15 15 15h29c8 0 15 -7 15 -15v-40zM316 495c0 -8 -7 -15 -15 -15h-29c-8 0 -15 7 -15 15v40c0 8 7 15 15 15h29c8 0 15 -7 15 -15v-40zM247 495c0 -8 -7 -15 -15 -15h-29c-8 0 -15 7 -15 15v40
c0 8 7 15 15 15h29c8 0 15 -7 15 -15v-40zM178 495c0 -8 -7 -15 -15 -15h-29c-8 0 -15 7 -15 15v40c0 8 7 15 15 15h29c8 0 15 -7 15 -15v-40zM247 415c0 -8 -7 -15 -15 -15h-29c-8 0 -15 7 -15 15v40c0 8 7 15 15 15h29c8 0 15 -7 15 -15v-40zM109 495c0 -8 -7 -15 -15 -15
h-29c-8 0 -15 7 -15 15v40c0 8 7 15 15 15h29c8 0 15 -7 15 -15v-40zM247 335c0 -8 -7 -15 -15 -15h-29c-8 0 -15 7 -15 15v40c0 8 7 15 15 15h29c8 0 15 -7 15 -15v-40zM247 255c0 -8 -7 -15 -15 -15h-29c-8 0 -15 7 -15 15v40c0 8 7 15 15 15h29c8 0 15 -7 15 -15v-40z
M247 175c0 -8 -7 -15 -15 -15h-29c-8 0 -15 7 -15 15v40c0 8 7 15 15 15h29c8 0 15 -7 15 -15v-40zM385 15c0 -8 -7 -15 -15 -15h-29c-8 0 -15 7 -15 15v40c0 8 7 15 15 15h29c8 0 15 -7 15 -15v-40zM247 95c0 -8 -7 -15 -15 -15h-29c-8 0 -15 7 -15 15v40c0 8 7 15 15 15
h29c8 0 15 -7 15 -15v-40zM316 15c0 -8 -7 -15 -15 -15h-29c-8 0 -15 7 -15 15v40c0 8 7 15 15 15h29c8 0 15 -7 15 -15v-40zM247 15c0 -8 -7 -15 -15 -15h-29c-8 0 -15 7 -15 15v40c0 8 7 15 15 15h29c8 0 15 -7 15 -15v-40zM178 15c0 -8 -7 -15 -15 -15h-29
c-8 0 -15 7 -15 15v40c0 8 7 15 15 15h29c8 0 15 -7 15 -15v-40zM109 15c0 -8 -7 -15 -15 -15h-29c-8 0 -15 7 -15 15v40c0 8 7 15 15 15h29c8 0 15 -7 15 -15v-40z" />
    <glyph glyph-name="j" unicode="j" 
d="M385 495c0 -8 -7 -15 -15 -15h-29c-8 0 -15 7 -15 15v40c0 8 7 15 15 15h29c8 0 15 -7 15 -15v-40zM385 415c0 -8 -7 -15 -15 -15h-29c-8 0 -15 7 -15 15v40c0 8 7 15 15 15h29c8 0 15 -7 15 -15v-40zM385 335c0 -8 -7 -15 -15 -15h-29c-8 0 -15 7 -15 15v40
c0 8 7 15 15 15h29c8 0 15 -7 15 -15v-40zM385 255c0 -8 -7 -15 -15 -15h-29c-8 0 -15 7 -15 15v40c0 8 7 15 15 15h29c8 0 15 -7 15 -15v-40zM385 175c0 -8 -7 -15 -15 -15h-29c-8 0 -15 7 -15 15v40c0 8 7 15 15 15h29c8 0 15 -7 15 -15v-40zM385 95c0 -8 -7 -15 -15 -15
h-29c-8 0 -15 7 -15 15v40c0 8 7 15 15 15h29c8 0 15 -7 15 -15v-40zM316 15c0 -8 -7 -15 -15 -15h-29c-8 0 -15 7 -15 15v40c0 8 7 15 15 15h29c8 0 15 -7 15 -15v-40zM247 15c0 -8 -7 -15 -15 -15h-29c-8 0 -15 7 -15 15v40c0 8 7 15 15 15h29c8 0 15 -7 15 -15v-40z
M109 95c0 -8 -7 -15 -15 -15h-29c-8 0 -15 7 -15 15v40c0 8 7 15 15 15h29c8 0 15 -7 15 -15v-40zM178 15c0 -8 -7 -15 -15 -15h-29c-8 0 -15 7 -15 15v40c0 8 7 15 15 15h29c8 0 15 -7 15 -15v-40z" />
    <glyph glyph-name="k" unicode="k" 
d="M385 495c0 -8 -7 -15 -15 -15h-29c-8 0 -15 7 -15 15v40c0 8 7 15 15 15h29c8 0 15 -7 15 -15v-40zM316 415c0 -8 -7 -15 -15 -15h-29c-8 0 -15 7 -15 15v40c0 8 7 15 15 15h29c8 0 15 -7 15 -15v-40zM109 495c0 -8 -7 -15 -15 -15h-29c-8 0 -15 7 -15 15v40
c0 8 7 15 15 15h29c8 0 15 -7 15 -15v-40zM247 335c0 -8 -7 -15 -15 -15h-29c-8 0 -15 7 -15 15v40c0 8 7 15 15 15h29c8 0 15 -7 15 -15v-40zM109 415c0 -8 -7 -15 -15 -15h-29c-8 0 -15 7 -15 15v40c0 8 7 15 15 15h29c8 0 15 -7 15 -15v-40zM109 335c0 -8 -7 -15 -15 -15
h-29c-8 0 -15 7 -15 15v40c0 8 7 15 15 15h29c8 0 15 -7 15 -15v-40zM178 255c0 -8 -7 -15 -15 -15h-29c-8 0 -15 7 -15 15v40c0 8 7 15 15 15h29c8 0 15 -7 15 -15v-40zM247 175c0 -8 -7 -15 -15 -15h-29c-8 0 -15 7 -15 15v40c0 8 7 15 15 15h29c8 0 15 -7 15 -15v-40z
M316 95c0 -8 -7 -15 -15 -15h-29c-8 0 -15 7 -15 15v40c0 8 7 15 15 15h29c8 0 15 -7 15 -15v-40zM385 15c0 -8 -7 -15 -15 -15h-29c-8 0 -15 7 -15 15v40c0 8 7 15 15 15h29c8 0 15 -7 15 -15v-40zM109 255c0 -8 -7 -15 -15 -15h-29c-8 0 -15 7 -15 15v40c0 8 7 15 15 15
h29c8 0 15 -7 15 -15v-40zM109 175c0 -8 -7 -15 -15 -15h-29c-8 0 -15 7 -15 15v40c0 8 7 15 15 15h29c8 0 15 -7 15 -15v-40zM109 95c0 -8 -7 -15 -15 -15h-29c-8 0 -15 7 -15 15v40c0 8 7 15 15 15h29c8 0 15 -7 15 -15v-40zM109 15c0 -8 -7 -15 -15 -15h-29
c-8 0 -15 7 -15 15v40c0 8 7 15 15 15h29c8 0 15 -7 15 -15v-40z" />
    <glyph glyph-name="l" unicode="l" 
d="M109 495c0 -8 -7 -15 -15 -15h-29c-8 0 -15 7 -15 15v40c0 8 7 15 15 15h29c8 0 15 -7 15 -15v-40zM109 415c0 -8 -7 -15 -15 -15h-29c-8 0 -15 7 -15 15v40c0 8 7 15 15 15h29c8 0 15 -7 15 -15v-40zM109 335c0 -8 -7 -15 -15 -15h-29c-8 0 -15 7 -15 15v40
c0 8 7 15 15 15h29c8 0 15 -7 15 -15v-40zM385 15c0 -8 -7 -15 -15 -15h-29c-8 0 -15 7 -15 15v40c0 8 7 15 15 15h29c8 0 15 -7 15 -15v-40zM109 255c0 -8 -7 -15 -15 -15h-29c-8 0 -15 7 -15 15v40c0 8 7 15 15 15h29c8 0 15 -7 15 -15v-40zM316 15c0 -8 -7 -15 -15 -15
h-29c-8 0 -15 7 -15 15v40c0 8 7 15 15 15h29c8 0 15 -7 15 -15v-40zM109 175c0 -8 -7 -15 -15 -15h-29c-8 0 -15 7 -15 15v40c0 8 7 15 15 15h29c8 0 15 -7 15 -15v-40zM247 15c0 -8 -7 -15 -15 -15h-29c-8 0 -15 7 -15 15v40c0 8 7 15 15 15h29c8 0 15 -7 15 -15v-40z
M109 95c0 -8 -7 -15 -15 -15h-29c-8 0 -15 7 -15 15v40c0 8 7 15 15 15h29c8 0 15 -7 15 -15v-40zM178 15c0 -8 -7 -15 -15 -15h-29c-8 0 -15 7 -15 15v40c0 8 7 15 15 15h29c8 0 15 -7 15 -15v-40zM109 15c0 -8 -7 -15 -15 -15h-29c-8 0 -15 7 -15 15v40c0 8 7 15 15 15h29
c8 0 15 -7 15 -15v-40z" />
    <glyph glyph-name="m" unicode="m" 
d="M385 495c0 -8 -7 -15 -15 -15h-29c-8 0 -15 7 -15 15v40c0 8 7 15 15 15h29c8 0 15 -7 15 -15v-40zM385 415c0 -8 -7 -15 -15 -15h-29c-8 0 -15 7 -15 15v40c0 8 7 15 15 15h29c8 0 15 -7 15 -15v-40zM316 415c0 -8 -7 -15 -15 -15h-29c-8 0 -15 7 -15 15v40
c0 8 7 15 15 15h29c8 0 15 -7 15 -15v-40zM385 335c0 -8 -7 -15 -15 -15h-29c-8 0 -15 7 -15 15v40c0 8 7 15 15 15h29c8 0 15 -7 15 -15v-40zM385 255c0 -8 -7 -15 -15 -15h-29c-8 0 -15 7 -15 15v40c0 8 7 15 15 15h29c8 0 15 -7 15 -15v-40zM109 495c0 -8 -7 -15 -15 -15
h-29c-8 0 -15 7 -15 15v40c0 8 7 15 15 15h29c8 0 15 -7 15 -15v-40zM178 415c0 -8 -7 -15 -15 -15h-29c-8 0 -15 7 -15 15v40c0 8 7 15 15 15h29c8 0 15 -7 15 -15v-40zM247 335c0 -8 -7 -15 -15 -15h-29c-8 0 -15 7 -15 15v40c0 8 7 15 15 15h29c8 0 15 -7 15 -15v-40z
M385 175c0 -8 -7 -15 -15 -15h-29c-8 0 -15 7 -15 15v40c0 8 7 15 15 15h29c8 0 15 -7 15 -15v-40zM109 415c0 -8 -7 -15 -15 -15h-29c-8 0 -15 7 -15 15v40c0 8 7 15 15 15h29c8 0 15 -7 15 -15v-40zM247 255c0 -8 -7 -15 -15 -15h-29c-8 0 -15 7 -15 15v40c0 8 7 15 15 15
h29c8 0 15 -7 15 -15v-40zM385 95c0 -8 -7 -15 -15 -15h-29c-8 0 -15 7 -15 15v40c0 8 7 15 15 15h29c8 0 15 -7 15 -15v-40zM109 335c0 -8 -7 -15 -15 -15h-29c-8 0 -15 7 -15 15v40c0 8 7 15 15 15h29c8 0 15 -7 15 -15v-40zM385 15c0 -8 -7 -15 -15 -15h-29
c-8 0 -15 7 -15 15v40c0 8 7 15 15 15h29c8 0 15 -7 15 -15v-40zM109 255c0 -8 -7 -15 -15 -15h-29c-8 0 -15 7 -15 15v40c0 8 7 15 15 15h29c8 0 15 -7 15 -15v-40zM109 175c0 -8 -7 -15 -15 -15h-29c-8 0 -15 7 -15 15v40c0 8 7 15 15 15h29c8 0 15 -7 15 -15v-40zM109 95
c0 -8 -7 -15 -15 -15h-29c-8 0 -15 7 -15 15v40c0 8 7 15 15 15h29c8 0 15 -7 15 -15v-40zM109 15c0 -8 -7 -15 -15 -15h-29c-8 0 -15 7 -15 15v40c0 8 7 15 15 15h29c8 0 15 -7 15 -15v-40z" />
    <glyph glyph-name="n.alt" 
d="M385 335c0 -8 -7 -15 -15 -15h-29c-8 0 -15 7 -15 15v40c0 8 7 15 15 15h29c8 0 15 -7 15 -15v-40zM385 255c0 -8 -7 -15 -15 -15h-29c-8 0 -15 7 -15 15v40c0 8 7 15 15 15h29c8 0 15 -7 15 -15v-40zM178 255c0 -8 -7 -15 -15 -15h-29c-8 0 -15 7 -15 15v40
c0 8 7 15 15 15h29c8 0 15 -7 15 -15v-40zM385 175c0 -8 -7 -15 -15 -15h-29c-8 0 -15 7 -15 15v40c0 8 7 15 15 15h29c8 0 15 -7 15 -15v-40zM316 95c0 -8 -7 -15 -15 -15h-29c-8 0 -15 7 -15 15v40c0 8 7 15 15 15h29c8 0 15 -7 15 -15v-40zM385 95c0 -8 -7 -15 -15 -15
h-29c-8 0 -15 7 -15 15v40c0 8 7 15 15 15h29c8 0 15 -7 15 -15v-40zM109 335c0 -8 -7 -15 -15 -15h-29c-8 0 -15 7 -15 15v40c0 8 7 15 15 15h29c8 0 15 -7 15 -15v-40zM247 175c0 -8 -7 -15 -15 -15h-29c-8 0 -15 7 -15 15v40c0 8 7 15 15 15h29c8 0 15 -7 15 -15v-40z
M385 15c0 -8 -7 -15 -15 -15h-29c-8 0 -15 7 -15 15v40c0 8 7 15 15 15h29c8 0 15 -7 15 -15v-40zM109 255c0 -8 -7 -15 -15 -15h-29c-8 0 -15 7 -15 15v40c0 8 7 15 15 15h29c8 0 15 -7 15 -15v-40zM109 175c0 -8 -7 -15 -15 -15h-29c-8 0 -15 7 -15 15v40c0 8 7 15 15 15
h29c8 0 15 -7 15 -15v-40zM109 95c0 -8 -7 -15 -15 -15h-29c-8 0 -15 7 -15 15v40c0 8 7 15 15 15h29c8 0 15 -7 15 -15v-40zM109 15c0 -8 -7 -15 -15 -15h-29c-8 0 -15 7 -15 15v40c0 8 7 15 15 15h29c8 0 15 -7 15 -15v-40z" />
    <glyph glyph-name="o.alt" 
d="M316 335c0 -8 -7 -15 -15 -15h-29c-8 0 -15 7 -15 15v40c0 8 7 15 15 15h29c8 0 15 -7 15 -15v-40zM385 255c0 -8 -7 -15 -15 -15h-29c-8 0 -15 7 -15 15v40c0 8 7 15 15 15h29c8 0 15 -7 15 -15v-40zM247 335c0 -8 -7 -15 -15 -15h-29c-8 0 -15 7 -15 15v40
c0 8 7 15 15 15h29c8 0 15 -7 15 -15v-40zM385 175c0 -8 -7 -15 -15 -15h-29c-8 0 -15 7 -15 15v40c0 8 7 15 15 15h29c8 0 15 -7 15 -15v-40zM178 335c0 -8 -7 -15 -15 -15h-29c-8 0 -15 7 -15 15v40c0 8 7 15 15 15h29c8 0 15 -7 15 -15v-40zM109 255c0 -8 -7 -15 -15 -15
h-29c-8 0 -15 7 -15 15v40c0 8 7 15 15 15h29c8 0 15 -7 15 -15v-40zM385 95c0 -8 -7 -15 -15 -15h-29c-8 0 -15 7 -15 15v40c0 8 7 15 15 15h29c8 0 15 -7 15 -15v-40zM109 175c0 -8 -7 -15 -15 -15h-29c-8 0 -15 7 -15 15v40c0 8 7 15 15 15h29c8 0 15 -7 15 -15v-40z
M316 15c0 -8 -7 -15 -15 -15h-29c-8 0 -15 7 -15 15v40c0 8 7 15 15 15h29c8 0 15 -7 15 -15v-40zM247 15c0 -8 -7 -15 -15 -15h-29c-8 0 -15 7 -15 15v40c0 8 7 15 15 15h29c8 0 15 -7 15 -15v-40zM109 95c0 -8 -7 -15 -15 -15h-29c-8 0 -15 7 -15 15v40c0 8 7 15 15 15h29
c8 0 15 -7 15 -15v-40zM178 15c0 -8 -7 -15 -15 -15h-29c-8 0 -15 7 -15 15v40c0 8 7 15 15 15h29c8 0 15 -7 15 -15v-40z" />
    <glyph glyph-name="p" unicode="p" 
d="M316 495c0 -8 -7 -15 -15 -15h-29c-8 0 -15 7 -15 15v40c0 8 7 15 15 15h29c8 0 15 -7 15 -15v-40zM385 415c0 -8 -7 -15 -15 -15h-29c-8 0 -15 7 -15 15v40c0 8 7 15 15 15h29c8 0 15 -7 15 -15v-40zM247 495c0 -8 -7 -15 -15 -15h-29c-8 0 -15 7 -15 15v40
c0 8 7 15 15 15h29c8 0 15 -7 15 -15v-40zM385 335c0 -8 -7 -15 -15 -15h-29c-8 0 -15 7 -15 15v40c0 8 7 15 15 15h29c8 0 15 -7 15 -15v-40zM178 495c0 -8 -7 -15 -15 -15h-29c-8 0 -15 7 -15 15v40c0 8 7 15 15 15h29c8 0 15 -7 15 -15v-40zM109 495c0 -8 -7 -15 -15 -15
h-29c-8 0 -15 7 -15 15v40c0 8 7 15 15 15h29c8 0 15 -7 15 -15v-40zM316 255c0 -8 -7 -15 -15 -15h-29c-8 0 -15 7 -15 15v40c0 8 7 15 15 15h29c8 0 15 -7 15 -15v-40zM109 415c0 -8 -7 -15 -15 -15h-29c-8 0 -15 7 -15 15v40c0 8 7 15 15 15h29c8 0 15 -7 15 -15v-40z
M247 255c0 -8 -7 -15 -15 -15h-29c-8 0 -15 7 -15 15v40c0 8 7 15 15 15h29c8 0 15 -7 15 -15v-40zM109 335c0 -8 -7 -15 -15 -15h-29c-8 0 -15 7 -15 15v40c0 8 7 15 15 15h29c8 0 15 -7 15 -15v-40zM178 255c0 -8 -7 -15 -15 -15h-29c-8 0 -15 7 -15 15v40c0 8 7 15 15 15
h29c8 0 15 -7 15 -15v-40zM109 255c0 -8 -7 -15 -15 -15h-29c-8 0 -15 7 -15 15v40c0 8 7 15 15 15h29c8 0 15 -7 15 -15v-40zM109 175c0 -8 -7 -15 -15 -15h-29c-8 0 -15 7 -15 15v40c0 8 7 15 15 15h29c8 0 15 -7 15 -15v-40zM109 95c0 -8 -7 -15 -15 -15h-29
c-8 0 -15 7 -15 15v40c0 8 7 15 15 15h29c8 0 15 -7 15 -15v-40zM109 15c0 -8 -7 -15 -15 -15h-29c-8 0 -15 7 -15 15v40c0 8 7 15 15 15h29c8 0 15 -7 15 -15v-40z" />
    <glyph glyph-name="q" unicode="q" 
d="M316 495c0 -8 -7 -15 -15 -15h-29c-8 0 -15 7 -15 15v40c0 8 7 15 15 15h29c8 0 15 -7 15 -15v-40zM385 415c0 -8 -7 -15 -15 -15h-29c-8 0 -15 7 -15 15v40c0 8 7 15 15 15h29c8 0 15 -7 15 -15v-40zM247 495c0 -8 -7 -15 -15 -15h-29c-8 0 -15 7 -15 15v40
c0 8 7 15 15 15h29c8 0 15 -7 15 -15v-40zM385 335c0 -8 -7 -15 -15 -15h-29c-8 0 -15 7 -15 15v40c0 8 7 15 15 15h29c8 0 15 -7 15 -15v-40zM178 495c0 -8 -7 -15 -15 -15h-29c-8 0 -15 7 -15 15v40c0 8 7 15 15 15h29c8 0 15 -7 15 -15v-40zM385 255c0 -8 -7 -15 -15 -15
h-29c-8 0 -15 7 -15 15v40c0 8 7 15 15 15h29c8 0 15 -7 15 -15v-40zM385 175c0 -8 -7 -15 -15 -15h-29c-8 0 -15 7 -15 15v40c0 8 7 15 15 15h29c8 0 15 -7 15 -15v-40zM109 415c0 -8 -7 -15 -15 -15h-29c-8 0 -15 7 -15 15v40c0 8 7 15 15 15h29c8 0 15 -7 15 -15v-40z
M109 335c0 -8 -7 -15 -15 -15h-29c-8 0 -15 7 -15 15v40c0 8 7 15 15 15h29c8 0 15 -7 15 -15v-40zM247 175c0 -8 -7 -15 -15 -15h-29c-8 0 -15 7 -15 15v40c0 8 7 15 15 15h29c8 0 15 -7 15 -15v-40zM316 95c0 -8 -7 -15 -15 -15h-29c-8 0 -15 7 -15 15v40c0 8 7 15 15 15
h29c8 0 15 -7 15 -15v-40zM385 15c0 -8 -7 -15 -15 -15h-29c-8 0 -15 7 -15 15v40c0 8 7 15 15 15h29c8 0 15 -7 15 -15v-40zM109 255c0 -8 -7 -15 -15 -15h-29c-8 0 -15 7 -15 15v40c0 8 7 15 15 15h29c8 0 15 -7 15 -15v-40zM109 175c0 -8 -7 -15 -15 -15h-29
c-8 0 -15 7 -15 15v40c0 8 7 15 15 15h29c8 0 15 -7 15 -15v-40zM247 15c0 -8 -7 -15 -15 -15h-29c-8 0 -15 7 -15 15v40c0 8 7 15 15 15h29c8 0 15 -7 15 -15v-40zM109 95c0 -8 -7 -15 -15 -15h-29c-8 0 -15 7 -15 15v40c0 8 7 15 15 15h29c8 0 15 -7 15 -15v-40zM178 15
c0 -8 -7 -15 -15 -15h-29c-8 0 -15 7 -15 15v40c0 8 7 15 15 15h29c8 0 15 -7 15 -15v-40z" />
    <glyph glyph-name="r" unicode="r" 
d="M316 495c0 -8 -7 -15 -15 -15h-29c-8 0 -15 7 -15 15v40c0 8 7 15 15 15h29c8 0 15 -7 15 -15v-40zM385 415c0 -8 -7 -15 -15 -15h-29c-8 0 -15 7 -15 15v40c0 8 7 15 15 15h29c8 0 15 -7 15 -15v-40zM247 495c0 -8 -7 -15 -15 -15h-29c-8 0 -15 7 -15 15v40
c0 8 7 15 15 15h29c8 0 15 -7 15 -15v-40zM385 335c0 -8 -7 -15 -15 -15h-29c-8 0 -15 7 -15 15v40c0 8 7 15 15 15h29c8 0 15 -7 15 -15v-40zM178 495c0 -8 -7 -15 -15 -15h-29c-8 0 -15 7 -15 15v40c0 8 7 15 15 15h29c8 0 15 -7 15 -15v-40zM109 495c0 -8 -7 -15 -15 -15
h-29c-8 0 -15 7 -15 15v40c0 8 7 15 15 15h29c8 0 15 -7 15 -15v-40zM316 255c0 -8 -7 -15 -15 -15h-29c-8 0 -15 7 -15 15v40c0 8 7 15 15 15h29c8 0 15 -7 15 -15v-40zM109 415c0 -8 -7 -15 -15 -15h-29c-8 0 -15 7 -15 15v40c0 8 7 15 15 15h29c8 0 15 -7 15 -15v-40z
M247 255c0 -8 -7 -15 -15 -15h-29c-8 0 -15 7 -15 15v40c0 8 7 15 15 15h29c8 0 15 -7 15 -15v-40zM109 335c0 -8 -7 -15 -15 -15h-29c-8 0 -15 7 -15 15v40c0 8 7 15 15 15h29c8 0 15 -7 15 -15v-40zM178 255c0 -8 -7 -15 -15 -15h-29c-8 0 -15 7 -15 15v40c0 8 7 15 15 15
h29c8 0 15 -7 15 -15v-40zM247 175c0 -8 -7 -15 -15 -15h-29c-8 0 -15 7 -15 15v40c0 8 7 15 15 15h29c8 0 15 -7 15 -15v-40zM316 95c0 -8 -7 -15 -15 -15h-29c-8 0 -15 7 -15 15v40c0 8 7 15 15 15h29c8 0 15 -7 15 -15v-40zM385 15c0 -8 -7 -15 -15 -15h-29
c-8 0 -15 7 -15 15v40c0 8 7 15 15 15h29c8 0 15 -7 15 -15v-40zM109 255c0 -8 -7 -15 -15 -15h-29c-8 0 -15 7 -15 15v40c0 8 7 15 15 15h29c8 0 15 -7 15 -15v-40zM109 175c0 -8 -7 -15 -15 -15h-29c-8 0 -15 7 -15 15v40c0 8 7 15 15 15h29c8 0 15 -7 15 -15v-40zM109 95
c0 -8 -7 -15 -15 -15h-29c-8 0 -15 7 -15 15v40c0 8 7 15 15 15h29c8 0 15 -7 15 -15v-40zM109 15c0 -8 -7 -15 -15 -15h-29c-8 0 -15 7 -15 15v40c0 8 7 15 15 15h29c8 0 15 -7 15 -15v-40z" />
    <glyph glyph-name="s.alt" 
d="M316 335c0 -8 -7 -15 -15 -15h-29c-8 0 -15 7 -15 15v40c0 8 7 15 15 15h29c8 0 15 -7 15 -15v-40zM385 335c0 -8 -7 -15 -15 -15h-29c-8 0 -15 7 -15 15v40c0 8 7 15 15 15h29c8 0 15 -7 15 -15v-40zM247 335c0 -8 -7 -15 -15 -15h-29c-8 0 -15 7 -15 15v40
c0 8 7 15 15 15h29c8 0 15 -7 15 -15v-40zM178 335c0 -8 -7 -15 -15 -15h-29c-8 0 -15 7 -15 15v40c0 8 7 15 15 15h29c8 0 15 -7 15 -15v-40zM316 175c0 -8 -7 -15 -15 -15h-29c-8 0 -15 7 -15 15v40c0 8 7 15 15 15h29c8 0 15 -7 15 -15v-40zM109 255c0 -8 -7 -15 -15 -15
h-29c-8 0 -15 7 -15 15v40c0 8 7 15 15 15h29c8 0 15 -7 15 -15v-40zM247 175c0 -8 -7 -15 -15 -15h-29c-8 0 -15 7 -15 15v40c0 8 7 15 15 15h29c8 0 15 -7 15 -15v-40zM385 95c0 -8 -7 -15 -15 -15h-29c-8 0 -15 7 -15 15v40c0 8 7 15 15 15h29c8 0 15 -7 15 -15v-40z
M178 175c0 -8 -7 -15 -15 -15h-29c-8 0 -15 7 -15 15v40c0 8 7 15 15 15h29c8 0 15 -7 15 -15v-40zM316 15c0 -8 -7 -15 -15 -15h-29c-8 0 -15 7 -15 15v40c0 8 7 15 15 15h29c8 0 15 -7 15 -15v-40zM247 15c0 -8 -7 -15 -15 -15h-29c-8 0 -15 7 -15 15v40c0 8 7 15 15 15
h29c8 0 15 -7 15 -15v-40zM109 15c0 -8 -7 -15 -15 -15h-29c-8 0 -15 7 -15 15v40c0 8 7 15 15 15h29c8 0 15 -7 15 -15v-40zM178 15c0 -8 -7 -15 -15 -15h-29c-8 0 -15 7 -15 15v40c0 8 7 15 15 15h29c8 0 15 -7 15 -15v-40z" />
    <glyph glyph-name="t" unicode="t" 
d="M385 495c0 -8 -7 -15 -15 -15h-29c-8 0 -15 7 -15 15v40c0 8 7 15 15 15h29c8 0 15 -7 15 -15v-40zM316 495c0 -8 -7 -15 -15 -15h-29c-8 0 -15 7 -15 15v40c0 8 7 15 15 15h29c8 0 15 -7 15 -15v-40zM247 495c0 -8 -7 -15 -15 -15h-29c-8 0 -15 7 -15 15v40
c0 8 7 15 15 15h29c8 0 15 -7 15 -15v-40zM178 495c0 -8 -7 -15 -15 -15h-29c-8 0 -15 7 -15 15v40c0 8 7 15 15 15h29c8 0 15 -7 15 -15v-40zM247 415c0 -8 -7 -15 -15 -15h-29c-8 0 -15 7 -15 15v40c0 8 7 15 15 15h29c8 0 15 -7 15 -15v-40zM109 495c0 -8 -7 -15 -15 -15
h-29c-8 0 -15 7 -15 15v40c0 8 7 15 15 15h29c8 0 15 -7 15 -15v-40zM247 335c0 -8 -7 -15 -15 -15h-29c-8 0 -15 7 -15 15v40c0 8 7 15 15 15h29c8 0 15 -7 15 -15v-40zM247 255c0 -8 -7 -15 -15 -15h-29c-8 0 -15 7 -15 15v40c0 8 7 15 15 15h29c8 0 15 -7 15 -15v-40z
M247 175c0 -8 -7 -15 -15 -15h-29c-8 0 -15 7 -15 15v40c0 8 7 15 15 15h29c8 0 15 -7 15 -15v-40zM247 95c0 -8 -7 -15 -15 -15h-29c-8 0 -15 7 -15 15v40c0 8 7 15 15 15h29c8 0 15 -7 15 -15v-40zM247 15c0 -8 -7 -15 -15 -15h-29c-8 0 -15 7 -15 15v40c0 8 7 15 15 15
h29c8 0 15 -7 15 -15v-40z" />
    <glyph glyph-name="u.alt" 
d="M385 335c0 -8 -7 -15 -15 -15h-29c-8 0 -15 7 -15 15v40c0 8 7 15 15 15h29c8 0 15 -7 15 -15v-40zM385 255c0 -8 -7 -15 -15 -15h-29c-8 0 -15 7 -15 15v40c0 8 7 15 15 15h29c8 0 15 -7 15 -15v-40zM385 175c0 -8 -7 -15 -15 -15h-29c-8 0 -15 7 -15 15v40
c0 8 7 15 15 15h29c8 0 15 -7 15 -15v-40zM385 95c0 -8 -7 -15 -15 -15h-29c-8 0 -15 7 -15 15v40c0 8 7 15 15 15h29c8 0 15 -7 15 -15v-40zM109 335c0 -8 -7 -15 -15 -15h-29c-8 0 -15 7 -15 15v40c0 8 7 15 15 15h29c8 0 15 -7 15 -15v-40zM109 255c0 -8 -7 -15 -15 -15
h-29c-8 0 -15 7 -15 15v40c0 8 7 15 15 15h29c8 0 15 -7 15 -15v-40zM316 15c0 -8 -7 -15 -15 -15h-29c-8 0 -15 7 -15 15v40c0 8 7 15 15 15h29c8 0 15 -7 15 -15v-40zM109 175c0 -8 -7 -15 -15 -15h-29c-8 0 -15 7 -15 15v40c0 8 7 15 15 15h29c8 0 15 -7 15 -15v-40z
M247 15c0 -8 -7 -15 -15 -15h-29c-8 0 -15 7 -15 15v40c0 8 7 15 15 15h29c8 0 15 -7 15 -15v-40zM109 95c0 -8 -7 -15 -15 -15h-29c-8 0 -15 7 -15 15v40c0 8 7 15 15 15h29c8 0 15 -7 15 -15v-40zM178 15c0 -8 -7 -15 -15 -15h-29c-8 0 -15 7 -15 15v40c0 8 7 15 15 15h29
c8 0 15 -7 15 -15v-40z" />
    <glyph glyph-name="v" unicode="v" 
d="M385 495c0 -8 -7 -15 -15 -15h-29c-8 0 -15 7 -15 15v40c0 8 7 15 15 15h29c8 0 15 -7 15 -15v-40zM385 415c0 -8 -7 -15 -15 -15h-29c-8 0 -15 7 -15 15v40c0 8 7 15 15 15h29c8 0 15 -7 15 -15v-40zM385 335c0 -8 -7 -15 -15 -15h-29c-8 0 -15 7 -15 15v40
c0 8 7 15 15 15h29c8 0 15 -7 15 -15v-40zM385 255c0 -8 -7 -15 -15 -15h-29c-8 0 -15 7 -15 15v40c0 8 7 15 15 15h29c8 0 15 -7 15 -15v-40zM109 495c0 -8 -7 -15 -15 -15h-29c-8 0 -15 7 -15 15v40c0 8 7 15 15 15h29c8 0 15 -7 15 -15v-40zM385 175c0 -8 -7 -15 -15 -15
h-29c-8 0 -15 7 -15 15v40c0 8 7 15 15 15h29c8 0 15 -7 15 -15v-40zM109 415c0 -8 -7 -15 -15 -15h-29c-8 0 -15 7 -15 15v40c0 8 7 15 15 15h29c8 0 15 -7 15 -15v-40zM109 335c0 -8 -7 -15 -15 -15h-29c-8 0 -15 7 -15 15v40c0 8 7 15 15 15h29c8 0 15 -7 15 -15v-40z
M316 95c0 -8 -7 -15 -15 -15h-29c-8 0 -15 7 -15 15v40c0 8 7 15 15 15h29c8 0 15 -7 15 -15v-40zM109 255c0 -8 -7 -15 -15 -15h-29c-8 0 -15 7 -15 15v40c0 8 7 15 15 15h29c8 0 15 -7 15 -15v-40zM109 175c0 -8 -7 -15 -15 -15h-29c-8 0 -15 7 -15 15v40c0 8 7 15 15 15
h29c8 0 15 -7 15 -15v-40zM178 95c0 -8 -7 -15 -15 -15h-29c-8 0 -15 7 -15 15v40c0 8 7 15 15 15h29c8 0 15 -7 15 -15v-40zM247 15c0 -8 -7 -15 -15 -15h-29c-8 0 -15 7 -15 15v40c0 8 7 15 15 15h29c8 0 15 -7 15 -15v-40z" />
    <glyph glyph-name="w" unicode="w" 
d="M385 495c0 -8 -7 -15 -15 -15h-29c-8 0 -15 7 -15 15v40c0 8 7 15 15 15h29c8 0 15 -7 15 -15v-40zM385 415c0 -8 -7 -15 -15 -15h-29c-8 0 -15 7 -15 15v40c0 8 7 15 15 15h29c8 0 15 -7 15 -15v-40zM385 335c0 -8 -7 -15 -15 -15h-29c-8 0 -15 7 -15 15v40
c0 8 7 15 15 15h29c8 0 15 -7 15 -15v-40zM385 255c0 -8 -7 -15 -15 -15h-29c-8 0 -15 7 -15 15v40c0 8 7 15 15 15h29c8 0 15 -7 15 -15v-40zM109 495c0 -8 -7 -15 -15 -15h-29c-8 0 -15 7 -15 15v40c0 8 7 15 15 15h29c8 0 15 -7 15 -15v-40zM385 175c0 -8 -7 -15 -15 -15
h-29c-8 0 -15 7 -15 15v40c0 8 7 15 15 15h29c8 0 15 -7 15 -15v-40zM109 415c0 -8 -7 -15 -15 -15h-29c-8 0 -15 7 -15 15v40c0 8 7 15 15 15h29c8 0 15 -7 15 -15v-40zM247 255c0 -8 -7 -15 -15 -15h-29c-8 0 -15 7 -15 15v40c0 8 7 15 15 15h29c8 0 15 -7 15 -15v-40z
M385 95c0 -8 -7 -15 -15 -15h-29c-8 0 -15 7 -15 15v40c0 8 7 15 15 15h29c8 0 15 -7 15 -15v-40zM109 335c0 -8 -7 -15 -15 -15h-29c-8 0 -15 7 -15 15v40c0 8 7 15 15 15h29c8 0 15 -7 15 -15v-40zM247 175c0 -8 -7 -15 -15 -15h-29c-8 0 -15 7 -15 15v40c0 8 7 15 15 15
h29c8 0 15 -7 15 -15v-40zM316 95c0 -8 -7 -15 -15 -15h-29c-8 0 -15 7 -15 15v40c0 8 7 15 15 15h29c8 0 15 -7 15 -15v-40zM385 15c0 -8 -7 -15 -15 -15h-29c-8 0 -15 7 -15 15v40c0 8 7 15 15 15h29c8 0 15 -7 15 -15v-40zM109 255c0 -8 -7 -15 -15 -15h-29
c-8 0 -15 7 -15 15v40c0 8 7 15 15 15h29c8 0 15 -7 15 -15v-40zM109 175c0 -8 -7 -15 -15 -15h-29c-8 0 -15 7 -15 15v40c0 8 7 15 15 15h29c8 0 15 -7 15 -15v-40zM178 95c0 -8 -7 -15 -15 -15h-29c-8 0 -15 7 -15 15v40c0 8 7 15 15 15h29c8 0 15 -7 15 -15v-40zM109 95
c0 -8 -7 -15 -15 -15h-29c-8 0 -15 7 -15 15v40c0 8 7 15 15 15h29c8 0 15 -7 15 -15v-40zM109 15c0 -8 -7 -15 -15 -15h-29c-8 0 -15 7 -15 15v40c0 8 7 15 15 15h29c8 0 15 -7 15 -15v-40z" />
    <glyph glyph-name="x" unicode="x" 
d="M385 495c0 -8 -7 -15 -15 -15h-29c-8 0 -15 7 -15 15v40c0 8 7 15 15 15h29c8 0 15 -7 15 -15v-40zM385 415c0 -8 -7 -15 -15 -15h-29c-8 0 -15 7 -15 15v40c0 8 7 15 15 15h29c8 0 15 -7 15 -15v-40zM316 335c0 -8 -7 -15 -15 -15h-29c-8 0 -15 7 -15 15v40
c0 8 7 15 15 15h29c8 0 15 -7 15 -15v-40zM109 495c0 -8 -7 -15 -15 -15h-29c-8 0 -15 7 -15 15v40c0 8 7 15 15 15h29c8 0 15 -7 15 -15v-40zM109 415c0 -8 -7 -15 -15 -15h-29c-8 0 -15 7 -15 15v40c0 8 7 15 15 15h29c8 0 15 -7 15 -15v-40zM178 335c0 -8 -7 -15 -15 -15
h-29c-8 0 -15 7 -15 15v40c0 8 7 15 15 15h29c8 0 15 -7 15 -15v-40zM247 255c0 -8 -7 -15 -15 -15h-29c-8 0 -15 7 -15 15v40c0 8 7 15 15 15h29c8 0 15 -7 15 -15v-40zM316 175c0 -8 -7 -15 -15 -15h-29c-8 0 -15 7 -15 15v40c0 8 7 15 15 15h29c8 0 15 -7 15 -15v-40z
M385 95c0 -8 -7 -15 -15 -15h-29c-8 0 -15 7 -15 15v40c0 8 7 15 15 15h29c8 0 15 -7 15 -15v-40zM385 15c0 -8 -7 -15 -15 -15h-29c-8 0 -15 7 -15 15v40c0 8 7 15 15 15h29c8 0 15 -7 15 -15v-40zM178 175c0 -8 -7 -15 -15 -15h-29c-8 0 -15 7 -15 15v40c0 8 7 15 15 15
h29c8 0 15 -7 15 -15v-40zM109 95c0 -8 -7 -15 -15 -15h-29c-8 0 -15 7 -15 15v40c0 8 7 15 15 15h29c8 0 15 -7 15 -15v-40zM109 15c0 -8 -7 -15 -15 -15h-29c-8 0 -15 7 -15 15v40c0 8 7 15 15 15h29c8 0 15 -7 15 -15v-40z" />
    <glyph glyph-name="y.alt" 
d="M385 335c0 -8 -7 -15 -15 -15h-29c-8 0 -15 7 -15 15v40c0 8 7 15 15 15h29c8 0 15 -7 15 -15v-40zM385 255c0 -8 -7 -15 -15 -15h-29c-8 0 -15 7 -15 15v40c0 8 7 15 15 15h29c8 0 15 -7 15 -15v-40zM316 175c0 -8 -7 -15 -15 -15h-29c-8 0 -15 7 -15 15v40
c0 8 7 15 15 15h29c8 0 15 -7 15 -15v-40zM109 335c0 -8 -7 -15 -15 -15h-29c-8 0 -15 7 -15 15v40c0 8 7 15 15 15h29c8 0 15 -7 15 -15v-40zM109 255c0 -8 -7 -15 -15 -15h-29c-8 0 -15 7 -15 15v40c0 8 7 15 15 15h29c8 0 15 -7 15 -15v-40zM178 175c0 -8 -7 -15 -15 -15
h-29c-8 0 -15 7 -15 15v40c0 8 7 15 15 15h29c8 0 15 -7 15 -15v-40zM247 95c0 -8 -7 -15 -15 -15h-29c-8 0 -15 7 -15 15v40c0 8 7 15 15 15h29c8 0 15 -7 15 -15v-40zM247 15c0 -8 -7 -15 -15 -15h-29c-8 0 -15 7 -15 15v40c0 8 7 15 15 15h29c8 0 15 -7 15 -15v-40z" />
    <glyph glyph-name="z.alt" 
d="M385 335c0 -8 -7 -15 -15 -15h-29c-8 0 -15 7 -15 15v40c0 8 7 15 15 15h29c8 0 15 -7 15 -15v-40zM316 335c0 -8 -7 -15 -15 -15h-29c-8 0 -15 7 -15 15v40c0 8 7 15 15 15h29c8 0 15 -7 15 -15v-40zM247 335c0 -8 -7 -15 -15 -15h-29c-8 0 -15 7 -15 15v40
c0 8 7 15 15 15h29c8 0 15 -7 15 -15v-40zM178 335c0 -8 -7 -15 -15 -15h-29c-8 0 -15 7 -15 15v40c0 8 7 15 15 15h29c8 0 15 -7 15 -15v-40zM316 255c0 -8 -7 -15 -15 -15h-29c-8 0 -15 7 -15 15v40c0 8 7 15 15 15h29c8 0 15 -7 15 -15v-40zM109 335c0 -8 -7 -15 -15 -15
h-29c-8 0 -15 7 -15 15v40c0 8 7 15 15 15h29c8 0 15 -7 15 -15v-40zM247 175c0 -8 -7 -15 -15 -15h-29c-8 0 -15 7 -15 15v40c0 8 7 15 15 15h29c8 0 15 -7 15 -15v-40zM385 15c0 -8 -7 -15 -15 -15h-29c-8 0 -15 7 -15 15v40c0 8 7 15 15 15h29c8 0 15 -7 15 -15v-40z
M178 95c0 -8 -7 -15 -15 -15h-29c-8 0 -15 7 -15 15v40c0 8 7 15 15 15h29c8 0 15 -7 15 -15v-40zM316 15c0 -8 -7 -15 -15 -15h-29c-8 0 -15 7 -15 15v40c0 8 7 15 15 15h29c8 0 15 -7 15 -15v-40zM247 15c0 -8 -7 -15 -15 -15h-29c-8 0 -15 7 -15 15v40c0 8 7 15 15 15h29
c8 0 15 -7 15 -15v-40zM178 15c0 -8 -7 -15 -15 -15h-29c-8 0 -15 7 -15 15v40c0 8 7 15 15 15h29c8 0 15 -7 15 -15v-40zM109 15c0 -8 -7 -15 -15 -15h-29c-8 0 -15 7 -15 15v40c0 8 7 15 15 15h29c8 0 15 -7 15 -15v-40z" />
    <glyph glyph-name="braceleft" unicode="{" horiz-adv-x="228" 
d="M178 495c0 -8 -7 -15 -15 -15h-29c-8 0 -15 7 -15 15v40c0 8 7 15 15 15h29c8 0 15 -7 15 -15v-40zM109 415c0 -8 -7 -15 -15 -15h-29c-8 0 -15 7 -15 15v40c0 8 7 15 15 15h29c8 0 15 -7 15 -15v-40zM109 335c0 -8 -7 -15 -15 -15h-29c-8 0 -15 7 -15 15v40
c0 8 7 15 15 15h29c8 0 15 -7 15 -15v-40zM178 255c0 -8 -7 -15 -15 -15h-29c-8 0 -15 7 -15 15v40c0 8 7 15 15 15h29c8 0 15 -7 15 -15v-40zM109 175c0 -8 -7 -15 -15 -15h-29c-8 0 -15 7 -15 15v40c0 8 7 15 15 15h29c8 0 15 -7 15 -15v-40zM109 95c0 -8 -7 -15 -15 -15
h-29c-8 0 -15 7 -15 15v40c0 8 7 15 15 15h29c8 0 15 -7 15 -15v-40zM178 15c0 -8 -7 -15 -15 -15h-29c-8 0 -15 7 -15 15v40c0 8 7 15 15 15h29c8 0 15 -7 15 -15v-40z" />
    <glyph glyph-name="bar" unicode="|" horiz-adv-x="159" 
d="M109 495c0 -8 -7 -15 -15 -15h-29c-8 0 -15 7 -15 15v40c0 8 7 15 15 15h29c8 0 15 -7 15 -15v-40zM109 415c0 -8 -7 -15 -15 -15h-29c-8 0 -15 7 -15 15v40c0 8 7 15 15 15h29c8 0 15 -7 15 -15v-40zM109 335c0 -8 -7 -15 -15 -15h-29c-8 0 -15 7 -15 15v40
c0 8 7 15 15 15h29c8 0 15 -7 15 -15v-40zM109 255c0 -8 -7 -15 -15 -15h-29c-8 0 -15 7 -15 15v40c0 8 7 15 15 15h29c8 0 15 -7 15 -15v-40zM109 175c0 -8 -7 -15 -15 -15h-29c-8 0 -15 7 -15 15v40c0 8 7 15 15 15h29c8 0 15 -7 15 -15v-40zM109 95c0 -8 -7 -15 -15 -15
h-29c-8 0 -15 7 -15 15v40c0 8 7 15 15 15h29c8 0 15 -7 15 -15v-40zM109 15c0 -8 -7 -15 -15 -15h-29c-8 0 -15 7 -15 15v40c0 8 7 15 15 15h29c8 0 15 -7 15 -15v-40z" />
    <glyph glyph-name="braceright" unicode="}" horiz-adv-x="228" 
d="M109 495c0 -8 -7 -15 -15 -15h-29c-8 0 -15 7 -15 15v40c0 8 7 15 15 15h29c8 0 15 -7 15 -15v-40zM178 415c0 -8 -7 -15 -15 -15h-29c-8 0 -15 7 -15 15v40c0 8 7 15 15 15h29c8 0 15 -7 15 -15v-40zM178 335c0 -8 -7 -15 -15 -15h-29c-8 0 -15 7 -15 15v40
c0 8 7 15 15 15h29c8 0 15 -7 15 -15v-40zM109 255c0 -8 -7 -15 -15 -15h-29c-8 0 -15 7 -15 15v40c0 8 7 15 15 15h29c8 0 15 -7 15 -15v-40zM178 175c0 -8 -7 -15 -15 -15h-29c-8 0 -15 7 -15 15v40c0 8 7 15 15 15h29c8 0 15 -7 15 -15v-40zM178 95c0 -8 -7 -15 -15 -15
h-29c-8 0 -15 7 -15 15v40c0 8 7 15 15 15h29c8 0 15 -7 15 -15v-40zM109 15c0 -8 -7 -15 -15 -15h-29c-8 0 -15 7 -15 15v40c0 8 7 15 15 15h29c8 0 15 -7 15 -15v-40z" />
    <glyph glyph-name="asciitilde" unicode="~" 
d="M385 335c0 -8 -7 -15 -15 -15h-29c-8 0 -15 7 -15 15v40c0 8 7 15 15 15h29c8 0 15 -7 15 -15v-40zM385 255c0 -8 -7 -15 -15 -15h-29c-8 0 -15 7 -15 15v40c0 8 7 15 15 15h29c8 0 15 -7 15 -15v-40zM178 335c0 -8 -7 -15 -15 -15h-29c-8 0 -15 7 -15 15v40
c0 8 7 15 15 15h29c8 0 15 -7 15 -15v-40zM247 255c0 -8 -7 -15 -15 -15h-29c-8 0 -15 7 -15 15v40c0 8 7 15 15 15h29c8 0 15 -7 15 -15v-40zM316 175c0 -8 -7 -15 -15 -15h-29c-8 0 -15 7 -15 15v40c0 8 7 15 15 15h29c8 0 15 -7 15 -15v-40zM109 255c0 -8 -7 -15 -15 -15
h-29c-8 0 -15 7 -15 15v40c0 8 7 15 15 15h29c8 0 15 -7 15 -15v-40zM109 175c0 -8 -7 -15 -15 -15h-29c-8 0 -15 7 -15 15v40c0 8 7 15 15 15h29c8 0 15 -7 15 -15v-40z" />
    <glyph glyph-name="dagger" unicode="&#x2020;" horiz-adv-x="297" 
d="M178 495c0 -8 -7 -15 -15 -15h-29c-8 0 -15 7 -15 15v40c0 8 7 15 15 15h29c8 0 15 -7 15 -15v-40zM178 415c0 -8 -7 -15 -15 -15h-29c-8 0 -15 7 -15 15v40c0 8 7 15 15 15h29c8 0 15 -7 15 -15v-40zM247 335c0 -8 -7 -15 -15 -15h-29c-8 0 -15 7 -15 15v40
c0 8 7 15 15 15h29c8 0 15 -7 15 -15v-40zM178 335c0 -8 -7 -15 -15 -15h-29c-8 0 -15 7 -15 15v40c0 8 7 15 15 15h29c8 0 15 -7 15 -15v-40zM109 335c0 -8 -7 -15 -15 -15h-29c-8 0 -15 7 -15 15v40c0 8 7 15 15 15h29c8 0 15 -7 15 -15v-40zM178 255c0 -8 -7 -15 -15 -15
h-29c-8 0 -15 7 -15 15v40c0 8 7 15 15 15h29c8 0 15 -7 15 -15v-40zM178 175c0 -8 -7 -15 -15 -15h-29c-8 0 -15 7 -15 15v40c0 8 7 15 15 15h29c8 0 15 -7 15 -15v-40zM178 95c0 -8 -7 -15 -15 -15h-29c-8 0 -15 7 -15 15v40c0 8 7 15 15 15h29c8 0 15 -7 15 -15v-40z
M178 15c0 -8 -7 -15 -15 -15h-29c-8 0 -15 7 -15 15v40c0 8 7 15 15 15h29c8 0 15 -7 15 -15v-40z" />
    <glyph glyph-name="degree" unicode="&#xb0;" horiz-adv-x="297" 
d="M178 495c0 -8 -7 -15 -15 -15h-29c-8 0 -15 7 -15 15v40c0 8 7 15 15 15h29c8 0 15 -7 15 -15v-40zM247 415c0 -8 -7 -15 -15 -15h-29c-8 0 -15 7 -15 15v40c0 8 7 15 15 15h29c8 0 15 -7 15 -15v-40zM109 415c0 -8 -7 -15 -15 -15h-29c-8 0 -15 7 -15 15v40
c0 8 7 15 15 15h29c8 0 15 -7 15 -15v-40zM178 335c0 -8 -7 -15 -15 -15h-29c-8 0 -15 7 -15 15v40c0 8 7 15 15 15h29c8 0 15 -7 15 -15v-40z" />
    <glyph glyph-name="cent" unicode="&#xa2;" 
d="M247 495c0 -8 -7 -15 -15 -15h-29c-8 0 -15 7 -15 15v40c0 8 7 15 15 15h29c8 0 15 -7 15 -15v-40zM316 415c0 -8 -7 -15 -15 -15h-29c-8 0 -15 7 -15 15v40c0 8 7 15 15 15h29c8 0 15 -7 15 -15v-40zM385 335c0 -8 -7 -15 -15 -15h-29c-8 0 -15 7 -15 15v40
c0 8 7 15 15 15h29c8 0 15 -7 15 -15v-40zM247 415c0 -8 -7 -15 -15 -15h-29c-8 0 -15 7 -15 15v40c0 8 7 15 15 15h29c8 0 15 -7 15 -15v-40zM178 415c0 -8 -7 -15 -15 -15h-29c-8 0 -15 7 -15 15v40c0 8 7 15 15 15h29c8 0 15 -7 15 -15v-40zM247 335c0 -8 -7 -15 -15 -15
h-29c-8 0 -15 7 -15 15v40c0 8 7 15 15 15h29c8 0 15 -7 15 -15v-40zM385 175c0 -8 -7 -15 -15 -15h-29c-8 0 -15 7 -15 15v40c0 8 7 15 15 15h29c8 0 15 -7 15 -15v-40zM247 255c0 -8 -7 -15 -15 -15h-29c-8 0 -15 7 -15 15v40c0 8 7 15 15 15h29c8 0 15 -7 15 -15v-40z
M109 335c0 -8 -7 -15 -15 -15h-29c-8 0 -15 7 -15 15v40c0 8 7 15 15 15h29c8 0 15 -7 15 -15v-40zM247 175c0 -8 -7 -15 -15 -15h-29c-8 0 -15 7 -15 15v40c0 8 7 15 15 15h29c8 0 15 -7 15 -15v-40zM316 95c0 -8 -7 -15 -15 -15h-29c-8 0 -15 7 -15 15v40c0 8 7 15 15 15
h29c8 0 15 -7 15 -15v-40zM109 255c0 -8 -7 -15 -15 -15h-29c-8 0 -15 7 -15 15v40c0 8 7 15 15 15h29c8 0 15 -7 15 -15v-40zM247 95c0 -8 -7 -15 -15 -15h-29c-8 0 -15 7 -15 15v40c0 8 7 15 15 15h29c8 0 15 -7 15 -15v-40zM109 175c0 -8 -7 -15 -15 -15h-29
c-8 0 -15 7 -15 15v40c0 8 7 15 15 15h29c8 0 15 -7 15 -15v-40zM178 95c0 -8 -7 -15 -15 -15h-29c-8 0 -15 7 -15 15v40c0 8 7 15 15 15h29c8 0 15 -7 15 -15v-40zM247 15c0 -8 -7 -15 -15 -15h-29c-8 0 -15 7 -15 15v40c0 8 7 15 15 15h29c8 0 15 -7 15 -15v-40z" />
    <glyph glyph-name="sterling" unicode="&#xa3;" 
d="M316 495c0 -8 -7 -15 -15 -15h-29c-8 0 -15 7 -15 15v40c0 8 7 15 15 15h29c8 0 15 -7 15 -15v-40zM385 415c0 -8 -7 -15 -15 -15h-29c-8 0 -15 7 -15 15v40c0 8 7 15 15 15h29c8 0 15 -7 15 -15v-40zM247 495c0 -8 -7 -15 -15 -15h-29c-8 0 -15 7 -15 15v40
c0 8 7 15 15 15h29c8 0 15 -7 15 -15v-40zM178 495c0 -8 -7 -15 -15 -15h-29c-8 0 -15 7 -15 15v40c0 8 7 15 15 15h29c8 0 15 -7 15 -15v-40zM316 255c0 -8 -7 -15 -15 -15h-29c-8 0 -15 7 -15 15v40c0 8 7 15 15 15h29c8 0 15 -7 15 -15v-40zM109 415c0 -8 -7 -15 -15 -15
h-29c-8 0 -15 7 -15 15v40c0 8 7 15 15 15h29c8 0 15 -7 15 -15v-40zM247 255c0 -8 -7 -15 -15 -15h-29c-8 0 -15 7 -15 15v40c0 8 7 15 15 15h29c8 0 15 -7 15 -15v-40zM109 335c0 -8 -7 -15 -15 -15h-29c-8 0 -15 7 -15 15v40c0 8 7 15 15 15h29c8 0 15 -7 15 -15v-40z
M178 255c0 -8 -7 -15 -15 -15h-29c-8 0 -15 7 -15 15v40c0 8 7 15 15 15h29c8 0 15 -7 15 -15v-40zM385 15c0 -8 -7 -15 -15 -15h-29c-8 0 -15 7 -15 15v40c0 8 7 15 15 15h29c8 0 15 -7 15 -15v-40zM109 255c0 -8 -7 -15 -15 -15h-29c-8 0 -15 7 -15 15v40c0 8 7 15 15 15
h29c8 0 15 -7 15 -15v-40zM316 15c0 -8 -7 -15 -15 -15h-29c-8 0 -15 7 -15 15v40c0 8 7 15 15 15h29c8 0 15 -7 15 -15v-40zM109 175c0 -8 -7 -15 -15 -15h-29c-8 0 -15 7 -15 15v40c0 8 7 15 15 15h29c8 0 15 -7 15 -15v-40zM247 15c0 -8 -7 -15 -15 -15h-29
c-8 0 -15 7 -15 15v40c0 8 7 15 15 15h29c8 0 15 -7 15 -15v-40zM109 95c0 -8 -7 -15 -15 -15h-29c-8 0 -15 7 -15 15v40c0 8 7 15 15 15h29c8 0 15 -7 15 -15v-40zM178 15c0 -8 -7 -15 -15 -15h-29c-8 0 -15 7 -15 15v40c0 8 7 15 15 15h29c8 0 15 -7 15 -15v-40zM109 15
c0 -8 -7 -15 -15 -15h-29c-8 0 -15 7 -15 15v40c0 8 7 15 15 15h29c8 0 15 -7 15 -15v-40z" />
    <glyph glyph-name="section" unicode="&#xa7;" 
d="M316 495c0 -8 -7 -15 -15 -15h-29c-8 0 -15 7 -15 15v40c0 8 7 15 15 15h29c8 0 15 -7 15 -15v-40zM385 495c0 -8 -7 -15 -15 -15h-29c-8 0 -15 7 -15 15v40c0 8 7 15 15 15h29c8 0 15 -7 15 -15v-40zM247 495c0 -8 -7 -15 -15 -15h-29c-8 0 -15 7 -15 15v40
c0 8 7 15 15 15h29c8 0 15 -7 15 -15v-40zM178 495c0 -8 -7 -15 -15 -15h-29c-8 0 -15 7 -15 15v40c0 8 7 15 15 15h29c8 0 15 -7 15 -15v-40zM316 335c0 -8 -7 -15 -15 -15h-29c-8 0 -15 7 -15 15v40c0 8 7 15 15 15h29c8 0 15 -7 15 -15v-40zM385 255c0 -8 -7 -15 -15 -15
h-29c-8 0 -15 7 -15 15v40c0 8 7 15 15 15h29c8 0 15 -7 15 -15v-40zM247 335c0 -8 -7 -15 -15 -15h-29c-8 0 -15 7 -15 15v40c0 8 7 15 15 15h29c8 0 15 -7 15 -15v-40zM109 415c0 -8 -7 -15 -15 -15h-29c-8 0 -15 7 -15 15v40c0 8 7 15 15 15h29c8 0 15 -7 15 -15v-40z
M178 335c0 -8 -7 -15 -15 -15h-29c-8 0 -15 7 -15 15v40c0 8 7 15 15 15h29c8 0 15 -7 15 -15v-40zM316 175c0 -8 -7 -15 -15 -15h-29c-8 0 -15 7 -15 15v40c0 8 7 15 15 15h29c8 0 15 -7 15 -15v-40zM385 95c0 -8 -7 -15 -15 -15h-29c-8 0 -15 7 -15 15v40c0 8 7 15 15 15
h29c8 0 15 -7 15 -15v-40zM247 175c0 -8 -7 -15 -15 -15h-29c-8 0 -15 7 -15 15v40c0 8 7 15 15 15h29c8 0 15 -7 15 -15v-40zM109 255c0 -8 -7 -15 -15 -15h-29c-8 0 -15 7 -15 15v40c0 8 7 15 15 15h29c8 0 15 -7 15 -15v-40zM178 175c0 -8 -7 -15 -15 -15h-29
c-8 0 -15 7 -15 15v40c0 8 7 15 15 15h29c8 0 15 -7 15 -15v-40zM316 15c0 -8 -7 -15 -15 -15h-29c-8 0 -15 7 -15 15v40c0 8 7 15 15 15h29c8 0 15 -7 15 -15v-40zM247 15c0 -8 -7 -15 -15 -15h-29c-8 0 -15 7 -15 15v40c0 8 7 15 15 15h29c8 0 15 -7 15 -15v-40zM109 15
c0 -8 -7 -15 -15 -15h-29c-8 0 -15 7 -15 15v40c0 8 7 15 15 15h29c8 0 15 -7 15 -15v-40zM178 15c0 -8 -7 -15 -15 -15h-29c-8 0 -15 7 -15 15v40c0 8 7 15 15 15h29c8 0 15 -7 15 -15v-40z" />
    <glyph glyph-name="paragraph" unicode="&#xb6;" 
d="M385 495c0 -8 -7 -15 -15 -15h-29c-8 0 -15 7 -15 15v40c0 8 7 15 15 15h29c8 0 15 -7 15 -15v-40zM316 495c0 -8 -7 -15 -15 -15h-29c-8 0 -15 7 -15 15v40c0 8 7 15 15 15h29c8 0 15 -7 15 -15v-40zM385 415c0 -8 -7 -15 -15 -15h-29c-8 0 -15 7 -15 15v40
c0 8 7 15 15 15h29c8 0 15 -7 15 -15v-40zM247 495c0 -8 -7 -15 -15 -15h-29c-8 0 -15 7 -15 15v40c0 8 7 15 15 15h29c8 0 15 -7 15 -15v-40zM385 335c0 -8 -7 -15 -15 -15h-29c-8 0 -15 7 -15 15v40c0 8 7 15 15 15h29c8 0 15 -7 15 -15v-40zM178 495c0 -8 -7 -15 -15 -15
h-29c-8 0 -15 7 -15 15v40c0 8 7 15 15 15h29c8 0 15 -7 15 -15v-40zM247 415c0 -8 -7 -15 -15 -15h-29c-8 0 -15 7 -15 15v40c0 8 7 15 15 15h29c8 0 15 -7 15 -15v-40zM385 255c0 -8 -7 -15 -15 -15h-29c-8 0 -15 7 -15 15v40c0 8 7 15 15 15h29c8 0 15 -7 15 -15v-40z
M178 415c0 -8 -7 -15 -15 -15h-29c-8 0 -15 7 -15 15v40c0 8 7 15 15 15h29c8 0 15 -7 15 -15v-40zM247 335c0 -8 -7 -15 -15 -15h-29c-8 0 -15 7 -15 15v40c0 8 7 15 15 15h29c8 0 15 -7 15 -15v-40zM385 175c0 -8 -7 -15 -15 -15h-29c-8 0 -15 7 -15 15v40c0 8 7 15 15 15
h29c8 0 15 -7 15 -15v-40zM109 415c0 -8 -7 -15 -15 -15h-29c-8 0 -15 7 -15 15v40c0 8 7 15 15 15h29c8 0 15 -7 15 -15v-40zM178 335c0 -8 -7 -15 -15 -15h-29c-8 0 -15 7 -15 15v40c0 8 7 15 15 15h29c8 0 15 -7 15 -15v-40zM247 255c0 -8 -7 -15 -15 -15h-29
c-8 0 -15 7 -15 15v40c0 8 7 15 15 15h29c8 0 15 -7 15 -15v-40zM385 95c0 -8 -7 -15 -15 -15h-29c-8 0 -15 7 -15 15v40c0 8 7 15 15 15h29c8 0 15 -7 15 -15v-40zM109 335c0 -8 -7 -15 -15 -15h-29c-8 0 -15 7 -15 15v40c0 8 7 15 15 15h29c8 0 15 -7 15 -15v-40zM178 255
c0 -8 -7 -15 -15 -15h-29c-8 0 -15 7 -15 15v40c0 8 7 15 15 15h29c8 0 15 -7 15 -15v-40zM247 175c0 -8 -7 -15 -15 -15h-29c-8 0 -15 7 -15 15v40c0 8 7 15 15 15h29c8 0 15 -7 15 -15v-40zM385 15c0 -8 -7 -15 -15 -15h-29c-8 0 -15 7 -15 15v40c0 8 7 15 15 15h29
c8 0 15 -7 15 -15v-40zM247 95c0 -8 -7 -15 -15 -15h-29c-8 0 -15 7 -15 15v40c0 8 7 15 15 15h29c8 0 15 -7 15 -15v-40zM247 15c0 -8 -7 -15 -15 -15h-29c-8 0 -15 7 -15 15v40c0 8 7 15 15 15h29c8 0 15 -7 15 -15v-40z" />
    <glyph glyph-name="germandbls" unicode="&#xdf;" 
d="M247 495c0 -8 -7 -15 -15 -15h-29c-8 0 -15 7 -15 15v40c0 8 7 15 15 15h29c8 0 15 -7 15 -15v-40zM316 415c0 -8 -7 -15 -15 -15h-29c-8 0 -15 7 -15 15v40c0 8 7 15 15 15h29c8 0 15 -7 15 -15v-40zM247 255c0 -8 -7 -15 -15 -15h-29c-8 0 -15 7 -15 15v40
c0 8 7 15 15 15h29c8 0 15 -7 15 -15v-40zM247 335c0 -8 -7 -15 -15 -15h-29c-8 0 -15 7 -15 15v40c0 8 7 15 15 15h29c8 0 15 -7 15 -15v-40zM178 495c0 -8 -7 -15 -15 -15h-29c-8 0 -15 7 -15 15v40c0 8 7 15 15 15h29c8 0 15 -7 15 -15v-40zM316 255c0 -8 -7 -15 -15 -15
h-29c-8 0 -15 7 -15 15v40c0 8 7 15 15 15h29c8 0 15 -7 15 -15v-40zM385 175c0 -8 -7 -15 -15 -15h-29c-8 0 -15 7 -15 15v40c0 8 7 15 15 15h29c8 0 15 -7 15 -15v-40zM109 415c0 -8 -7 -15 -15 -15h-29c-8 0 -15 7 -15 15v40c0 8 7 15 15 15h29c8 0 15 -7 15 -15v-40z
M385 95c0 -8 -7 -15 -15 -15h-29c-8 0 -15 7 -15 15v40c0 8 7 15 15 15h29c8 0 15 -7 15 -15v-40zM109 335c0 -8 -7 -15 -15 -15h-29c-8 0 -15 7 -15 15v40c0 8 7 15 15 15h29c8 0 15 -7 15 -15v-40zM109 255c0 -8 -7 -15 -15 -15h-29c-8 0 -15 7 -15 15v40c0 8 7 15 15 15
h29c8 0 15 -7 15 -15v-40zM316 15c0 -8 -7 -15 -15 -15h-29c-8 0 -15 7 -15 15v40c0 8 7 15 15 15h29c8 0 15 -7 15 -15v-40zM109 175c0 -8 -7 -15 -15 -15h-29c-8 0 -15 7 -15 15v40c0 8 7 15 15 15h29c8 0 15 -7 15 -15v-40zM247 15c0 -8 -7 -15 -15 -15h-29
c-8 0 -15 7 -15 15v40c0 8 7 15 15 15h29c8 0 15 -7 15 -15v-40zM109 95c0 -8 -7 -15 -15 -15h-29c-8 0 -15 7 -15 15v40c0 8 7 15 15 15h29c8 0 15 -7 15 -15v-40zM109 15c0 -8 -7 -15 -15 -15h-29c-8 0 -15 7 -15 15v40c0 8 7 15 15 15h29c8 0 15 -7 15 -15v-40z" />
    <glyph glyph-name="acute" unicode="&#xb4;" 
d="M385 495c0 -8 -7 -15 -15 -15h-29c-8 0 -15 7 -15 15v40c0 8 7 15 15 15h29c8 0 15 -7 15 -15v-40zM316 495c0 -8 -7 -15 -15 -15h-29c-8 0 -15 7 -15 15v40c0 8 7 15 15 15h29c8 0 15 -7 15 -15v-40zM247 495c0 -8 -7 -15 -15 -15h-29c-8 0 -15 7 -15 15v40
c0 8 7 15 15 15h29c8 0 15 -7 15 -15v-40z" />
    <glyph glyph-name="dieresis" unicode="&#xa8;" 
d="M316 495c0 -8 -7 -15 -15 -15h-29c-8 0 -15 7 -15 15v40c0 8 7 15 15 15h29c8 0 15 -7 15 -15v-40zM178 495c0 -8 -7 -15 -15 -15h-29c-8 0 -15 7 -15 15v40c0 8 7 15 15 15h29c8 0 15 -7 15 -15v-40z" />
    <glyph glyph-name="AE" unicode="&#xc6;" 
d="M385 495c0 -8 -7 -15 -15 -15h-29c-8 0 -15 7 -15 15v40c0 8 7 15 15 15h29c8 0 15 -7 15 -15v-40zM316 495c0 -8 -7 -15 -15 -15h-29c-8 0 -15 7 -15 15v40c0 8 7 15 15 15h29c8 0 15 -7 15 -15v-40zM247 495c0 -8 -7 -15 -15 -15h-29c-8 0 -15 7 -15 15v40
c0 8 7 15 15 15h29c8 0 15 -7 15 -15v-40zM178 495c0 -8 -7 -15 -15 -15h-29c-8 0 -15 7 -15 15v40c0 8 7 15 15 15h29c8 0 15 -7 15 -15v-40zM247 415c0 -8 -7 -15 -15 -15h-29c-8 0 -15 7 -15 15v40c0 8 7 15 15 15h29c8 0 15 -7 15 -15v-40zM385 255c0 -8 -7 -15 -15 -15
h-29c-8 0 -15 7 -15 15v40c0 8 7 15 15 15h29c8 0 15 -7 15 -15v-40zM247 335c0 -8 -7 -15 -15 -15h-29c-8 0 -15 7 -15 15v40c0 8 7 15 15 15h29c8 0 15 -7 15 -15v-40zM316 255c0 -8 -7 -15 -15 -15h-29c-8 0 -15 7 -15 15v40c0 8 7 15 15 15h29c8 0 15 -7 15 -15v-40z
M109 415c0 -8 -7 -15 -15 -15h-29c-8 0 -15 7 -15 15v40c0 8 7 15 15 15h29c8 0 15 -7 15 -15v-40zM247 255c0 -8 -7 -15 -15 -15h-29c-8 0 -15 7 -15 15v40c0 8 7 15 15 15h29c8 0 15 -7 15 -15v-40zM109 335c0 -8 -7 -15 -15 -15h-29c-8 0 -15 7 -15 15v40c0 8 7 15 15 15
h29c8 0 15 -7 15 -15v-40zM178 255c0 -8 -7 -15 -15 -15h-29c-8 0 -15 7 -15 15v40c0 8 7 15 15 15h29c8 0 15 -7 15 -15v-40zM247 175c0 -8 -7 -15 -15 -15h-29c-8 0 -15 7 -15 15v40c0 8 7 15 15 15h29c8 0 15 -7 15 -15v-40zM385 15c0 -8 -7 -15 -15 -15h-29
c-8 0 -15 7 -15 15v40c0 8 7 15 15 15h29c8 0 15 -7 15 -15v-40zM109 255c0 -8 -7 -15 -15 -15h-29c-8 0 -15 7 -15 15v40c0 8 7 15 15 15h29c8 0 15 -7 15 -15v-40zM247 95c0 -8 -7 -15 -15 -15h-29c-8 0 -15 7 -15 15v40c0 8 7 15 15 15h29c8 0 15 -7 15 -15v-40zM316 15
c0 -8 -7 -15 -15 -15h-29c-8 0 -15 7 -15 15v40c0 8 7 15 15 15h29c8 0 15 -7 15 -15v-40zM109 175c0 -8 -7 -15 -15 -15h-29c-8 0 -15 7 -15 15v40c0 8 7 15 15 15h29c8 0 15 -7 15 -15v-40zM247 15c0 -8 -7 -15 -15 -15h-29c-8 0 -15 7 -15 15v40c0 8 7 15 15 15h29
c8 0 15 -7 15 -15v-40zM109 95c0 -8 -7 -15 -15 -15h-29c-8 0 -15 7 -15 15v40c0 8 7 15 15 15h29c8 0 15 -7 15 -15v-40zM109 15c0 -8 -7 -15 -15 -15h-29c-8 0 -15 7 -15 15v40c0 8 7 15 15 15h29c8 0 15 -7 15 -15v-40z" />
    <glyph glyph-name="infinity" unicode="&#x221e;" 
d="M316 335c0 -8 -7 -15 -15 -15h-29c-8 0 -15 7 -15 15v40c0 8 7 15 15 15h29c8 0 15 -7 15 -15v-40zM385 255c0 -8 -7 -15 -15 -15h-29c-8 0 -15 7 -15 15v40c0 8 7 15 15 15h29c8 0 15 -7 15 -15v-40zM178 335c0 -8 -7 -15 -15 -15h-29c-8 0 -15 7 -15 15v40
c0 8 7 15 15 15h29c8 0 15 -7 15 -15v-40zM247 255c0 -8 -7 -15 -15 -15h-29c-8 0 -15 7 -15 15v40c0 8 7 15 15 15h29c8 0 15 -7 15 -15v-40zM316 175c0 -8 -7 -15 -15 -15h-29c-8 0 -15 7 -15 15v40c0 8 7 15 15 15h29c8 0 15 -7 15 -15v-40zM109 255c0 -8 -7 -15 -15 -15
h-29c-8 0 -15 7 -15 15v40c0 8 7 15 15 15h29c8 0 15 -7 15 -15v-40zM178 175c0 -8 -7 -15 -15 -15h-29c-8 0 -15 7 -15 15v40c0 8 7 15 15 15h29c8 0 15 -7 15 -15v-40z" />
    <glyph glyph-name="partialdiff" unicode="&#x2202;" 
d="M247 495c0 -8 -7 -15 -15 -15h-29c-8 0 -15 7 -15 15v40c0 8 7 15 15 15h29c8 0 15 -7 15 -15v-40zM316 415c0 -8 -7 -15 -15 -15h-29c-8 0 -15 7 -15 15v40c0 8 7 15 15 15h29c8 0 15 -7 15 -15v-40zM385 335c0 -8 -7 -15 -15 -15h-29c-8 0 -15 7 -15 15v40
c0 8 7 15 15 15h29c8 0 15 -7 15 -15v-40zM178 495c0 -8 -7 -15 -15 -15h-29c-8 0 -15 7 -15 15v40c0 8 7 15 15 15h29c8 0 15 -7 15 -15v-40zM385 255c0 -8 -7 -15 -15 -15h-29c-8 0 -15 7 -15 15v40c0 8 7 15 15 15h29c8 0 15 -7 15 -15v-40zM109 495c0 -8 -7 -15 -15 -15
h-29c-8 0 -15 7 -15 15v40c0 8 7 15 15 15h29c8 0 15 -7 15 -15v-40zM385 175c0 -8 -7 -15 -15 -15h-29c-8 0 -15 7 -15 15v40c0 8 7 15 15 15h29c8 0 15 -7 15 -15v-40zM316 175c0 -8 -7 -15 -15 -15h-29c-8 0 -15 7 -15 15v40c0 8 7 15 15 15h29c8 0 15 -7 15 -15v-40z
M385 95c0 -8 -7 -15 -15 -15h-29c-8 0 -15 7 -15 15v40c0 8 7 15 15 15h29c8 0 15 -7 15 -15v-40zM247 175c0 -8 -7 -15 -15 -15h-29c-8 0 -15 7 -15 15v40c0 8 7 15 15 15h29c8 0 15 -7 15 -15v-40zM178 175c0 -8 -7 -15 -15 -15h-29c-8 0 -15 7 -15 15v40c0 8 7 15 15 15
h29c8 0 15 -7 15 -15v-40zM316 15c0 -8 -7 -15 -15 -15h-29c-8 0 -15 7 -15 15v40c0 8 7 15 15 15h29c8 0 15 -7 15 -15v-40zM247 15c0 -8 -7 -15 -15 -15h-29c-8 0 -15 7 -15 15v40c0 8 7 15 15 15h29c8 0 15 -7 15 -15v-40zM109 95c0 -8 -7 -15 -15 -15h-29
c-8 0 -15 7 -15 15v40c0 8 7 15 15 15h29c8 0 15 -7 15 -15v-40zM178 15c0 -8 -7 -15 -15 -15h-29c-8 0 -15 7 -15 15v40c0 8 7 15 15 15h29c8 0 15 -7 15 -15v-40z" />
    <glyph glyph-name="summation" unicode="&#x2211;" 
d="M385 495c0 -8 -7 -15 -15 -15h-29c-8 0 -15 7 -15 15v40c0 8 7 15 15 15h29c8 0 15 -7 15 -15v-40zM316 495c0 -8 -7 -15 -15 -15h-29c-8 0 -15 7 -15 15v40c0 8 7 15 15 15h29c8 0 15 -7 15 -15v-40zM247 495c0 -8 -7 -15 -15 -15h-29c-8 0 -15 7 -15 15v40
c0 8 7 15 15 15h29c8 0 15 -7 15 -15v-40zM178 495c0 -8 -7 -15 -15 -15h-29c-8 0 -15 7 -15 15v40c0 8 7 15 15 15h29c8 0 15 -7 15 -15v-40zM109 495c0 -8 -7 -15 -15 -15h-29c-8 0 -15 7 -15 15v40c0 8 7 15 15 15h29c8 0 15 -7 15 -15v-40zM316 255c0 -8 -7 -15 -15 -15
h-29c-8 0 -15 7 -15 15v40c0 8 7 15 15 15h29c8 0 15 -7 15 -15v-40zM109 415c0 -8 -7 -15 -15 -15h-29c-8 0 -15 7 -15 15v40c0 8 7 15 15 15h29c8 0 15 -7 15 -15v-40zM178 335c0 -8 -7 -15 -15 -15h-29c-8 0 -15 7 -15 15v40c0 8 7 15 15 15h29c8 0 15 -7 15 -15v-40z
M247 255c0 -8 -7 -15 -15 -15h-29c-8 0 -15 7 -15 15v40c0 8 7 15 15 15h29c8 0 15 -7 15 -15v-40zM385 15c0 -8 -7 -15 -15 -15h-29c-8 0 -15 7 -15 15v40c0 8 7 15 15 15h29c8 0 15 -7 15 -15v-40zM178 175c0 -8 -7 -15 -15 -15h-29c-8 0 -15 7 -15 15v40c0 8 7 15 15 15
h29c8 0 15 -7 15 -15v-40zM316 15c0 -8 -7 -15 -15 -15h-29c-8 0 -15 7 -15 15v40c0 8 7 15 15 15h29c8 0 15 -7 15 -15v-40zM247 15c0 -8 -7 -15 -15 -15h-29c-8 0 -15 7 -15 15v40c0 8 7 15 15 15h29c8 0 15 -7 15 -15v-40zM109 95c0 -8 -7 -15 -15 -15h-29
c-8 0 -15 7 -15 15v40c0 8 7 15 15 15h29c8 0 15 -7 15 -15v-40zM178 15c0 -8 -7 -15 -15 -15h-29c-8 0 -15 7 -15 15v40c0 8 7 15 15 15h29c8 0 15 -7 15 -15v-40zM109 15c0 -8 -7 -15 -15 -15h-29c-8 0 -15 7 -15 15v40c0 8 7 15 15 15h29c8 0 15 -7 15 -15v-40z" />
    <glyph glyph-name="integral" unicode="&#x222b;" 
d="M385 495c0 -8 -7 -15 -15 -15h-29c-8 0 -15 7 -15 15v40c0 8 7 15 15 15h29c8 0 15 -7 15 -15v-40zM316 495c0 -8 -7 -15 -15 -15h-29c-8 0 -15 7 -15 15v40c0 8 7 15 15 15h29c8 0 15 -7 15 -15v-40zM247 415c0 -8 -7 -15 -15 -15h-29c-8 0 -15 7 -15 15v40
c0 8 7 15 15 15h29c8 0 15 -7 15 -15v-40zM247 335c0 -8 -7 -15 -15 -15h-29c-8 0 -15 7 -15 15v40c0 8 7 15 15 15h29c8 0 15 -7 15 -15v-40zM247 255c0 -8 -7 -15 -15 -15h-29c-8 0 -15 7 -15 15v40c0 8 7 15 15 15h29c8 0 15 -7 15 -15v-40zM247 175c0 -8 -7 -15 -15 -15
h-29c-8 0 -15 7 -15 15v40c0 8 7 15 15 15h29c8 0 15 -7 15 -15v-40zM247 95c0 -8 -7 -15 -15 -15h-29c-8 0 -15 7 -15 15v40c0 8 7 15 15 15h29c8 0 15 -7 15 -15v-40zM178 15c0 -8 -7 -15 -15 -15h-29c-8 0 -15 7 -15 15v40c0 8 7 15 15 15h29c8 0 15 -7 15 -15v-40z
M109 15c0 -8 -7 -15 -15 -15h-29c-8 0 -15 7 -15 15v40c0 8 7 15 15 15h29c8 0 15 -7 15 -15v-40z" />
    <glyph glyph-name="ordfeminine" unicode="&#xaa;" 
d="M247 495c0 -8 -7 -15 -15 -15h-29c-8 0 -15 7 -15 15v40c0 8 7 15 15 15h29c8 0 15 -7 15 -15v-40zM316 415c0 -8 -7 -15 -15 -15h-29c-8 0 -15 7 -15 15v40c0 8 7 15 15 15h29c8 0 15 -7 15 -15v-40zM385 335c0 -8 -7 -15 -15 -15h-29c-8 0 -15 7 -15 15v40
c0 8 7 15 15 15h29c8 0 15 -7 15 -15v-40zM385 255c0 -8 -7 -15 -15 -15h-29c-8 0 -15 7 -15 15v40c0 8 7 15 15 15h29c8 0 15 -7 15 -15v-40zM178 415c0 -8 -7 -15 -15 -15h-29c-8 0 -15 7 -15 15v40c0 8 7 15 15 15h29c8 0 15 -7 15 -15v-40zM316 255c0 -8 -7 -15 -15 -15
h-29c-8 0 -15 7 -15 15v40c0 8 7 15 15 15h29c8 0 15 -7 15 -15v-40zM385 175c0 -8 -7 -15 -15 -15h-29c-8 0 -15 7 -15 15v40c0 8 7 15 15 15h29c8 0 15 -7 15 -15v-40zM247 255c0 -8 -7 -15 -15 -15h-29c-8 0 -15 7 -15 15v40c0 8 7 15 15 15h29c8 0 15 -7 15 -15v-40z
M109 335c0 -8 -7 -15 -15 -15h-29c-8 0 -15 7 -15 15v40c0 8 7 15 15 15h29c8 0 15 -7 15 -15v-40zM178 255c0 -8 -7 -15 -15 -15h-29c-8 0 -15 7 -15 15v40c0 8 7 15 15 15h29c8 0 15 -7 15 -15v-40zM385 15c0 -8 -7 -15 -15 -15h-29c-8 0 -15 7 -15 15v40c0 8 7 15 15 15
h29c8 0 15 -7 15 -15v-40zM109 255c0 -8 -7 -15 -15 -15h-29c-8 0 -15 7 -15 15v40c0 8 7 15 15 15h29c8 0 15 -7 15 -15v-40zM316 15c0 -8 -7 -15 -15 -15h-29c-8 0 -15 7 -15 15v40c0 8 7 15 15 15h29c8 0 15 -7 15 -15v-40zM109 175c0 -8 -7 -15 -15 -15h-29
c-8 0 -15 7 -15 15v40c0 8 7 15 15 15h29c8 0 15 -7 15 -15v-40zM247 15c0 -8 -7 -15 -15 -15h-29c-8 0 -15 7 -15 15v40c0 8 7 15 15 15h29c8 0 15 -7 15 -15v-40zM178 15c0 -8 -7 -15 -15 -15h-29c-8 0 -15 7 -15 15v40c0 8 7 15 15 15h29c8 0 15 -7 15 -15v-40zM109 15
c0 -8 -7 -15 -15 -15h-29c-8 0 -15 7 -15 15v40c0 8 7 15 15 15h29c8 0 15 -7 15 -15v-40z" />
    <glyph glyph-name="ordmasculine" unicode="&#xba;" 
d="M316 495c0 -8 -7 -15 -15 -15h-29c-8 0 -15 7 -15 15v40c0 8 7 15 15 15h29c8 0 15 -7 15 -15v-40zM385 415c0 -8 -7 -15 -15 -15h-29c-8 0 -15 7 -15 15v40c0 8 7 15 15 15h29c8 0 15 -7 15 -15v-40zM247 495c0 -8 -7 -15 -15 -15h-29c-8 0 -15 7 -15 15v40
c0 8 7 15 15 15h29c8 0 15 -7 15 -15v-40zM385 335c0 -8 -7 -15 -15 -15h-29c-8 0 -15 7 -15 15v40c0 8 7 15 15 15h29c8 0 15 -7 15 -15v-40zM178 495c0 -8 -7 -15 -15 -15h-29c-8 0 -15 7 -15 15v40c0 8 7 15 15 15h29c8 0 15 -7 15 -15v-40zM385 255c0 -8 -7 -15 -15 -15
h-29c-8 0 -15 7 -15 15v40c0 8 7 15 15 15h29c8 0 15 -7 15 -15v-40zM109 415c0 -8 -7 -15 -15 -15h-29c-8 0 -15 7 -15 15v40c0 8 7 15 15 15h29c8 0 15 -7 15 -15v-40zM316 175c0 -8 -7 -15 -15 -15h-29c-8 0 -15 7 -15 15v40c0 8 7 15 15 15h29c8 0 15 -7 15 -15v-40z
M109 335c0 -8 -7 -15 -15 -15h-29c-8 0 -15 7 -15 15v40c0 8 7 15 15 15h29c8 0 15 -7 15 -15v-40zM247 175c0 -8 -7 -15 -15 -15h-29c-8 0 -15 7 -15 15v40c0 8 7 15 15 15h29c8 0 15 -7 15 -15v-40zM385 15c0 -8 -7 -15 -15 -15h-29c-8 0 -15 7 -15 15v40c0 8 7 15 15 15
h29c8 0 15 -7 15 -15v-40zM109 255c0 -8 -7 -15 -15 -15h-29c-8 0 -15 7 -15 15v40c0 8 7 15 15 15h29c8 0 15 -7 15 -15v-40zM178 175c0 -8 -7 -15 -15 -15h-29c-8 0 -15 7 -15 15v40c0 8 7 15 15 15h29c8 0 15 -7 15 -15v-40zM316 15c0 -8 -7 -15 -15 -15h-29
c-8 0 -15 7 -15 15v40c0 8 7 15 15 15h29c8 0 15 -7 15 -15v-40zM247 15c0 -8 -7 -15 -15 -15h-29c-8 0 -15 7 -15 15v40c0 8 7 15 15 15h29c8 0 15 -7 15 -15v-40zM178 15c0 -8 -7 -15 -15 -15h-29c-8 0 -15 7 -15 15v40c0 8 7 15 15 15h29c8 0 15 -7 15 -15v-40zM109 15
c0 -8 -7 -15 -15 -15h-29c-8 0 -15 7 -15 15v40c0 8 7 15 15 15h29c8 0 15 -7 15 -15v-40z" />
    <glyph glyph-name="Omega" unicode="&#x3a9;" 
d="M316 495c0 -8 -7 -15 -15 -15h-29c-8 0 -15 7 -15 15v40c0 8 7 15 15 15h29c8 0 15 -7 15 -15v-40zM385 415c0 -8 -7 -15 -15 -15h-29c-8 0 -15 7 -15 15v40c0 8 7 15 15 15h29c8 0 15 -7 15 -15v-40zM247 495c0 -8 -7 -15 -15 -15h-29c-8 0 -15 7 -15 15v40
c0 8 7 15 15 15h29c8 0 15 -7 15 -15v-40zM385 335c0 -8 -7 -15 -15 -15h-29c-8 0 -15 7 -15 15v40c0 8 7 15 15 15h29c8 0 15 -7 15 -15v-40zM178 495c0 -8 -7 -15 -15 -15h-29c-8 0 -15 7 -15 15v40c0 8 7 15 15 15h29c8 0 15 -7 15 -15v-40zM385 255c0 -8 -7 -15 -15 -15
h-29c-8 0 -15 7 -15 15v40c0 8 7 15 15 15h29c8 0 15 -7 15 -15v-40zM385 175c0 -8 -7 -15 -15 -15h-29c-8 0 -15 7 -15 15v40c0 8 7 15 15 15h29c8 0 15 -7 15 -15v-40zM109 415c0 -8 -7 -15 -15 -15h-29c-8 0 -15 7 -15 15v40c0 8 7 15 15 15h29c8 0 15 -7 15 -15v-40z
M109 335c0 -8 -7 -15 -15 -15h-29c-8 0 -15 7 -15 15v40c0 8 7 15 15 15h29c8 0 15 -7 15 -15v-40zM316 95c0 -8 -7 -15 -15 -15h-29c-8 0 -15 7 -15 15v40c0 8 7 15 15 15h29c8 0 15 -7 15 -15v-40zM385 15c0 -8 -7 -15 -15 -15h-29c-8 0 -15 7 -15 15v40c0 8 7 15 15 15
h29c8 0 15 -7 15 -15v-40zM109 255c0 -8 -7 -15 -15 -15h-29c-8 0 -15 7 -15 15v40c0 8 7 15 15 15h29c8 0 15 -7 15 -15v-40zM316 15c0 -8 -7 -15 -15 -15h-29c-8 0 -15 7 -15 15v40c0 8 7 15 15 15h29c8 0 15 -7 15 -15v-40zM109 175c0 -8 -7 -15 -15 -15h-29
c-8 0 -15 7 -15 15v40c0 8 7 15 15 15h29c8 0 15 -7 15 -15v-40zM178 95c0 -8 -7 -15 -15 -15h-29c-8 0 -15 7 -15 15v40c0 8 7 15 15 15h29c8 0 15 -7 15 -15v-40zM178 15c0 -8 -7 -15 -15 -15h-29c-8 0 -15 7 -15 15v40c0 8 7 15 15 15h29c8 0 15 -7 15 -15v-40zM109 15
c0 -8 -7 -15 -15 -15h-29c-8 0 -15 7 -15 15v40c0 8 7 15 15 15h29c8 0 15 -7 15 -15v-40z" />
    <glyph glyph-name="Omega" unicode="&#x2126;" 
d="M316 495c0 -8 -7 -15 -15 -15h-29c-8 0 -15 7 -15 15v40c0 8 7 15 15 15h29c8 0 15 -7 15 -15v-40zM385 415c0 -8 -7 -15 -15 -15h-29c-8 0 -15 7 -15 15v40c0 8 7 15 15 15h29c8 0 15 -7 15 -15v-40zM247 495c0 -8 -7 -15 -15 -15h-29c-8 0 -15 7 -15 15v40
c0 8 7 15 15 15h29c8 0 15 -7 15 -15v-40zM385 335c0 -8 -7 -15 -15 -15h-29c-8 0 -15 7 -15 15v40c0 8 7 15 15 15h29c8 0 15 -7 15 -15v-40zM178 495c0 -8 -7 -15 -15 -15h-29c-8 0 -15 7 -15 15v40c0 8 7 15 15 15h29c8 0 15 -7 15 -15v-40zM385 255c0 -8 -7 -15 -15 -15
h-29c-8 0 -15 7 -15 15v40c0 8 7 15 15 15h29c8 0 15 -7 15 -15v-40zM385 175c0 -8 -7 -15 -15 -15h-29c-8 0 -15 7 -15 15v40c0 8 7 15 15 15h29c8 0 15 -7 15 -15v-40zM109 415c0 -8 -7 -15 -15 -15h-29c-8 0 -15 7 -15 15v40c0 8 7 15 15 15h29c8 0 15 -7 15 -15v-40z
M109 335c0 -8 -7 -15 -15 -15h-29c-8 0 -15 7 -15 15v40c0 8 7 15 15 15h29c8 0 15 -7 15 -15v-40zM316 95c0 -8 -7 -15 -15 -15h-29c-8 0 -15 7 -15 15v40c0 8 7 15 15 15h29c8 0 15 -7 15 -15v-40zM385 15c0 -8 -7 -15 -15 -15h-29c-8 0 -15 7 -15 15v40c0 8 7 15 15 15
h29c8 0 15 -7 15 -15v-40zM109 255c0 -8 -7 -15 -15 -15h-29c-8 0 -15 7 -15 15v40c0 8 7 15 15 15h29c8 0 15 -7 15 -15v-40zM316 15c0 -8 -7 -15 -15 -15h-29c-8 0 -15 7 -15 15v40c0 8 7 15 15 15h29c8 0 15 -7 15 -15v-40zM109 175c0 -8 -7 -15 -15 -15h-29
c-8 0 -15 7 -15 15v40c0 8 7 15 15 15h29c8 0 15 -7 15 -15v-40zM178 95c0 -8 -7 -15 -15 -15h-29c-8 0 -15 7 -15 15v40c0 8 7 15 15 15h29c8 0 15 -7 15 -15v-40zM178 15c0 -8 -7 -15 -15 -15h-29c-8 0 -15 7 -15 15v40c0 8 7 15 15 15h29c8 0 15 -7 15 -15v-40zM109 15
c0 -8 -7 -15 -15 -15h-29c-8 0 -15 7 -15 15v40c0 8 7 15 15 15h29c8 0 15 -7 15 -15v-40z" />
    <glyph glyph-name="ae" unicode="&#xe6;" 
d="M385 495c0 -8 -7 -15 -15 -15h-29c-8 0 -15 7 -15 15v40c0 8 7 15 15 15h29c8 0 15 -7 15 -15v-40zM316 495c0 -8 -7 -15 -15 -15h-29c-8 0 -15 7 -15 15v40c0 8 7 15 15 15h29c8 0 15 -7 15 -15v-40zM247 495c0 -8 -7 -15 -15 -15h-29c-8 0 -15 7 -15 15v40
c0 8 7 15 15 15h29c8 0 15 -7 15 -15v-40zM178 495c0 -8 -7 -15 -15 -15h-29c-8 0 -15 7 -15 15v40c0 8 7 15 15 15h29c8 0 15 -7 15 -15v-40zM247 415c0 -8 -7 -15 -15 -15h-29c-8 0 -15 7 -15 15v40c0 8 7 15 15 15h29c8 0 15 -7 15 -15v-40zM385 255c0 -8 -7 -15 -15 -15
h-29c-8 0 -15 7 -15 15v40c0 8 7 15 15 15h29c8 0 15 -7 15 -15v-40zM247 335c0 -8 -7 -15 -15 -15h-29c-8 0 -15 7 -15 15v40c0 8 7 15 15 15h29c8 0 15 -7 15 -15v-40zM316 255c0 -8 -7 -15 -15 -15h-29c-8 0 -15 7 -15 15v40c0 8 7 15 15 15h29c8 0 15 -7 15 -15v-40z
M109 415c0 -8 -7 -15 -15 -15h-29c-8 0 -15 7 -15 15v40c0 8 7 15 15 15h29c8 0 15 -7 15 -15v-40zM247 255c0 -8 -7 -15 -15 -15h-29c-8 0 -15 7 -15 15v40c0 8 7 15 15 15h29c8 0 15 -7 15 -15v-40zM109 335c0 -8 -7 -15 -15 -15h-29c-8 0 -15 7 -15 15v40c0 8 7 15 15 15
h29c8 0 15 -7 15 -15v-40zM178 255c0 -8 -7 -15 -15 -15h-29c-8 0 -15 7 -15 15v40c0 8 7 15 15 15h29c8 0 15 -7 15 -15v-40zM247 175c0 -8 -7 -15 -15 -15h-29c-8 0 -15 7 -15 15v40c0 8 7 15 15 15h29c8 0 15 -7 15 -15v-40zM385 15c0 -8 -7 -15 -15 -15h-29
c-8 0 -15 7 -15 15v40c0 8 7 15 15 15h29c8 0 15 -7 15 -15v-40zM109 255c0 -8 -7 -15 -15 -15h-29c-8 0 -15 7 -15 15v40c0 8 7 15 15 15h29c8 0 15 -7 15 -15v-40zM247 95c0 -8 -7 -15 -15 -15h-29c-8 0 -15 7 -15 15v40c0 8 7 15 15 15h29c8 0 15 -7 15 -15v-40zM316 15
c0 -8 -7 -15 -15 -15h-29c-8 0 -15 7 -15 15v40c0 8 7 15 15 15h29c8 0 15 -7 15 -15v-40zM109 175c0 -8 -7 -15 -15 -15h-29c-8 0 -15 7 -15 15v40c0 8 7 15 15 15h29c8 0 15 -7 15 -15v-40zM247 15c0 -8 -7 -15 -15 -15h-29c-8 0 -15 7 -15 15v40c0 8 7 15 15 15h29
c8 0 15 -7 15 -15v-40zM109 95c0 -8 -7 -15 -15 -15h-29c-8 0 -15 7 -15 15v40c0 8 7 15 15 15h29c8 0 15 -7 15 -15v-40zM109 15c0 -8 -7 -15 -15 -15h-29c-8 0 -15 7 -15 15v40c0 8 7 15 15 15h29c8 0 15 -7 15 -15v-40z" />
    <glyph glyph-name="questiondown" unicode="&#xbf;" 
d="M119 55c0 8 7 15 15 15h29c8 0 15 -7 15 -15v-40c0 -8 -7 -15 -15 -15h-29c-8 0 -15 7 -15 15v40zM50 135c0 8 7 15 15 15h29c8 0 15 -7 15 -15v-40c0 -8 -7 -15 -15 -15h-29c-8 0 -15 7 -15 15v40zM188 55c0 8 7 15 15 15h29c8 0 15 -7 15 -15v-40c0 -8 -7 -15 -15 -15
h-29c-8 0 -15 7 -15 15v40zM50 215c0 8 7 15 15 15h29c8 0 15 -7 15 -15v-40c0 -8 -7 -15 -15 -15h-29c-8 0 -15 7 -15 15v40zM257 55c0 8 7 15 15 15h29c8 0 15 -7 15 -15v-40c0 -8 -7 -15 -15 -15h-29c-8 0 -15 7 -15 15v40zM119 295c0 8 7 15 15 15h29c8 0 15 -7 15 -15
v-40c0 -8 -7 -15 -15 -15h-29c-8 0 -15 7 -15 15v40zM326 135c0 8 7 15 15 15h29c8 0 15 -7 15 -15v-40c0 -8 -7 -15 -15 -15h-29c-8 0 -15 7 -15 15v40zM188 295c0 8 7 15 15 15h29c8 0 15 -7 15 -15v-40c0 -8 -7 -15 -15 -15h-29c-8 0 -15 7 -15 15v40zM188 375
c0 8 7 15 15 15h29c8 0 15 -7 15 -15v-40c0 -8 -7 -15 -15 -15h-29c-8 0 -15 7 -15 15v40zM188 535c0 8 7 15 15 15h29c8 0 15 -7 15 -15v-40c0 -8 -7 -15 -15 -15h-29c-8 0 -15 7 -15 15v40z" />
    <glyph glyph-name="exclamdown" unicode="&#xa1;" horiz-adv-x="159" 
d="M50 55c0 8 7 15 15 15h29c8 0 15 -7 15 -15v-40c0 -8 -7 -15 -15 -15h-29c-8 0 -15 7 -15 15v40zM50 135c0 8 7 15 15 15h29c8 0 15 -7 15 -15v-40c0 -8 -7 -15 -15 -15h-29c-8 0 -15 7 -15 15v40zM50 215c0 8 7 15 15 15h29c8 0 15 -7 15 -15v-40c0 -8 -7 -15 -15 -15
h-29c-8 0 -15 7 -15 15v40zM50 295c0 8 7 15 15 15h29c8 0 15 -7 15 -15v-40c0 -8 -7 -15 -15 -15h-29c-8 0 -15 7 -15 15v40zM50 455c0 8 7 15 15 15h29c8 0 15 -7 15 -15v-40c0 -8 -7 -15 -15 -15h-29c-8 0 -15 7 -15 15v40zM50 535c0 8 7 15 15 15h29c8 0 15 -7 15 -15
v-40c0 -8 -7 -15 -15 -15h-29c-8 0 -15 7 -15 15v40z" />
    <glyph glyph-name="florin" unicode="&#x192;" 
d="M385 495c0 -8 -7 -15 -15 -15h-29c-8 0 -15 7 -15 15v40c0 8 7 15 15 15h29c8 0 15 -7 15 -15v-40zM316 495c0 -8 -7 -15 -15 -15h-29c-8 0 -15 7 -15 15v40c0 8 7 15 15 15h29c8 0 15 -7 15 -15v-40zM247 415c0 -8 -7 -15 -15 -15h-29c-8 0 -15 7 -15 15v40
c0 8 7 15 15 15h29c8 0 15 -7 15 -15v-40zM247 335c0 -8 -7 -15 -15 -15h-29c-8 0 -15 7 -15 15v40c0 8 7 15 15 15h29c8 0 15 -7 15 -15v-40zM247 255c0 -8 -7 -15 -15 -15h-29c-8 0 -15 7 -15 15v40c0 8 7 15 15 15h29c8 0 15 -7 15 -15v-40zM247 175c0 -8 -7 -15 -15 -15
h-29c-8 0 -15 7 -15 15v40c0 8 7 15 15 15h29c8 0 15 -7 15 -15v-40zM247 95c0 -8 -7 -15 -15 -15h-29c-8 0 -15 7 -15 15v40c0 8 7 15 15 15h29c8 0 15 -7 15 -15v-40zM178 15c0 -8 -7 -15 -15 -15h-29c-8 0 -15 7 -15 15v40c0 8 7 15 15 15h29c8 0 15 -7 15 -15v-40z
M109 15c0 -8 -7 -15 -15 -15h-29c-8 0 -15 7 -15 15v40c0 8 7 15 15 15h29c8 0 15 -7 15 -15v-40zM316 255c0 -8 -7 -15 -15 -15h-29c-8 0 -15 7 -15 15v40c0 8 7 15 15 15h29c8 0 15 -7 15 -15v-40zM178 255c0 -8 -7 -15 -15 -15h-29c-8 0 -15 7 -15 15v40c0 8 7 15 15 15
h29c8 0 15 -7 15 -15v-40z" />
    <glyph glyph-name="guillemotleft" unicode="&#xab;" 
d="M385 335c0 -8 -7 -15 -15 -15h-29c-8 0 -15 7 -15 15v40c0 8 7 15 15 15h29c8 0 15 -7 15 -15v-40zM316 255c0 -8 -7 -15 -15 -15h-29c-8 0 -15 7 -15 15v40c0 8 7 15 15 15h29c8 0 15 -7 15 -15v-40zM385 175c0 -8 -7 -15 -15 -15h-29c-8 0 -15 7 -15 15v40
c0 8 7 15 15 15h29c8 0 15 -7 15 -15v-40zM178 335c0 -8 -7 -15 -15 -15h-29c-8 0 -15 7 -15 15v40c0 8 7 15 15 15h29c8 0 15 -7 15 -15v-40zM109 255c0 -8 -7 -15 -15 -15h-29c-8 0 -15 7 -15 15v40c0 8 7 15 15 15h29c8 0 15 -7 15 -15v-40zM178 175c0 -8 -7 -15 -15 -15
h-29c-8 0 -15 7 -15 15v40c0 8 7 15 15 15h29c8 0 15 -7 15 -15v-40z" />
    <glyph glyph-name="guillemotright" unicode="&#xbb;" 
d="M316 335c0 -8 -7 -15 -15 -15h-29c-8 0 -15 7 -15 15v40c0 8 7 15 15 15h29c8 0 15 -7 15 -15v-40zM385 255c0 -8 -7 -15 -15 -15h-29c-8 0 -15 7 -15 15v40c0 8 7 15 15 15h29c8 0 15 -7 15 -15v-40zM316 175c0 -8 -7 -15 -15 -15h-29c-8 0 -15 7 -15 15v40
c0 8 7 15 15 15h29c8 0 15 -7 15 -15v-40zM109 335c0 -8 -7 -15 -15 -15h-29c-8 0 -15 7 -15 15v40c0 8 7 15 15 15h29c8 0 15 -7 15 -15v-40zM178 255c0 -8 -7 -15 -15 -15h-29c-8 0 -15 7 -15 15v40c0 8 7 15 15 15h29c8 0 15 -7 15 -15v-40zM109 175c0 -8 -7 -15 -15 -15
h-29c-8 0 -15 7 -15 15v40c0 8 7 15 15 15h29c8 0 15 -7 15 -15v-40z" />
    <glyph glyph-name="ellipsis" unicode="&#x2026;" 
d="M385 95c0 -8 -7 -15 -15 -15h-29c-8 0 -15 7 -15 15v40c0 8 7 15 15 15h29c8 0 15 -7 15 -15v-40zM385 15c0 -8 -7 -15 -15 -15h-29c-8 0 -15 7 -15 15v40c0 8 7 15 15 15h29c8 0 15 -7 15 -15v-40zM247 95c0 -8 -7 -15 -15 -15h-29c-8 0 -15 7 -15 15v40c0 8 7 15 15 15
h29c8 0 15 -7 15 -15v-40zM247 15c0 -8 -7 -15 -15 -15h-29c-8 0 -15 7 -15 15v40c0 8 7 15 15 15h29c8 0 15 -7 15 -15v-40zM109 95c0 -8 -7 -15 -15 -15h-29c-8 0 -15 7 -15 15v40c0 8 7 15 15 15h29c8 0 15 -7 15 -15v-40zM109 15c0 -8 -7 -15 -15 -15h-29
c-8 0 -15 7 -15 15v40c0 8 7 15 15 15h29c8 0 15 -7 15 -15v-40z" />
    <glyph glyph-name="OE" unicode="&#x152;" 
d="M385 495c0 -8 -7 -15 -15 -15h-29c-8 0 -15 7 -15 15v40c0 8 7 15 15 15h29c8 0 15 -7 15 -15v-40zM316 495c0 -8 -7 -15 -15 -15h-29c-8 0 -15 7 -15 15v40c0 8 7 15 15 15h29c8 0 15 -7 15 -15v-40zM247 495c0 -8 -7 -15 -15 -15h-29c-8 0 -15 7 -15 15v40
c0 8 7 15 15 15h29c8 0 15 -7 15 -15v-40zM178 495c0 -8 -7 -15 -15 -15h-29c-8 0 -15 7 -15 15v40c0 8 7 15 15 15h29c8 0 15 -7 15 -15v-40zM247 415c0 -8 -7 -15 -15 -15h-29c-8 0 -15 7 -15 15v40c0 8 7 15 15 15h29c8 0 15 -7 15 -15v-40zM385 255c0 -8 -7 -15 -15 -15
h-29c-8 0 -15 7 -15 15v40c0 8 7 15 15 15h29c8 0 15 -7 15 -15v-40zM247 335c0 -8 -7 -15 -15 -15h-29c-8 0 -15 7 -15 15v40c0 8 7 15 15 15h29c8 0 15 -7 15 -15v-40zM316 255c0 -8 -7 -15 -15 -15h-29c-8 0 -15 7 -15 15v40c0 8 7 15 15 15h29c8 0 15 -7 15 -15v-40z
M109 415c0 -8 -7 -15 -15 -15h-29c-8 0 -15 7 -15 15v40c0 8 7 15 15 15h29c8 0 15 -7 15 -15v-40zM247 255c0 -8 -7 -15 -15 -15h-29c-8 0 -15 7 -15 15v40c0 8 7 15 15 15h29c8 0 15 -7 15 -15v-40zM109 335c0 -8 -7 -15 -15 -15h-29c-8 0 -15 7 -15 15v40c0 8 7 15 15 15
h29c8 0 15 -7 15 -15v-40zM247 175c0 -8 -7 -15 -15 -15h-29c-8 0 -15 7 -15 15v40c0 8 7 15 15 15h29c8 0 15 -7 15 -15v-40zM385 15c0 -8 -7 -15 -15 -15h-29c-8 0 -15 7 -15 15v40c0 8 7 15 15 15h29c8 0 15 -7 15 -15v-40zM109 255c0 -8 -7 -15 -15 -15h-29
c-8 0 -15 7 -15 15v40c0 8 7 15 15 15h29c8 0 15 -7 15 -15v-40zM247 95c0 -8 -7 -15 -15 -15h-29c-8 0 -15 7 -15 15v40c0 8 7 15 15 15h29c8 0 15 -7 15 -15v-40zM316 15c0 -8 -7 -15 -15 -15h-29c-8 0 -15 7 -15 15v40c0 8 7 15 15 15h29c8 0 15 -7 15 -15v-40zM109 175
c0 -8 -7 -15 -15 -15h-29c-8 0 -15 7 -15 15v40c0 8 7 15 15 15h29c8 0 15 -7 15 -15v-40zM247 15c0 -8 -7 -15 -15 -15h-29c-8 0 -15 7 -15 15v40c0 8 7 15 15 15h29c8 0 15 -7 15 -15v-40zM109 95c0 -8 -7 -15 -15 -15h-29c-8 0 -15 7 -15 15v40c0 8 7 15 15 15h29
c8 0 15 -7 15 -15v-40zM178 15c0 -8 -7 -15 -15 -15h-29c-8 0 -15 7 -15 15v40c0 8 7 15 15 15h29c8 0 15 -7 15 -15v-40z" />
    <glyph glyph-name="oe" unicode="&#x153;" 
d="M385 495c0 -8 -7 -15 -15 -15h-29c-8 0 -15 7 -15 15v40c0 8 7 15 15 15h29c8 0 15 -7 15 -15v-40zM316 495c0 -8 -7 -15 -15 -15h-29c-8 0 -15 7 -15 15v40c0 8 7 15 15 15h29c8 0 15 -7 15 -15v-40zM247 495c0 -8 -7 -15 -15 -15h-29c-8 0 -15 7 -15 15v40
c0 8 7 15 15 15h29c8 0 15 -7 15 -15v-40zM178 495c0 -8 -7 -15 -15 -15h-29c-8 0 -15 7 -15 15v40c0 8 7 15 15 15h29c8 0 15 -7 15 -15v-40zM247 415c0 -8 -7 -15 -15 -15h-29c-8 0 -15 7 -15 15v40c0 8 7 15 15 15h29c8 0 15 -7 15 -15v-40zM385 255c0 -8 -7 -15 -15 -15
h-29c-8 0 -15 7 -15 15v40c0 8 7 15 15 15h29c8 0 15 -7 15 -15v-40zM247 335c0 -8 -7 -15 -15 -15h-29c-8 0 -15 7 -15 15v40c0 8 7 15 15 15h29c8 0 15 -7 15 -15v-40zM316 255c0 -8 -7 -15 -15 -15h-29c-8 0 -15 7 -15 15v40c0 8 7 15 15 15h29c8 0 15 -7 15 -15v-40z
M109 415c0 -8 -7 -15 -15 -15h-29c-8 0 -15 7 -15 15v40c0 8 7 15 15 15h29c8 0 15 -7 15 -15v-40zM247 255c0 -8 -7 -15 -15 -15h-29c-8 0 -15 7 -15 15v40c0 8 7 15 15 15h29c8 0 15 -7 15 -15v-40zM109 335c0 -8 -7 -15 -15 -15h-29c-8 0 -15 7 -15 15v40c0 8 7 15 15 15
h29c8 0 15 -7 15 -15v-40zM247 175c0 -8 -7 -15 -15 -15h-29c-8 0 -15 7 -15 15v40c0 8 7 15 15 15h29c8 0 15 -7 15 -15v-40zM385 15c0 -8 -7 -15 -15 -15h-29c-8 0 -15 7 -15 15v40c0 8 7 15 15 15h29c8 0 15 -7 15 -15v-40zM109 255c0 -8 -7 -15 -15 -15h-29
c-8 0 -15 7 -15 15v40c0 8 7 15 15 15h29c8 0 15 -7 15 -15v-40zM247 95c0 -8 -7 -15 -15 -15h-29c-8 0 -15 7 -15 15v40c0 8 7 15 15 15h29c8 0 15 -7 15 -15v-40zM316 15c0 -8 -7 -15 -15 -15h-29c-8 0 -15 7 -15 15v40c0 8 7 15 15 15h29c8 0 15 -7 15 -15v-40zM109 175
c0 -8 -7 -15 -15 -15h-29c-8 0 -15 7 -15 15v40c0 8 7 15 15 15h29c8 0 15 -7 15 -15v-40zM247 15c0 -8 -7 -15 -15 -15h-29c-8 0 -15 7 -15 15v40c0 8 7 15 15 15h29c8 0 15 -7 15 -15v-40zM109 95c0 -8 -7 -15 -15 -15h-29c-8 0 -15 7 -15 15v40c0 8 7 15 15 15h29
c8 0 15 -7 15 -15v-40zM178 15c0 -8 -7 -15 -15 -15h-29c-8 0 -15 7 -15 15v40c0 8 7 15 15 15h29c8 0 15 -7 15 -15v-40z" />
    <glyph glyph-name="fraction" unicode="&#x2044;" 
d="M385 495c0 -8 -7 -15 -15 -15h-29c-8 0 -15 7 -15 15v40c0 8 7 15 15 15h29c8 0 15 -7 15 -15v-40zM385 415c0 -8 -7 -15 -15 -15h-29c-8 0 -15 7 -15 15v40c0 8 7 15 15 15h29c8 0 15 -7 15 -15v-40zM316 335c0 -8 -7 -15 -15 -15h-29c-8 0 -15 7 -15 15c1 13 0 30 0 40
c0 8 7 15 15 15h29c8 0 15 -7 15 -15v-40zM247 255c0 -8 -7 -15 -15 -15h-29c-8 0 -15 7 -15 15v40c0 8 7 15 15 15h29c8 0 15 -7 15 -15v-40zM178 175c0 -8 -7 -15 -15 -15h-29c-8 0 -15 7 -15 15v40c0 8 7 15 15 15h29c8 0 15 -7 15 -15v-40zM109 95c0 -8 -7 -15 -15 -15
h-29c-8 0 -15 7 -15 15v40c0 8 7 15 15 15h29c8 0 15 -7 15 -15v-40zM109 15c0 -8 -7 -15 -15 -15h-29c-8 0 -15 7 -15 15v40c0 8 7 15 15 15h29c8 0 15 -7 15 -15v-40z" />
    <glyph glyph-name="Euro" unicode="&#x20ac;" 
d="M316 495c0 -8 -7 -15 -15 -15h-29c-8 0 -15 7 -15 15v40c0 8 7 15 15 15h29c8 0 15 -7 15 -15v-40zM385 415c0 -8 -7 -15 -15 -15h-29c-8 0 -15 7 -15 15v40c0 8 7 15 15 15h29c8 0 15 -7 15 -15v-40zM247 495c0 -8 -7 -15 -15 -15h-29c-8 0 -15 7 -15 15v40
c0 8 7 15 15 15h29c8 0 15 -7 15 -15v-40zM178 495c0 -8 -7 -15 -15 -15h-29c-8 0 -15 7 -15 15v40c0 8 7 15 15 15h29c8 0 15 -7 15 -15v-40zM247 335c0 -8 -7 -15 -15 -15h-29c-8 0 -15 7 -15 15v40c0 8 7 15 15 15h29c8 0 15 -7 15 -15v-40zM109 415c0 -8 -7 -15 -15 -15
h-29c-8 0 -15 7 -15 15v40c0 8 7 15 15 15h29c8 0 15 -7 15 -15v-40zM178 335c0 -8 -7 -15 -15 -15h-29c-8 0 -15 7 -15 15v40c0 8 7 15 15 15h29c8 0 15 -7 15 -15v-40zM385 95c0 -8 -7 -15 -15 -15h-29c-8 0 -15 7 -15 15v40c0 8 7 15 15 15h29c8 0 15 -7 15 -15v-40z
M109 335c0 -8 -7 -15 -15 -15h-29c-8 0 -15 7 -15 15v40c0 8 7 15 15 15h29c8 0 15 -7 15 -15v-40zM247 175c0 -8 -7 -15 -15 -15h-29c-8 0 -15 7 -15 15v40c0 8 7 15 15 15h29c8 0 15 -7 15 -15v-40zM109 255c0 -8 -7 -15 -15 -15h-29c-8 0 -15 7 -15 15v40c0 8 7 15 15 15
h29c8 0 15 -7 15 -15v-40zM178 175c0 -8 -7 -15 -15 -15h-29c-8 0 -15 7 -15 15v40c0 8 7 15 15 15h29c8 0 15 -7 15 -15v-40zM316 15c0 -8 -7 -15 -15 -15h-29c-8 0 -15 7 -15 15v40c0 8 7 15 15 15h29c8 0 15 -7 15 -15v-40zM109 175c0 -8 -7 -15 -15 -15h-29
c-8 0 -15 7 -15 15v40c0 8 7 15 15 15h29c8 0 15 -7 15 -15v-40zM247 15c0 -8 -7 -15 -15 -15h-29c-8 0 -15 7 -15 15v40c0 8 7 15 15 15h29c8 0 15 -7 15 -15v-40zM109 95c0 -8 -7 -15 -15 -15h-29c-8 0 -15 7 -15 15v40c0 8 7 15 15 15h29c8 0 15 -7 15 -15v-40zM178 15
c0 -8 -7 -15 -15 -15h-29c-8 0 -15 7 -15 15v40c0 8 7 15 15 15h29c8 0 15 -7 15 -15v-40z" />
    <glyph glyph-name="guilsinglleft" unicode="&#x2039;" horiz-adv-x="228" 
d="M178 335c0 -8 -7 -15 -15 -15h-29c-8 0 -15 7 -15 15v40c0 8 7 15 15 15h29c8 0 15 -7 15 -15v-40zM109 255c0 -8 -7 -15 -15 -15h-29c-8 0 -15 7 -15 15v40c0 8 7 15 15 15h29c8 0 15 -7 15 -15v-40zM178 175c0 -8 -7 -15 -15 -15h-29c-8 0 -15 7 -15 15v40
c0 8 7 15 15 15h29c8 0 15 -7 15 -15v-40z" />
    <glyph glyph-name="guilsinglright" unicode="&#x203a;" horiz-adv-x="228" 
d="M109 335c0 -8 -7 -15 -15 -15h-29c-8 0 -15 7 -15 15v40c0 8 7 15 15 15h29c8 0 15 -7 15 -15v-40zM178 255c0 -8 -7 -15 -15 -15h-29c-8 0 -15 7 -15 15v40c0 8 7 15 15 15h29c8 0 15 -7 15 -15v-40zM109 175c0 -8 -7 -15 -15 -15h-29c-8 0 -15 7 -15 15v40
c0 8 7 15 15 15h29c8 0 15 -7 15 -15v-40z" />
    <glyph glyph-name="daggerdbl" unicode="&#x2021;" horiz-adv-x="297" 
d="M178 495c0 -8 -7 -15 -15 -15h-29c-8 0 -15 7 -15 15v40c0 8 7 15 15 15h29c8 0 15 -7 15 -15v-40zM178 415c0 -8 -7 -15 -15 -15h-29c-8 0 -15 7 -15 15v40c0 8 7 15 15 15h29c8 0 15 -7 15 -15v-40zM247 335c0 -8 -7 -15 -15 -15h-29c-8 0 -15 7 -15 15v40
c0 8 7 15 15 15h29c8 0 15 -7 15 -15v-40zM178 335c0 -8 -7 -15 -15 -15h-29c-8 0 -15 7 -15 15v40c0 8 7 15 15 15h29c8 0 15 -7 15 -15v-40zM109 335c0 -8 -7 -15 -15 -15h-29c-8 0 -15 7 -15 15v40c0 8 7 15 15 15h29c8 0 15 -7 15 -15v-40zM178 255c0 -8 -7 -15 -15 -15
h-29c-8 0 -15 7 -15 15v40c0 8 7 15 15 15h29c8 0 15 -7 15 -15v-40zM247 175c0 -8 -7 -15 -15 -15h-29c-8 0 -15 7 -15 15v40c0 8 7 15 15 15h29c8 0 15 -7 15 -15v-40zM178 175c0 -8 -7 -15 -15 -15h-29c-8 0 -15 7 -15 15v40c0 8 7 15 15 15h29c8 0 15 -7 15 -15v-40z
M109 175c0 -8 -7 -15 -15 -15h-29c-8 0 -15 7 -15 15v40c0 8 7 15 15 15h29c8 0 15 -7 15 -15v-40zM178 95c0 -8 -7 -15 -15 -15h-29c-8 0 -15 7 -15 15v40c0 8 7 15 15 15h29c8 0 15 -7 15 -15v-40zM178 15c0 -8 -7 -15 -15 -15h-29c-8 0 -15 7 -15 15v40c0 8 7 15 15 15
h29c8 0 15 -7 15 -15v-40z" />
    <glyph glyph-name="circumflex" unicode="&#x2c6;" 
d="M316 495c0 -8 -7 -15 -15 -15h-29c-8 0 -15 7 -15 15v40c0 8 7 15 15 15h29c8 0 15 -7 15 -15v-40zM178 495c0 -8 -7 -15 -15 -15h-29c-8 0 -15 7 -15 15v40c0 8 7 15 15 15h29c8 0 15 -7 15 -15v-40zM247 575c0 -8 -7 -15 -15 -15h-29c-8 0 -15 7 -15 15v40
c0 8 7 15 15 15h29c8 0 15 -7 15 -15v-40z" />
    <glyph glyph-name="tilde" unicode="&#x2dc;" 
d="M385 575c0 -8 -7 -15 -15 -15h-29c-8 0 -15 7 -15 15v40c0 8 7 15 15 15h29c8 0 15 -7 15 -15v-40zM247 575c0 -8 -7 -15 -15 -15h-29c-8 0 -15 7 -15 15v40c0 8 7 15 15 15h29c8 0 15 -7 15 -15v-40zM316 495c0 -8 -7 -15 -15 -15h-29c-8 0 -15 7 -15 15v40
c0 8 7 15 15 15h29c8 0 15 -7 15 -15v-40zM178 575c0 -8 -7 -15 -15 -15h-29c-8 0 -15 7 -15 15v40c0 8 7 15 15 15h29c8 0 15 -7 15 -15v-40zM109 495c0 -8 -7 -15 -15 -15h-29c-8 0 -15 7 -15 15v40c0 8 7 15 15 15h29c8 0 15 -7 15 -15v-40z" />
    <glyph glyph-name="ring" unicode="&#x2da;" 
d="M316 415c0 -8 -7 -15 -15 -15h-29c-8 0 -15 7 -15 15v40c0 8 7 15 15 15h29c8 0 15 -7 15 -15v-40zM178 415c0 -8 -7 -15 -15 -15h-29c-8 0 -15 7 -15 15v40c0 8 7 15 15 15h29c8 0 15 -7 15 -15v-40zM247 495c0 -8 -7 -15 -15 -15h-29c-8 0 -15 7 -15 15v40
c0 8 7 15 15 15h29c8 0 15 -7 15 -15v-40z" />
    <glyph glyph-name="cedilla" unicode="&#xb8;" 
d="M247 95c0 -8 -7 -15 -15 -15h-29c-8 0 -15 7 -15 15v40c0 8 7 15 15 15h29c8 0 15 -7 15 -15v-40zM247 15c0 -8 -7 -15 -15 -15h-29c-8 0 -15 7 -15 15v40c0 8 7 15 15 15h29c8 0 15 -7 15 -15v-40zM178 15c0 -8 -7 -15 -15 -15h-29c-8 0 -15 7 -15 15v40c0 8 7 15 15 15
h29c8 0 15 -7 15 -15v-40z" />
    <glyph glyph-name="caron" unicode="&#x2c7;" 
d="M316 495c0 -8 -7 -15 -15 -15h-29c-8 0 -15 7 -15 15v40c0 8 7 15 15 15h29c8 0 15 -7 15 -15v-40zM178 495c0 -8 -7 -15 -15 -15h-29c-8 0 -15 7 -15 15v40c0 8 7 15 15 15h29c8 0 15 -7 15 -15v-40zM247 415c0 -8 -7 -15 -15 -15h-29c-8 0 -15 7 -15 15v40
c0 8 7 15 15 15h29c8 0 15 -7 15 -15v-40z" />
    <glyph glyph-name="Eth" unicode="&#xd0;" 
d="M316 495c0 -8 -7 -15 -15 -15h-29c-8 0 -15 7 -15 15v40c0 8 7 15 15 15h29c8 0 15 -7 15 -15v-40zM385 415c0 -8 -7 -15 -15 -15h-29c-8 0 -15 7 -15 15v40c0 8 7 15 15 15h29c8 0 15 -7 15 -15v-40zM247 495c0 -8 -7 -15 -15 -15h-29c-8 0 -15 7 -15 15v40
c0 8 7 15 15 15h29c8 0 15 -7 15 -15v-40zM385 335c0 -8 -7 -15 -15 -15h-29c-8 0 -15 7 -15 15v40c0 8 7 15 15 15h29c8 0 15 -7 15 -15v-40zM178 495c0 -8 -7 -15 -15 -15h-29c-8 0 -15 7 -15 15v40c0 8 7 15 15 15h29c8 0 15 -7 15 -15v-40zM385 255c0 -8 -7 -15 -15 -15
h-29c-8 0 -15 7 -15 15v40c0 8 7 15 15 15h29c8 0 15 -7 15 -15v-40zM109 495c0 -8 -7 -15 -15 -15h-29c-8 0 -15 7 -15 15v40c0 8 7 15 15 15h29c8 0 15 -7 15 -15v-40zM385 175c0 -8 -7 -15 -15 -15h-29c-8 0 -15 7 -15 15v40c0 8 7 15 15 15h29c8 0 15 -7 15 -15v-40z
M109 415c0 -8 -7 -15 -15 -15h-29c-8 0 -15 7 -15 15v40c0 8 7 15 15 15h29c8 0 15 -7 15 -15v-40zM247 255c0 -8 -7 -15 -15 -15h-29c-8 0 -15 7 -15 15v40c0 8 7 15 15 15h29c8 0 15 -7 15 -15v-40zM385 95c0 -8 -7 -15 -15 -15h-29c-8 0 -15 7 -15 15v40c0 8 7 15 15 15
h29c8 0 15 -7 15 -15v-40zM109 335c0 -8 -7 -15 -15 -15h-29c-8 0 -15 7 -15 15v40c0 8 7 15 15 15h29c8 0 15 -7 15 -15v-40zM178 255c0 -8 -7 -15 -15 -15h-29c-8 0 -15 7 -15 15v40c0 8 7 15 15 15h29c8 0 15 -7 15 -15v-40zM109 255c0 -8 -7 -15 -15 -15h-29
c-8 0 -15 7 -15 15v40c0 8 7 15 15 15h29c8 0 15 -7 15 -15v-40zM316 15c0 -8 -7 -15 -15 -15h-29c-8 0 -15 7 -15 15v40c0 8 7 15 15 15h29c8 0 15 -7 15 -15v-40zM109 175c0 -8 -7 -15 -15 -15h-29c-8 0 -15 7 -15 15v40c0 8 7 15 15 15h29c8 0 15 -7 15 -15v-40zM247 15
c0 -8 -7 -15 -15 -15h-29c-8 0 -15 7 -15 15v40c0 8 7 15 15 15h29c8 0 15 -7 15 -15v-40zM109 95c0 -8 -7 -15 -15 -15h-29c-8 0 -15 7 -15 15v40c0 8 7 15 15 15h29c8 0 15 -7 15 -15v-40zM178 15c0 -8 -7 -15 -15 -15h-29c-8 0 -15 7 -15 15v40c0 8 7 15 15 15h29
c8 0 15 -7 15 -15v-40zM109 15c0 -8 -7 -15 -15 -15h-29c-8 0 -15 7 -15 15v40c0 8 7 15 15 15h29c8 0 15 -7 15 -15v-40z" />
    <glyph glyph-name="bullet" unicode="&#x2022;" horiz-adv-x="297" 
d="M178 335c0 -8 -7 -15 -15 -15h-29c-8 0 -15 7 -15 15v40c0 8 7 15 15 15h29c8 0 15 -7 15 -15v-40zM247 255c0 -8 -7 -15 -15 -15h-29c-8 0 -15 7 -15 15v40c0 8 7 15 15 15h29c8 0 15 -7 15 -15v-40zM178 255c0 -8 -7 -15 -15 -15h-29c-8 0 -15 7 -15 15v40
c0 8 7 15 15 15h29c8 0 15 -7 15 -15v-40zM109 255c0 -8 -7 -15 -15 -15h-29c-8 0 -15 7 -15 15v40c0 8 7 15 15 15h29c8 0 15 -7 15 -15v-40zM178 175c0 -8 -7 -15 -15 -15h-29c-8 0 -15 7 -15 15v40c0 8 7 15 15 15h29c8 0 15 -7 15 -15v-40z" />
    <glyph glyph-name="periodcentered" unicode="&#xb7;" horiz-adv-x="159" 
d="M109 255c0 -8 -7 -15 -15 -15h-29c-8 0 -15 7 -15 15v40c0 8 7 15 15 15h29c8 0 15 -7 15 -15v-40z" />
    <glyph glyph-name="oslash" unicode="&#xf8;" 
d="M385 495c0 -8 -7 -15 -15 -15h-29c-8 0 -15 7 -15 15v40c0 8 7 15 15 15h29c8 0 15 -7 15 -15v-40zM316 495c0 -8 -7 -15 -15 -15h-29c-8 0 -15 7 -15 15v40c0 8 7 15 15 15h29c8 0 15 -7 15 -15v-40zM385 415c0 -8 -7 -15 -15 -15h-29c-8 0 -15 7 -15 15v40
c0 8 7 15 15 15h29c8 0 15 -7 15 -15v-40zM247 495c0 -8 -7 -15 -15 -15h-29c-8 0 -15 7 -15 15v40c0 8 7 15 15 15h29c8 0 15 -7 15 -15v-40zM316 415c0 -8 -7 -15 -15 -15h-29c-8 0 -15 7 -15 15v40c0 8 7 15 15 15h29c8 0 15 -7 15 -15v-40zM385 335c0 -8 -7 -15 -15 -15
h-29c-8 0 -15 7 -15 15v40c0 8 7 15 15 15h29c8 0 15 -7 15 -15v-40zM178 495c0 -8 -7 -15 -15 -15h-29c-8 0 -15 7 -15 15v40c0 8 7 15 15 15h29c8 0 15 -7 15 -15v-40zM385 255c0 -8 -7 -15 -15 -15h-29c-8 0 -15 7 -15 15v40c0 8 7 15 15 15h29c8 0 15 -7 15 -15v-40z
M247 335c0 -8 -7 -15 -15 -15h-29c-8 0 -15 7 -15 15v40c0 8 7 15 15 15h29c8 0 15 -7 15 -15v-40zM385 175c0 -8 -7 -15 -15 -15h-29c-8 0 -15 7 -15 15v40c0 8 7 15 15 15h29c8 0 15 -7 15 -15v-40zM109 415c0 -8 -7 -15 -15 -15h-29c-8 0 -15 7 -15 15v40c0 8 7 15 15 15
h29c8 0 15 -7 15 -15v-40zM247 255c0 -8 -7 -15 -15 -15h-29c-8 0 -15 7 -15 15v40c0 8 7 15 15 15h29c8 0 15 -7 15 -15v-40zM385 95c0 -8 -7 -15 -15 -15h-29c-8 0 -15 7 -15 15v40c0 8 7 15 15 15h29c8 0 15 -7 15 -15v-40zM109 335c0 -8 -7 -15 -15 -15h-29
c-8 0 -15 7 -15 15v40c0 8 7 15 15 15h29c8 0 15 -7 15 -15v-40zM247 175c0 -8 -7 -15 -15 -15h-29c-8 0 -15 7 -15 15v40c0 8 7 15 15 15h29c8 0 15 -7 15 -15v-40zM109 255c0 -8 -7 -15 -15 -15h-29c-8 0 -15 7 -15 15v40c0 8 7 15 15 15h29c8 0 15 -7 15 -15v-40zM316 15
c0 -8 -7 -15 -15 -15h-29c-8 0 -15 7 -15 15v40c0 8 7 15 15 15h29c8 0 15 -7 15 -15v-40zM109 175c0 -8 -7 -15 -15 -15h-29c-8 0 -15 7 -15 15v40c0 8 7 15 15 15h29c8 0 15 -7 15 -15v-40zM178 95c0 -8 -7 -15 -15 -15h-29c-8 0 -15 7 -15 15v40c0 8 7 15 15 15h29
c8 0 15 -7 15 -15v-40zM247 15c0 -8 -7 -15 -15 -15h-29c-8 0 -15 7 -15 15v40c0 8 7 15 15 15h29c8 0 15 -7 15 -15v-40zM109 95c0 -8 -7 -15 -15 -15h-29c-8 0 -15 7 -15 15v40c0 8 7 15 15 15h29c8 0 15 -7 15 -15v-40zM178 15c0 -8 -7 -15 -15 -15h-29
c-8 0 -15 7 -15 15v40c0 8 7 15 15 15h29c8 0 15 -7 15 -15v-40zM109 15c0 -8 -7 -15 -15 -15h-29c-8 0 -15 7 -15 15v40c0 8 7 15 15 15h29c8 0 15 -7 15 -15v-40z" />
    <glyph glyph-name="Oslash" unicode="&#xd8;" 
d="M385 495c0 -8 -7 -15 -15 -15h-29c-8 0 -15 7 -15 15v40c0 8 7 15 15 15h29c8 0 15 -7 15 -15v-40zM316 495c0 -8 -7 -15 -15 -15h-29c-8 0 -15 7 -15 15v40c0 8 7 15 15 15h29c8 0 15 -7 15 -15v-40zM385 415c0 -8 -7 -15 -15 -15h-29c-8 0 -15 7 -15 15v40
c0 8 7 15 15 15h29c8 0 15 -7 15 -15v-40zM247 495c0 -8 -7 -15 -15 -15h-29c-8 0 -15 7 -15 15v40c0 8 7 15 15 15h29c8 0 15 -7 15 -15v-40zM316 415c0 -8 -7 -15 -15 -15h-29c-8 0 -15 7 -15 15v40c0 8 7 15 15 15h29c8 0 15 -7 15 -15v-40zM385 335c0 -8 -7 -15 -15 -15
h-29c-8 0 -15 7 -15 15v40c0 8 7 15 15 15h29c8 0 15 -7 15 -15v-40zM178 495c0 -8 -7 -15 -15 -15h-29c-8 0 -15 7 -15 15v40c0 8 7 15 15 15h29c8 0 15 -7 15 -15v-40zM385 255c0 -8 -7 -15 -15 -15h-29c-8 0 -15 7 -15 15v40c0 8 7 15 15 15h29c8 0 15 -7 15 -15v-40z
M247 335c0 -8 -7 -15 -15 -15h-29c-8 0 -15 7 -15 15v40c0 8 7 15 15 15h29c8 0 15 -7 15 -15v-40zM385 175c0 -8 -7 -15 -15 -15h-29c-8 0 -15 7 -15 15v40c0 8 7 15 15 15h29c8 0 15 -7 15 -15v-40zM109 415c0 -8 -7 -15 -15 -15h-29c-8 0 -15 7 -15 15v40c0 8 7 15 15 15
h29c8 0 15 -7 15 -15v-40zM247 255c0 -8 -7 -15 -15 -15h-29c-8 0 -15 7 -15 15v40c0 8 7 15 15 15h29c8 0 15 -7 15 -15v-40zM385 95c0 -8 -7 -15 -15 -15h-29c-8 0 -15 7 -15 15v40c0 8 7 15 15 15h29c8 0 15 -7 15 -15v-40zM109 335c0 -8 -7 -15 -15 -15h-29
c-8 0 -15 7 -15 15v40c0 8 7 15 15 15h29c8 0 15 -7 15 -15v-40zM247 175c0 -8 -7 -15 -15 -15h-29c-8 0 -15 7 -15 15v40c0 8 7 15 15 15h29c8 0 15 -7 15 -15v-40zM109 255c0 -8 -7 -15 -15 -15h-29c-8 0 -15 7 -15 15v40c0 8 7 15 15 15h29c8 0 15 -7 15 -15v-40zM316 15
c0 -8 -7 -15 -15 -15h-29c-8 0 -15 7 -15 15v40c0 8 7 15 15 15h29c8 0 15 -7 15 -15v-40zM109 175c0 -8 -7 -15 -15 -15h-29c-8 0 -15 7 -15 15v40c0 8 7 15 15 15h29c8 0 15 -7 15 -15v-40zM178 95c0 -8 -7 -15 -15 -15h-29c-8 0 -15 7 -15 15v40c0 8 7 15 15 15h29
c8 0 15 -7 15 -15v-40zM247 15c0 -8 -7 -15 -15 -15h-29c-8 0 -15 7 -15 15v40c0 8 7 15 15 15h29c8 0 15 -7 15 -15v-40zM109 95c0 -8 -7 -15 -15 -15h-29c-8 0 -15 7 -15 15v40c0 8 7 15 15 15h29c8 0 15 -7 15 -15v-40zM178 15c0 -8 -7 -15 -15 -15h-29
c-8 0 -15 7 -15 15v40c0 8 7 15 15 15h29c8 0 15 -7 15 -15v-40zM109 15c0 -8 -7 -15 -15 -15h-29c-8 0 -15 7 -15 15v40c0 8 7 15 15 15h29c8 0 15 -7 15 -15v-40z" />
    <glyph glyph-name="mu" unicode="&#xb5;" 
d="M385 495c0 -8 -7 -15 -15 -15h-29c-8 0 -15 7 -15 15v40c0 8 7 15 15 15h29c8 0 15 -7 15 -15v-40zM385 415c0 -8 -7 -15 -15 -15h-29c-8 0 -15 7 -15 15v40c0 8 7 15 15 15h29c8 0 15 -7 15 -15v-40zM385 335c0 -8 -7 -15 -15 -15h-29c-8 0 -15 7 -15 15v40
c0 8 7 15 15 15h29c8 0 15 -7 15 -15v-40zM385 255c0 -8 -7 -15 -15 -15h-29c-8 0 -15 7 -15 15v40c0 8 7 15 15 15h29c8 0 15 -7 15 -15v-40zM109 495c0 -8 -7 -15 -15 -15h-29c-8 0 -15 7 -15 15v40c0 8 7 15 15 15h29c8 0 15 -7 15 -15v-40zM316 255c0 -8 -7 -15 -15 -15
h-29c-8 0 -15 7 -15 15v40c0 8 7 15 15 15h29c8 0 15 -7 15 -15v-40zM385 175c0 -8 -7 -15 -15 -15h-29c-8 0 -15 7 -15 15v40c0 8 7 15 15 15h29c8 0 15 -7 15 -15v-40zM109 415c0 -8 -7 -15 -15 -15h-29c-8 0 -15 7 -15 15v40c0 8 7 15 15 15h29c8 0 15 -7 15 -15v-40z
M109 335c0 -8 -7 -15 -15 -15h-29c-8 0 -15 7 -15 15v40c0 8 7 15 15 15h29c8 0 15 -7 15 -15v-40zM178 255c0 -8 -7 -15 -15 -15h-29c-8 0 -15 7 -15 15v40c0 8 7 15 15 15h29c8 0 15 -7 15 -15v-40zM247 175c0 -8 -7 -15 -15 -15h-29c-8 0 -15 7 -15 15v40c0 8 7 15 15 15
h29c8 0 15 -7 15 -15v-40zM109 255c0 -8 -7 -15 -15 -15h-29c-8 0 -15 7 -15 15v40c0 8 7 15 15 15h29c8 0 15 -7 15 -15v-40zM109 175c0 -8 -7 -15 -15 -15h-29c-8 0 -15 7 -15 15v40c0 8 7 15 15 15h29c8 0 15 -7 15 -15v-40zM109 95c0 -8 -7 -15 -15 -15h-29
c-8 0 -15 7 -15 15v40c0 8 7 15 15 15h29c8 0 15 -7 15 -15v-40zM109 15c0 -8 -7 -15 -15 -15h-29c-8 0 -15 7 -15 15v40c0 8 7 15 15 15h29c8 0 15 -7 15 -15v-40z" />
    <glyph glyph-name="mu" unicode="&#x3bc;" 
d="M385 495c0 -8 -7 -15 -15 -15h-29c-8 0 -15 7 -15 15v40c0 8 7 15 15 15h29c8 0 15 -7 15 -15v-40zM385 415c0 -8 -7 -15 -15 -15h-29c-8 0 -15 7 -15 15v40c0 8 7 15 15 15h29c8 0 15 -7 15 -15v-40zM385 335c0 -8 -7 -15 -15 -15h-29c-8 0 -15 7 -15 15v40
c0 8 7 15 15 15h29c8 0 15 -7 15 -15v-40zM385 255c0 -8 -7 -15 -15 -15h-29c-8 0 -15 7 -15 15v40c0 8 7 15 15 15h29c8 0 15 -7 15 -15v-40zM109 495c0 -8 -7 -15 -15 -15h-29c-8 0 -15 7 -15 15v40c0 8 7 15 15 15h29c8 0 15 -7 15 -15v-40zM316 255c0 -8 -7 -15 -15 -15
h-29c-8 0 -15 7 -15 15v40c0 8 7 15 15 15h29c8 0 15 -7 15 -15v-40zM385 175c0 -8 -7 -15 -15 -15h-29c-8 0 -15 7 -15 15v40c0 8 7 15 15 15h29c8 0 15 -7 15 -15v-40zM109 415c0 -8 -7 -15 -15 -15h-29c-8 0 -15 7 -15 15v40c0 8 7 15 15 15h29c8 0 15 -7 15 -15v-40z
M109 335c0 -8 -7 -15 -15 -15h-29c-8 0 -15 7 -15 15v40c0 8 7 15 15 15h29c8 0 15 -7 15 -15v-40zM178 255c0 -8 -7 -15 -15 -15h-29c-8 0 -15 7 -15 15v40c0 8 7 15 15 15h29c8 0 15 -7 15 -15v-40zM247 175c0 -8 -7 -15 -15 -15h-29c-8 0 -15 7 -15 15v40c0 8 7 15 15 15
h29c8 0 15 -7 15 -15v-40zM109 255c0 -8 -7 -15 -15 -15h-29c-8 0 -15 7 -15 15v40c0 8 7 15 15 15h29c8 0 15 -7 15 -15v-40zM109 175c0 -8 -7 -15 -15 -15h-29c-8 0 -15 7 -15 15v40c0 8 7 15 15 15h29c8 0 15 -7 15 -15v-40zM109 95c0 -8 -7 -15 -15 -15h-29
c-8 0 -15 7 -15 15v40c0 8 7 15 15 15h29c8 0 15 -7 15 -15v-40zM109 15c0 -8 -7 -15 -15 -15h-29c-8 0 -15 7 -15 15v40c0 8 7 15 15 15h29c8 0 15 -7 15 -15v-40z" />
    <glyph glyph-name="quotesinglbase" unicode="&#x201a;" horiz-adv-x="228" 
d="M178 95c0 -8 -7 -15 -15 -15h-29c-8 0 -15 7 -15 15v40c0 8 7 15 15 15h29c8 0 15 -7 15 -15v-40zM178 15c0 -8 -7 -15 -15 -15h-29c-8 0 -15 7 -15 15v40c0 8 7 15 15 15h29c8 0 15 -7 15 -15v-40zM109 -65c0 -8 -7 -15 -15 -15h-29c-8 0 -15 7 -15 15v40
c0 8 7 15 15 15h29c8 0 15 -7 15 -15v-40z" />
    <glyph glyph-name="quotedblbase" unicode="&#x201e;" horiz-adv-x="366" 
d="M178 95c0 -8 -7 -15 -15 -15h-29c-8 0 -15 7 -15 15v40c0 8 7 15 15 15h29c8 0 15 -7 15 -15v-40zM178 15c0 -8 -7 -15 -15 -15h-29c-8 0 -15 7 -15 15v40c0 8 7 15 15 15h29c8 0 15 -7 15 -15v-40zM109 -65c0 -8 -7 -15 -15 -15h-29c-8 0 -15 7 -15 15v40
c0 8 7 15 15 15h29c8 0 15 -7 15 -15v-40zM316 95c0 -8 -7 -15 -15 -15h-29c-8 0 -15 7 -15 15v40c0 8 7 15 15 15h29c8 0 15 -7 15 -15v-40zM316 15c0 -8 -7 -15 -15 -15h-29c-8 0 -15 7 -15 15v40c0 8 7 15 15 15h29c8 0 15 -7 15 -15v-40zM247 -65c0 -8 -7 -15 -15 -15
h-29c-8 0 -15 7 -15 15v40c0 8 7 15 15 15h29c8 0 15 -7 15 -15v-40z" />
    <glyph glyph-name="quotedblleft" unicode="&#x201c;" horiz-adv-x="366" 
d="M188 415v40c0 8 7 15 15 15h29c8 0 15 -7 15 -15v-40c0 -8 -7 -15 -15 -15h-29c-8 0 -15 7 -15 15zM188 495v40c0 8 7 15 15 15h29c8 0 15 -7 15 -15v-40c0 -8 -7 -15 -15 -15h-29c-8 0 -15 7 -15 15zM257 575v40c0 8 7 15 15 15h29c8 0 15 -7 15 -15v-40
c0 -8 -7 -15 -15 -15h-29c-8 0 -15 7 -15 15zM50 415v40c0 8 7 15 15 15h29c8 0 15 -7 15 -15v-40c0 -8 -7 -15 -15 -15h-29c-8 0 -15 7 -15 15zM50 495v40c0 8 7 15 15 15h29c8 0 15 -7 15 -15v-40c0 -8 -7 -15 -15 -15h-29c-8 0 -15 7 -15 15zM119 575v40c0 8 7 15 15 15
h29c8 0 15 -7 15 -15v-40c0 -8 -7 -15 -15 -15h-29c-8 0 -15 7 -15 15z" />
    <glyph glyph-name="quotedblright" unicode="&#x201d;" horiz-adv-x="366" 
d="M178 615v-40c0 -8 -7 -15 -15 -15h-29c-8 0 -15 7 -15 15v40c0 8 7 15 15 15h29c8 0 15 -7 15 -15zM178 535v-40c0 -8 -7 -15 -15 -15h-29c-8 0 -15 7 -15 15v40c0 8 7 15 15 15h29c8 0 15 -7 15 -15zM109 455v-40c0 -8 -7 -15 -15 -15h-29c-8 0 -15 7 -15 15v40
c0 8 7 15 15 15h29c8 0 15 -7 15 -15zM316 615v-40c0 -8 -7 -15 -15 -15h-29c-8 0 -15 7 -15 15v40c0 8 7 15 15 15h29c8 0 15 -7 15 -15zM316 535v-40c0 -8 -7 -15 -15 -15h-29c-8 0 -15 7 -15 15v40c0 8 7 15 15 15h29c8 0 15 -7 15 -15zM247 455v-40c0 -8 -7 -15 -15 -15
h-29c-8 0 -15 7 -15 15v40c0 8 7 15 15 15h29c8 0 15 -7 15 -15z" />
    <glyph glyph-name="quoteleft" unicode="&#x2018;" horiz-adv-x="228" 
d="M50 415v40c0 8 7 15 15 15h29c8 0 15 -7 15 -15v-40c0 -8 -7 -15 -15 -15h-29c-8 0 -15 7 -15 15zM50 495v40c0 8 7 15 15 15h29c8 0 15 -7 15 -15v-40c0 -8 -7 -15 -15 -15h-29c-8 0 -15 7 -15 15zM119 575v40c0 8 7 15 15 15h29c8 0 15 -7 15 -15v-40
c0 -8 -7 -15 -15 -15h-29c-8 0 -15 7 -15 15z" />
    <glyph glyph-name="quoteright" unicode="&#x2019;" horiz-adv-x="228" 
d="M178 615v-40c0 -8 -7 -15 -15 -15h-29c-8 0 -15 7 -15 15v40c0 8 7 15 15 15h29c8 0 15 -7 15 -15zM178 535v-40c0 -8 -7 -15 -15 -15h-29c-8 0 -15 7 -15 15v40c0 8 7 15 15 15h29c8 0 15 -7 15 -15zM109 455v-40c0 -8 -7 -15 -15 -15h-29c-8 0 -15 7 -15 15v40
c0 8 7 15 15 15h29c8 0 15 -7 15 -15z" />
    <glyph glyph-name="yen" unicode="&#xa5;" 
d="M385 495c0 -8 -7 -15 -15 -15h-29c-8 0 -15 7 -15 15v40c0 8 7 15 15 15h29c8 0 15 -7 15 -15v-40zM385 415c0 -8 -7 -15 -15 -15h-29c-8 0 -15 7 -15 15v40c0 8 7 15 15 15h29c8 0 15 -7 15 -15v-40zM316 335c0 -8 -7 -15 -15 -15h-29c-8 0 -15 7 -15 15v40
c0 8 7 15 15 15h29c8 0 15 -7 15 -15v-40zM385 255c0 -8 -7 -15 -15 -15h-29c-8 0 -15 7 -15 15v40c0 8 7 15 15 15h29c8 0 15 -7 15 -15v-40zM109 495c0 -8 -7 -15 -15 -15h-29c-8 0 -15 7 -15 15v40c0 8 7 15 15 15h29c8 0 15 -7 15 -15v-40zM316 255c0 -8 -7 -15 -15 -15
h-29c-8 0 -15 7 -15 15v40c0 8 7 15 15 15h29c8 0 15 -7 15 -15v-40zM109 415c0 -8 -7 -15 -15 -15h-29c-8 0 -15 7 -15 15v40c0 8 7 15 15 15h29c8 0 15 -7 15 -15v-40zM178 335c0 -8 -7 -15 -15 -15h-29c-8 0 -15 7 -15 15v40c0 8 7 15 15 15h29c8 0 15 -7 15 -15v-40z
M247 255c0 -8 -7 -15 -15 -15h-29c-8 0 -15 7 -15 15v40c0 8 7 15 15 15h29c8 0 15 -7 15 -15v-40zM385 95c0 -8 -7 -15 -15 -15h-29c-8 0 -15 7 -15 15v40c0 8 7 15 15 15h29c8 0 15 -7 15 -15v-40zM178 255c0 -8 -7 -15 -15 -15h-29c-8 0 -15 7 -15 15v40c0 8 7 15 15 15
h29c8 0 15 -7 15 -15v-40zM247 175c0 -8 -7 -15 -15 -15h-29c-8 0 -15 7 -15 15v40c0 8 7 15 15 15h29c8 0 15 -7 15 -15v-40zM316 95c0 -8 -7 -15 -15 -15h-29c-8 0 -15 7 -15 15v40c0 8 7 15 15 15h29c8 0 15 -7 15 -15v-40zM109 255c0 -8 -7 -15 -15 -15h-29
c-8 0 -15 7 -15 15v40c0 8 7 15 15 15h29c8 0 15 -7 15 -15v-40zM247 95c0 -8 -7 -15 -15 -15h-29c-8 0 -15 7 -15 15v40c0 8 7 15 15 15h29c8 0 15 -7 15 -15v-40zM178 95c0 -8 -7 -15 -15 -15h-29c-8 0 -15 7 -15 15v40c0 8 7 15 15 15h29c8 0 15 -7 15 -15v-40zM247 15
c0 -8 -7 -15 -15 -15h-29c-8 0 -15 7 -15 15v40c0 8 7 15 15 15h29c8 0 15 -7 15 -15v-40zM109 95c0 -8 -7 -15 -15 -15h-29c-8 0 -15 7 -15 15v40c0 8 7 15 15 15h29c8 0 15 -7 15 -15v-40z" />
    <glyph glyph-name="product" unicode="&#x220f;" 
d="M385 495c0 -8 -7 -15 -15 -15h-29c-8 0 -15 7 -15 15v40c0 8 7 15 15 15h29c8 0 15 -7 15 -15v-40zM316 495c0 -8 -7 -15 -15 -15h-29c-8 0 -15 7 -15 15v40c0 8 7 15 15 15h29c8 0 15 -7 15 -15v-40zM385 415c0 -8 -7 -15 -15 -15h-29c-8 0 -15 7 -15 15v40
c0 8 7 15 15 15h29c8 0 15 -7 15 -15v-40zM247 495c0 -8 -7 -15 -15 -15h-29c-8 0 -15 7 -15 15v40c0 8 7 15 15 15h29c8 0 15 -7 15 -15v-40zM385 335c0 -8 -7 -15 -15 -15h-29c-8 0 -15 7 -15 15v40c0 8 7 15 15 15h29c8 0 15 -7 15 -15v-40zM178 495c0 -8 -7 -15 -15 -15
h-29c-8 0 -15 7 -15 15v40c0 8 7 15 15 15h29c8 0 15 -7 15 -15v-40zM385 255c0 -8 -7 -15 -15 -15h-29c-8 0 -15 7 -15 15v40c0 8 7 15 15 15h29c8 0 15 -7 15 -15v-40zM109 495c0 -8 -7 -15 -15 -15h-29c-8 0 -15 7 -15 15v40c0 8 7 15 15 15h29c8 0 15 -7 15 -15v-40z
M385 175c0 -8 -7 -15 -15 -15h-29c-8 0 -15 7 -15 15v40c0 8 7 15 15 15h29c8 0 15 -7 15 -15v-40zM109 415c0 -8 -7 -15 -15 -15h-29c-8 0 -15 7 -15 15v40c0 8 7 15 15 15h29c8 0 15 -7 15 -15v-40zM385 95c0 -8 -7 -15 -15 -15h-29c-8 0 -15 7 -15 15v40c0 8 7 15 15 15
h29c8 0 15 -7 15 -15v-40zM109 335c0 -8 -7 -15 -15 -15h-29c-8 0 -15 7 -15 15v40c0 8 7 15 15 15h29c8 0 15 -7 15 -15v-40zM385 15c0 -8 -7 -15 -15 -15h-29c-8 0 -15 7 -15 15v40c0 8 7 15 15 15h29c8 0 15 -7 15 -15v-40zM109 255c0 -8 -7 -15 -15 -15h-29
c-8 0 -15 7 -15 15v40c0 8 7 15 15 15h29c8 0 15 -7 15 -15v-40zM109 175c0 -8 -7 -15 -15 -15h-29c-8 0 -15 7 -15 15v40c0 8 7 15 15 15h29c8 0 15 -7 15 -15v-40zM109 95c0 -8 -7 -15 -15 -15h-29c-8 0 -15 7 -15 15v40c0 8 7 15 15 15h29c8 0 15 -7 15 -15v-40zM109 15
c0 -8 -7 -15 -15 -15h-29c-8 0 -15 7 -15 15v40c0 8 7 15 15 15h29c8 0 15 -7 15 -15v-40z" />
    <glyph glyph-name="pi" unicode="&#x3c0;" 
d="M385 495c0 -8 -7 -15 -15 -15h-29c-8 0 -15 7 -15 15v40c0 8 7 15 15 15h29c8 0 15 -7 15 -15v-40zM316 495c0 -8 -7 -15 -15 -15h-29c-8 0 -15 7 -15 15v40c0 8 7 15 15 15h29c8 0 15 -7 15 -15v-40zM385 415c0 -8 -7 -15 -15 -15h-29c-8 0 -15 7 -15 15v40
c0 8 7 15 15 15h29c8 0 15 -7 15 -15v-40zM247 495c0 -8 -7 -15 -15 -15h-29c-8 0 -15 7 -15 15v40c0 8 7 15 15 15h29c8 0 15 -7 15 -15v-40zM385 335c0 -8 -7 -15 -15 -15h-29c-8 0 -15 7 -15 15v40c0 8 7 15 15 15h29c8 0 15 -7 15 -15v-40zM178 495c0 -8 -7 -15 -15 -15
h-29c-8 0 -15 7 -15 15v40c0 8 7 15 15 15h29c8 0 15 -7 15 -15v-40zM385 255c0 -8 -7 -15 -15 -15h-29c-8 0 -15 7 -15 15v40c0 8 7 15 15 15h29c8 0 15 -7 15 -15v-40zM109 495c0 -8 -7 -15 -15 -15h-29c-8 0 -15 7 -15 15v40c0 8 7 15 15 15h29c8 0 15 -7 15 -15v-40z
M385 175c0 -8 -7 -15 -15 -15h-29c-8 0 -15 7 -15 15v40c0 8 7 15 15 15h29c8 0 15 -7 15 -15v-40zM109 415c0 -8 -7 -15 -15 -15h-29c-8 0 -15 7 -15 15v40c0 8 7 15 15 15h29c8 0 15 -7 15 -15v-40zM385 95c0 -8 -7 -15 -15 -15h-29c-8 0 -15 7 -15 15v40c0 8 7 15 15 15
h29c8 0 15 -7 15 -15v-40zM109 335c0 -8 -7 -15 -15 -15h-29c-8 0 -15 7 -15 15v40c0 8 7 15 15 15h29c8 0 15 -7 15 -15v-40zM385 15c0 -8 -7 -15 -15 -15h-29c-8 0 -15 7 -15 15v40c0 8 7 15 15 15h29c8 0 15 -7 15 -15v-40zM109 255c0 -8 -7 -15 -15 -15h-29
c-8 0 -15 7 -15 15v40c0 8 7 15 15 15h29c8 0 15 -7 15 -15v-40zM109 175c0 -8 -7 -15 -15 -15h-29c-8 0 -15 7 -15 15v40c0 8 7 15 15 15h29c8 0 15 -7 15 -15v-40zM109 95c0 -8 -7 -15 -15 -15h-29c-8 0 -15 7 -15 15v40c0 8 7 15 15 15h29c8 0 15 -7 15 -15v-40zM109 15
c0 -8 -7 -15 -15 -15h-29c-8 0 -15 7 -15 15v40c0 8 7 15 15 15h29c8 0 15 -7 15 -15v-40z" />
    <glyph glyph-name="endash" unicode="&#x2013;" 
d="M385 255c0 -8 -7 -15 -15 -15h-29c-8 0 -15 7 -15 15v40c0 8 7 15 15 15h29c8 0 15 -7 15 -15v-40zM316 255c0 -8 -7 -15 -15 -15h-29c-8 0 -15 7 -15 15v40c0 8 7 15 15 15h29c8 0 15 -7 15 -15v-40zM247 255c0 -8 -7 -15 -15 -15h-29c-8 0 -15 7 -15 15v40
c0 8 7 15 15 15h29c8 0 15 -7 15 -15v-40zM178 255c0 -8 -7 -15 -15 -15h-29c-8 0 -15 7 -15 15v40c0 8 7 15 15 15h29c8 0 15 -7 15 -15v-40zM109 255c0 -8 -7 -15 -15 -15h-29c-8 0 -15 7 -15 15v40c0 8 7 15 15 15h29c8 0 15 -7 15 -15v-40z" />
    <glyph glyph-name="emdash" unicode="&#x2014;" 
d="M385 255c0 -8 -7 -15 -15 -15h-29c-8 0 -15 7 -15 15v40c0 8 7 15 15 15h29c8 0 15 -7 15 -15v-40zM316 255c0 -8 -7 -15 -15 -15h-29c-8 0 -15 7 -15 15v40c0 8 7 15 15 15h29c8 0 15 -7 15 -15v-40zM247 255c0 -8 -7 -15 -15 -15h-29c-8 0 -15 7 -15 15v40
c0 8 7 15 15 15h29c8 0 15 -7 15 -15v-40zM178 255c0 -8 -7 -15 -15 -15h-29c-8 0 -15 7 -15 15v40c0 8 7 15 15 15h29c8 0 15 -7 15 -15v-40zM109 255c0 -8 -7 -15 -15 -15h-29c-8 0 -15 7 -15 15v40c0 8 7 15 15 15h29c8 0 15 -7 15 -15v-40z" />
    <glyph glyph-name="Adieresis" unicode="&#xc4;" 
d="M247 335c0 -8 -7 -15 -15 -15h-29c-8 0 -15 7 -15 15v40c0 8 7 15 15 15h29c8 0 15 -7 15 -15v-40zM316 255c0 -8 -7 -15 -15 -15h-29c-8 0 -15 7 -15 15v40c0 8 7 15 15 15h29c8 0 15 -7 15 -15v-40zM385 175c0 -8 -7 -15 -15 -15h-29c-8 0 -15 7 -15 15v40
c0 8 7 15 15 15h29c8 0 15 -7 15 -15v-40zM178 255c0 -8 -7 -15 -15 -15h-29c-8 0 -15 7 -15 15v40c0 8 7 15 15 15h29c8 0 15 -7 15 -15v-40zM385 95c0 -8 -7 -15 -15 -15h-29c-8 0 -15 7 -15 15v40c0 8 7 15 15 15h29c8 0 15 -7 15 -15v-40zM316 95c0 -8 -7 -15 -15 -15
h-29c-8 0 -15 7 -15 15v40c0 8 7 15 15 15h29c8 0 15 -7 15 -15v-40zM247 95c0 -8 -7 -15 -15 -15h-29c-8 0 -15 7 -15 15v40c0 8 7 15 15 15h29c8 0 15 -7 15 -15v-40zM385 15c0 -8 -7 -15 -15 -15h-29c-8 0 -15 7 -15 15v40c0 8 7 15 15 15h29c8 0 15 -7 15 -15v-40z
M109 175c0 -8 -7 -15 -15 -15h-29c-8 0 -15 7 -15 15v40c0 8 7 15 15 15h29c8 0 15 -7 15 -15v-40zM178 95c0 -8 -7 -15 -15 -15h-29c-8 0 -15 7 -15 15v40c0 8 7 15 15 15h29c8 0 15 -7 15 -15v-40zM109 95c0 -8 -7 -15 -15 -15h-29c-8 0 -15 7 -15 15v40c0 8 7 15 15 15
h29c8 0 15 -7 15 -15v-40zM109 15c0 -8 -7 -15 -15 -15h-29c-8 0 -15 7 -15 15v40c0 8 7 15 15 15h29c8 0 15 -7 15 -15v-40zM316 495c0 -8 -7 -15 -15 -15h-29c-8 0 -15 7 -15 15v40c0 8 7 15 15 15h29c8 0 15 -7 15 -15v-40zM178 495c0 -8 -7 -15 -15 -15h-29
c-8 0 -15 7 -15 15v40c0 8 7 15 15 15h29c8 0 15 -7 15 -15v-40z" />
    <glyph glyph-name="dotlessi" unicode="&#x131;" 
d="M385 335c0 -8 -7 -15 -15 -15h-29c-8 0 -15 7 -15 15v40c0 8 7 15 15 15h29c8 0 15 -7 15 -15v-40zM316 335c0 -8 -7 -15 -15 -15h-29c-8 0 -15 7 -15 15v40c0 8 7 15 15 15h29c8 0 15 -7 15 -15v-40zM247 335c0 -8 -7 -15 -15 -15h-29c-8 0 -15 7 -15 15v40
c0 8 7 15 15 15h29c8 0 15 -7 15 -15v-40zM178 335c0 -8 -7 -15 -15 -15h-29c-8 0 -15 7 -15 15v40c0 8 7 15 15 15h29c8 0 15 -7 15 -15v-40zM109 335c0 -8 -7 -15 -15 -15h-29c-8 0 -15 7 -15 15v40c0 8 7 15 15 15h29c8 0 15 -7 15 -15v-40zM247 255c0 -8 -7 -15 -15 -15
h-29c-8 0 -15 7 -15 15v40c0 8 7 15 15 15h29c8 0 15 -7 15 -15v-40zM247 175c0 -8 -7 -15 -15 -15h-29c-8 0 -15 7 -15 15v40c0 8 7 15 15 15h29c8 0 15 -7 15 -15v-40zM385 15c0 -8 -7 -15 -15 -15h-29c-8 0 -15 7 -15 15v40c0 8 7 15 15 15h29c8 0 15 -7 15 -15v-40z
M247 95c0 -8 -7 -15 -15 -15h-29c-8 0 -15 7 -15 15v40c0 8 7 15 15 15h29c8 0 15 -7 15 -15v-40zM316 15c0 -8 -7 -15 -15 -15h-29c-8 0 -15 7 -15 15v40c0 8 7 15 15 15h29c8 0 15 -7 15 -15v-40zM247 15c0 -8 -7 -15 -15 -15h-29c-8 0 -15 7 -15 15v40c0 8 7 15 15 15h29
c8 0 15 -7 15 -15v-40zM178 15c0 -8 -7 -15 -15 -15h-29c-8 0 -15 7 -15 15v40c0 8 7 15 15 15h29c8 0 15 -7 15 -15v-40zM109 15c0 -8 -7 -15 -15 -15h-29c-8 0 -15 7 -15 15v40c0 8 7 15 15 15h29c8 0 15 -7 15 -15v-40z" />
    <glyph glyph-name="divide" unicode="&#xf7;" horiz-adv-x="297" 
d="M178 415c0 -8 -7 -15 -15 -15h-29c-8 0 -15 7 -15 15v40c0 8 7 15 15 15h29c8 0 15 -7 15 -15v-40zM247 255c0 -8 -7 -15 -15 -15h-29c-8 0 -15 7 -15 15v40c0 8 7 15 15 15h29c8 0 15 -7 15 -15v-40zM178 255c0 -8 -7 -15 -15 -15h-29c-8 0 -15 7 -15 15v40
c0 8 7 15 15 15h29c8 0 15 -7 15 -15v-40zM109 255c0 -8 -7 -15 -15 -15h-29c-8 0 -15 7 -15 15v40c0 8 7 15 15 15h29c8 0 15 -7 15 -15v-40zM178 95c0 -8 -7 -15 -15 -15h-29c-8 0 -15 7 -15 15v40c0 8 7 15 15 15h29c8 0 15 -7 15 -15v-40z" />
    <glyph glyph-name="lozenge" unicode="&#x25ca;" 
d="M247 495c0 -8 -7 -15 -15 -15h-29c-8 0 -15 7 -15 15v40c0 8 7 15 15 15h29c8 0 15 -7 15 -15v-40zM316 415c0 -8 -7 -15 -15 -15h-29c-8 0 -15 7 -15 15v40c0 8 7 15 15 15h29c8 0 15 -7 15 -15v-40zM385 335c0 -8 -7 -15 -15 -15h-29c-8 0 -15 7 -15 15v40
c0 8 7 15 15 15h29c8 0 15 -7 15 -15v-40zM385 255c0 -8 -7 -15 -15 -15h-29c-8 0 -15 7 -15 15v40c0 8 7 15 15 15h29c8 0 15 -7 15 -15v-40zM178 415c0 -8 -7 -15 -15 -15h-29c-8 0 -15 7 -15 15v40c0 8 7 15 15 15h29c8 0 15 -7 15 -15v-40zM385 175c0 -8 -7 -15 -15 -15
h-29c-8 0 -15 7 -15 15v40c0 8 7 15 15 15h29c8 0 15 -7 15 -15v-40zM109 335c0 -8 -7 -15 -15 -15h-29c-8 0 -15 7 -15 15v40c0 8 7 15 15 15h29c8 0 15 -7 15 -15v-40zM316 95c0 -8 -7 -15 -15 -15h-29c-8 0 -15 7 -15 15v40c0 8 7 15 15 15h29c8 0 15 -7 15 -15v-40z
M109 255c0 -8 -7 -15 -15 -15h-29c-8 0 -15 7 -15 15v40c0 8 7 15 15 15h29c8 0 15 -7 15 -15v-40zM109 175c0 -8 -7 -15 -15 -15h-29c-8 0 -15 7 -15 15v40c0 8 7 15 15 15h29c8 0 15 -7 15 -15v-40zM178 95c0 -8 -7 -15 -15 -15h-29c-8 0 -15 7 -15 15v40c0 8 7 15 15 15
h29c8 0 15 -7 15 -15v-40zM247 15c0 -8 -7 -15 -15 -15h-29c-8 0 -15 7 -15 15v40c0 8 7 15 15 15h29c8 0 15 -7 15 -15v-40z" />
    <glyph glyph-name="lessequal" unicode="&#x2264;" horiz-adv-x="297" 
d="M247 495c0 -8 -7 -15 -15 -15h-29c-8 0 -15 7 -15 15v40c0 8 7 15 15 15h29c8 0 15 -7 15 -15v-40zM178 415c0 -8 -7 -15 -15 -15h-29c-8 0 -15 7 -15 15v40c0 8 7 15 15 15h29c8 0 15 -7 15 -15v-40zM109 335c0 -8 -7 -15 -15 -15h-29c-8 0 -15 7 -15 15v40
c0 8 7 15 15 15h29c8 0 15 -7 15 -15v-40zM178 255c0 -8 -7 -15 -15 -15h-29c-8 0 -15 7 -15 15v40c0 8 7 15 15 15h29c8 0 15 -7 15 -15v-40zM247 175c0 -8 -7 -15 -15 -15h-29c-8 0 -15 7 -15 15v40c0 8 7 15 15 15h29c8 0 15 -7 15 -15v-40zM247 15c0 -8 -7 -15 -15 -15
h-29c-8 0 -15 7 -15 15v40c0 8 7 15 15 15h29c8 0 15 -7 15 -15v-40zM178 15c0 -8 -7 -15 -15 -15h-29c-8 0 -15 7 -15 15v40c0 8 7 15 15 15h29c8 0 15 -7 15 -15v-40zM109 15c0 -8 -7 -15 -15 -15h-29c-8 0 -15 7 -15 15v40c0 8 7 15 15 15h29c8 0 15 -7 15 -15v-40z" />
    <glyph glyph-name="greaterequal" unicode="&#x2265;" horiz-adv-x="297" 
d="M50 495v40c0 8 7 15 15 15h29c8 0 15 -7 15 -15v-40c0 -8 -7 -15 -15 -15h-29c-8 0 -15 7 -15 15zM119 415v40c0 8 7 15 15 15h29c8 0 15 -7 15 -15v-40c0 -8 -7 -15 -15 -15h-29c-8 0 -15 7 -15 15zM188 335v40c0 8 7 15 15 15h29c8 0 15 -7 15 -15v-40
c0 -8 -7 -15 -15 -15h-29c-8 0 -15 7 -15 15zM119 255v40c0 8 7 15 15 15h29c8 0 15 -7 15 -15v-40c0 -8 -7 -15 -15 -15h-29c-8 0 -15 7 -15 15zM50 175v40c0 8 7 15 15 15h29c8 0 15 -7 15 -15v-40c0 -8 -7 -15 -15 -15h-29c-8 0 -15 7 -15 15zM50 15v40c0 8 7 15 15 15
h29c8 0 15 -7 15 -15v-40c0 -8 -7 -15 -15 -15h-29c-8 0 -15 7 -15 15zM119 15v40c0 8 7 15 15 15h29c8 0 15 -7 15 -15v-40c0 -8 -7 -15 -15 -15h-29c-8 0 -15 7 -15 15zM188 15v40c0 8 7 15 15 15h29c8 0 15 -7 15 -15v-40c0 -8 -7 -15 -15 -15h-29c-8 0 -15 7 -15 15z
" />
    <glyph glyph-name="plusminus" unicode="&#xb1;" horiz-adv-x="297" 
d="M178 335c0 -8 -7 -15 -15 -15h-29c-8 0 -15 7 -15 15v40c0 8 7 15 15 15h29c8 0 15 -7 15 -15v-40zM247 255c0 -8 -7 -15 -15 -15h-29c-8 0 -15 7 -15 15v40c0 8 7 15 15 15h29c8 0 15 -7 15 -15v-40zM178 255c0 -8 -7 -15 -15 -15h-29c-8 0 -15 7 -15 15v40
c0 8 7 15 15 15h29c8 0 15 -7 15 -15v-40zM109 255c0 -8 -7 -15 -15 -15h-29c-8 0 -15 7 -15 15v40c0 8 7 15 15 15h29c8 0 15 -7 15 -15v-40zM178 175c0 -8 -7 -15 -15 -15h-29c-8 0 -15 7 -15 15v40c0 8 7 15 15 15h29c8 0 15 -7 15 -15v-40zM247 15c0 -8 -7 -15 -15 -15
h-29c-8 0 -15 7 -15 15v40c0 8 7 15 15 15h29c8 0 15 -7 15 -15v-40zM178 15c0 -8 -7 -15 -15 -15h-29c-8 0 -15 7 -15 15v40c0 8 7 15 15 15h29c8 0 15 -7 15 -15v-40zM109 15c0 -8 -7 -15 -15 -15h-29c-8 0 -15 7 -15 15v40c0 8 7 15 15 15h29c8 0 15 -7 15 -15v-40z" />
    <glyph glyph-name="Delta" unicode="&#x394;" 
d="M247 495c0 -8 -7 -15 -15 -15h-29c-8 0 -15 7 -15 15v40c0 8 7 15 15 15h29c8 0 15 -7 15 -15v-40zM247 415c0 -8 -7 -15 -15 -15h-29c-8 0 -15 7 -15 15v40c0 8 7 15 15 15h29c8 0 15 -7 15 -15v-40zM316 335c0 -8 -7 -15 -15 -15h-29c-8 0 -15 7 -15 15v40
c0 8 7 15 15 15h29c8 0 15 -7 15 -15v-40zM385 255c0 -8 -7 -15 -15 -15h-29c-8 0 -15 7 -15 15v40c0 8 7 15 15 15h29c8 0 15 -7 15 -15v-40zM385 175c0 -8 -7 -15 -15 -15h-29c-8 0 -15 7 -15 15v40c0 8 7 15 15 15h29c8 0 15 -7 15 -15v-40zM178 335c0 -8 -7 -15 -15 -15
h-29c-8 0 -15 7 -15 15v40c0 8 7 15 15 15h29c8 0 15 -7 15 -15v-40zM385 95c0 -8 -7 -15 -15 -15h-29c-8 0 -15 7 -15 15v40c0 8 7 15 15 15h29c8 0 15 -7 15 -15v-40zM385 15c0 -8 -7 -15 -15 -15h-29c-8 0 -15 7 -15 15v40c0 8 7 15 15 15h29c8 0 15 -7 15 -15v-40z
M109 255c0 -8 -7 -15 -15 -15h-29c-8 0 -15 7 -15 15v40c0 8 7 15 15 15h29c8 0 15 -7 15 -15v-40zM316 15c0 -8 -7 -15 -15 -15h-29c-8 0 -15 7 -15 15v40c0 8 7 15 15 15h29c8 0 15 -7 15 -15v-40zM109 175c0 -8 -7 -15 -15 -15h-29c-8 0 -15 7 -15 15v40c0 8 7 15 15 15
h29c8 0 15 -7 15 -15v-40zM247 15c0 -8 -7 -15 -15 -15h-29c-8 0 -15 7 -15 15v40c0 8 7 15 15 15h29c8 0 15 -7 15 -15v-40zM109 95c0 -8 -7 -15 -15 -15h-29c-8 0 -15 7 -15 15v40c0 8 7 15 15 15h29c8 0 15 -7 15 -15v-40zM178 15c0 -8 -7 -15 -15 -15h-29
c-8 0 -15 7 -15 15v40c0 8 7 15 15 15h29c8 0 15 -7 15 -15v-40zM109 15c0 -8 -7 -15 -15 -15h-29c-8 0 -15 7 -15 15v40c0 8 7 15 15 15h29c8 0 15 -7 15 -15v-40z" />
    <glyph glyph-name="Delta" unicode="&#x2206;" 
d="M247 495c0 -8 -7 -15 -15 -15h-29c-8 0 -15 7 -15 15v40c0 8 7 15 15 15h29c8 0 15 -7 15 -15v-40zM247 415c0 -8 -7 -15 -15 -15h-29c-8 0 -15 7 -15 15v40c0 8 7 15 15 15h29c8 0 15 -7 15 -15v-40zM316 335c0 -8 -7 -15 -15 -15h-29c-8 0 -15 7 -15 15v40
c0 8 7 15 15 15h29c8 0 15 -7 15 -15v-40zM385 255c0 -8 -7 -15 -15 -15h-29c-8 0 -15 7 -15 15v40c0 8 7 15 15 15h29c8 0 15 -7 15 -15v-40zM385 175c0 -8 -7 -15 -15 -15h-29c-8 0 -15 7 -15 15v40c0 8 7 15 15 15h29c8 0 15 -7 15 -15v-40zM178 335c0 -8 -7 -15 -15 -15
h-29c-8 0 -15 7 -15 15v40c0 8 7 15 15 15h29c8 0 15 -7 15 -15v-40zM385 95c0 -8 -7 -15 -15 -15h-29c-8 0 -15 7 -15 15v40c0 8 7 15 15 15h29c8 0 15 -7 15 -15v-40zM385 15c0 -8 -7 -15 -15 -15h-29c-8 0 -15 7 -15 15v40c0 8 7 15 15 15h29c8 0 15 -7 15 -15v-40z
M109 255c0 -8 -7 -15 -15 -15h-29c-8 0 -15 7 -15 15v40c0 8 7 15 15 15h29c8 0 15 -7 15 -15v-40zM316 15c0 -8 -7 -15 -15 -15h-29c-8 0 -15 7 -15 15v40c0 8 7 15 15 15h29c8 0 15 -7 15 -15v-40zM109 175c0 -8 -7 -15 -15 -15h-29c-8 0 -15 7 -15 15v40c0 8 7 15 15 15
h29c8 0 15 -7 15 -15v-40zM247 15c0 -8 -7 -15 -15 -15h-29c-8 0 -15 7 -15 15v40c0 8 7 15 15 15h29c8 0 15 -7 15 -15v-40zM109 95c0 -8 -7 -15 -15 -15h-29c-8 0 -15 7 -15 15v40c0 8 7 15 15 15h29c8 0 15 -7 15 -15v-40zM178 15c0 -8 -7 -15 -15 -15h-29
c-8 0 -15 7 -15 15v40c0 8 7 15 15 15h29c8 0 15 -7 15 -15v-40zM109 15c0 -8 -7 -15 -15 -15h-29c-8 0 -15 7 -15 15v40c0 8 7 15 15 15h29c8 0 15 -7 15 -15v-40z" />
    <glyph glyph-name="brokenbar" unicode="&#xa6;" horiz-adv-x="159" 
d="M109 495c0 -8 -7 -15 -15 -15h-29c-8 0 -15 7 -15 15v40c0 8 7 15 15 15h29c8 0 15 -7 15 -15v-40zM109 415c0 -8 -7 -15 -15 -15h-29c-8 0 -15 7 -15 15v40c0 8 7 15 15 15h29c8 0 15 -7 15 -15v-40zM109 335c0 -8 -7 -15 -15 -15h-29c-8 0 -15 7 -15 15v40
c0 8 7 15 15 15h29c8 0 15 -7 15 -15v-40zM109 175c0 -8 -7 -15 -15 -15h-29c-8 0 -15 7 -15 15v40c0 8 7 15 15 15h29c8 0 15 -7 15 -15v-40zM109 95c0 -8 -7 -15 -15 -15h-29c-8 0 -15 7 -15 15v40c0 8 7 15 15 15h29c8 0 15 -7 15 -15v-40zM109 15c0 -8 -7 -15 -15 -15
h-29c-8 0 -15 7 -15 15v40c0 8 7 15 15 15h29c8 0 15 -7 15 -15v-40z" />
    <glyph glyph-name="minus" unicode="&#x2212;" horiz-adv-x="297" 
d="M247 255c0 -8 -7 -15 -15 -15h-29c-8 0 -15 7 -15 15v40c0 8 7 15 15 15h29c8 0 15 -7 15 -15v-40zM178 255c0 -8 -7 -15 -15 -15h-29c-8 0 -15 7 -15 15v40c0 8 7 15 15 15h29c8 0 15 -7 15 -15v-40zM109 255c0 -8 -7 -15 -15 -15h-29c-8 0 -15 7 -15 15v40
c0 8 7 15 15 15h29c8 0 15 -7 15 -15v-40z" />
    <glyph glyph-name="multiply" unicode="&#xd7;" horiz-adv-x="297" 
d="M247 335c0 -8 -7 -15 -15 -15h-29c-8 0 -15 7 -15 15v40c0 8 7 15 15 15h29c8 0 15 -7 15 -15v-40zM109 335c0 -8 -7 -15 -15 -15h-29c-8 0 -15 7 -15 15v40c0 8 7 15 15 15h29c8 0 15 -7 15 -15v-40zM178 255c0 -8 -7 -15 -15 -15h-29c-8 0 -15 7 -15 15v40
c0 8 7 15 15 15h29c8 0 15 -7 15 -15v-40zM247 175c0 -8 -7 -15 -15 -15h-29c-8 0 -15 7 -15 15v40c0 8 7 15 15 15h29c8 0 15 -7 15 -15v-40zM109 175c0 -8 -7 -15 -15 -15h-29c-8 0 -15 7 -15 15v40c0 8 7 15 15 15h29c8 0 15 -7 15 -15v-40z" />
    </font>
</defs>
</svg>
